<svg xmlns="http://www.w3.org/2000/svg" xml:space="preserve" width="2001.131" height="880.929" style="shape-rendering:geometricPrecision;text-rendering:geometricPrecision;image-rendering:optimizeQuality;fill-rule:evenodd;clip-rule:evenodd" viewBox="0 0 1288.81 567.35"><defs><style>.fil5{fill:#22444d;fill-rule:nonzero}.fil12,.fil2,.fil32{fill:#244951;fill-rule:nonzero}.fil12,.fil2{fill:#264951}.fil12{fill:#264d55}.fil10,.fil19,.fil72{fill:#274951;fill-rule:nonzero}.fil10,.fil72{fill:#2a4d55}.fil72{fill:#2b5b60}.fil6,.fil7,.fil9{fill:#2b5d61;fill-rule:nonzero}.fil6,.fil9{fill:#2d575d}.fil9{fill:#2e6163}.fil3,.fil60,.fil8{fill:#2e6768;fill-rule:nonzero}.fil3,.fil8{fill:#2f5c60}.fil8{fill:#306668}.fil1,.fil20,.fil4{fill:#356d6a;fill-rule:nonzero}.fil1,.fil20{fill:#367672}.fil1{fill:#3c7f76}.fil18,.fil24,.fil87{fill:#4b9887;fill-rule:nonzero}.fil24,.fil87{fill:#4d9d89}.fil24{fill:#78c6a1}</style></defs><g id="Слой_x0020_1"><g id="_105553273431680"><path style="fill:none" d="M1288.81 567.35H0V0h1288.81z"/><path class="fil1" d="M966.42 345.87c-.98 2.45-1.96 4.9-2.94 7.34-3.63 5.09-11.38 6.11-18.63 7.08-5.67.76-8.51-2.36-5.95-5.8 1.84-2.48 5.28-4.22 7.53-6.52 1.41-1.45 3.04-2.73 1.36-4.51-.72-2.47 1.84-3.96 4.18-5.44 9.66-6.03 18.53-12.59 29.69-17.59-20.87 9.75-41.96 19.25-63.41 28.48-2.03.88-4.35 1.81-6.38.41-2.2-1.52-.84-3.15.98-4.46 15.45-11.03 28.71-23.32 46.91-32.73 3.25-1.69 6.24-3.84 11.14-3.4 1.41.29 2.65.82 3.3 1.65 1.84 2.33 4.4 2.36 7.67 1.29 10.93-3.58 22.79-6.18 31.39-12.18 3.68-2.94 6.84-6.14 10.97-8.88-3.01.67-4.95 2.41-7.77 3.26-5.09 1.32-8.08.61-7.96-3.27.02-1.07-1.24-1.89-1.77-2.86.26-5.33 7.41-7.6 12.43-10.48 11.31-6.46 22.12-13.29 34.05-19.33 11.69-5.91 23.72-11.57 33.16-16.52-5.43 2.73-13.01 6.52-20.63 10.26-2.03 1-4.14 1.96-6.26.64-2.15-1.31-.79-2.82.74-4.07 1.46-1.2 3.25-2.21 4.9-3.3 19.68-12.97 37.46-23.62 58.04-36.01 12.58-5.63 15.9-6.03 29.06-12.23 1.93-1.1 14.08-6.92 18.64-7.11 0 0 .24.03.55.14 0 6.06.61 7.69.61 13.75-2.82 6.94-13.35 9.69-19.45 15.18-1.29 1.16-4.61 2.22-2.92 3.7 1.74 1.52 4.88.27 7.24-.23 4.85-1.05 13.47-2.16 17.63.88v3.64c-4.26 6.88-18.64 9.88-26.43 14.53-3.78 2.25-8.44 3.87-12.22 6.44 8.25-1.64 16.14-3.52 24.17-5.04 3.51-.66 11.18-1.8 14.48.44v5.47c-2.03 5.59-12.47 9.34-18.26 13.13-14.35 9.4-27.3 19.63-42.96 28.22-9.75 7.01-17.67 15-28.93 21.21-6.03 3.32-12.65 4.89-20.28 3.58-4.47-.78-7.84-.14-11.28 1.45-5.62 2.6-11.6 4.75-18.53 5.59-2.51.3-4.18 1.28-5.81 2.45-4.57 3.29-9.52 6.38-14.59 9.35-7.75 4.54-16.02 8.59-27.06 9.37-6.93.49-13 3.61-20.44 3.02z"/><path class="fil2" d="M1112.14 288.55c19.53-13.34 42.88-29.43 62.41-42.77 0 42.47-3.84 104.95-3.84 147.42-2.73 2.42-1.96-11.1-7.22-9.66-4.04.5-4.41 6.76-7.58 8.43-11.84 6.17-18.92 13.14-30.85 19.23-2.01 1.02-12.27-4.91-14.69-5.23-1.2-1.48-2.8-2.88-3.49-4.45-1.15-2.54-5.98-5.63-2.96-7.37 3.13-1.81 6.19 2.19 9.73 3.11.98.26 2.1.33 3.13.49-.19-.97.07-2.12-.65-2.89-5.14-5.62-10.26-11.25-15.8-16.71-8.42-8.28-3.23-18.75-11-27.15-1.63-1.77-1.91-4.04-2.82-6.06 4.3-2.56 2.25-6.27 4.04-9.38 2.56-4.43 4.78-9.14 4.02-14.1-.36-2.39-1.19-4.2-4.81-5.57-6.89-2.63-6.98-6.32.33-7.81 15.33-3.11 19.89-10.63 22.04-19.52z"/><path class="fil3" d="M1170.72 393.2c-8.77 11.5-22.33 20.88-34.05 31.07-2.13 1.86-4.09 2.35-6.46.14-3.47-3.21-7.1-6.37-10.66-9.55-.29-2.27 1.03-4.07 3.59-5.65 7.48-4.63 14.49-9.55 20.92-14.8 2.06-1.67 4.66-2.54 8.08-2.06 3.49 1.37 6.19.12 9.09-.99 2.89-1.11 5.79-2.97 9.49-.88v2.73z"/><path class="fil4" d="M1172.64 243.06c-13.2 2.53-26.43 5.09-39.66 7.57-2 .38-4.49 1.31-5.94-.15-.4-.4 1.65-2.01 3.05-2.71 14.13-7.07 28.35-14.07 42.53-21.09.02 5.47.02 10.92.02 16.39z"/><path class="fil5" d="M1280.62 543.67c-4.42 1.69-137.17-119.56-141.67-117.94-1.74.62 14.12-28.55 12.97-28.94-2.2-.75-.38-2.41-.17-3.69-2.94-3.18.81-5.18 3.54-7.1 1.98-1.4 3.8-3.18 7.05-3.69 2.8-2.13 5.59-4.26 8.37-6.4 0 4.86 109.9 162.89 109.9 167.75z"/><path class="fil6" d="M0 342.87c10.52-6.35 18.01-10.8 20.18-11.88 3.97-2 32.45-.25 37.37.57 3.4.56 6.31.01 8.27-1.71 4.21-3.69 9.54-6.72 14.13-10.2 10.33-7.84 22.5-14.3 37.82-17.95 4.69-1.11 9.11-2.57 13.65-3.9 2.82-.82 6.29-1.81 8.37.24 2.27 2.24-.6 3.98-3.13 5.41-6.77 3.81-14.18 7.1-21.16 10.72-10.21 5.3-18.1 11.95-27.04 17.99-4.18 2.82-9.04 5.39-11.93 9.08 4.18-.26 7.03.44 6.41 3.67-.31 1.55 1.6 2.22 3.54 2.33 8.27.47 16.14.9 23.43-3.14 10.26-5.67 22.93-7.89 36.48-7.93 3.32.88 6.22-.17 9.16-.88 8.8-2.38 15.95-6.46 24.12-9.5 6.89-2.57 13.44-4.57 21.18-1.43 3.04 1.23 5.88.24 8.58-.9 6.74-2.83 13.6-5.53 20.63-8.09 2.99-1.08 5.91-2.28 9.18-.79 3.01 1.37 1.6 3.43 1.27 5.27 11.45-5.25 22.76-10.52 33.9-15.93 2.8-1.36 6.31-2.95 9.54-.78 2.75 1.87.72 3.87-1.17 5.74-5.12 5.09-10.88 9.9-17.14 15.79 10.54-4.31 20.37-6.72 31.34-7.77 8.85-.85 15.11-5.47 22.02-8.88 12-5.92 23.81-12.03 36.27-17.57 2.85-1.26 5.76-2.91 9.71-1.42 2.25 2.24.05 3.81-2.32 5.04-10.83 5.62-20.59 12.02-31.63 17.48 4.9-2.47 9.68-5.07 15.45-6.73 2.44-.7 5.09-1.52 7.13.11 1.77 1.42.17 2.8-1.15 4.11-3.71 3.76-8.85 6.7-13.87 9.67-4.16 2.47-7.1 5.68-11.95 7.67-8.8 5.54-17.98 10.89-26.04 16.83-8.2 6.06-21.35 8.03-27.16 13.39 3.63-3.87 12.48-5.94 20.08-8.89 15.85-6.17 32.78-11.07 49.44-16.25 3.66-1.14 8.25-3.33 11.55.67.17 1.71-1.31 2.94-3.25 3.84-11.57 5.27-21.73 11.8-34.6 15.91-9.52 4.74-20.04 8.47-30.75 11.95-5.48 1.78-9.73 4.08-12.36 7.61 10.23-1.37 14.45-1.47 16.53 3.11-1.03 1.66 3.24 2.43.73 2.96-10.38 2.19-24.28 11.9-34.75 13.91-3.78.72-6.98 1.77-9.49 3.75-3.59 2.83-4.15 9.59-8.34 7.33-3.85-2.07-6.4 3.21-9.63 4.69-3.23 1.48-6.38 1.02-10.02 1.02-6.26 0-178.95 92.21-184.43 95.5-2.32 1.4-21.31-8.42-23.77-9.73-1.65-.88-2.01-.73-3.66 0-3.81 1.68-5.75 2.25-6.75 1.93v-12.42c3.92-3.18 10.68-9.8 6.56-9.43-5.19.47-3.76-4.29-5.94-6.16a3.42 3.42 0 0 0-.63-.02V342.85z"/><path class="fil4" d="M0 148.75c.48-.37.97-.74 1.48-1.09 2.41-1.69 5.38-2.68 8.46-.38 1.65 2.42.88 5.09 2.01 7.55-3.18 13.1-2.41 26.3-1.63 39.44.72 11.97.79 23.92.86 35.88.02 3.81 2.3 6.05 8.56 6.35 2.44.12 5 .56 5.45 2.36.5 1.99-1.84 3.4-4.38 3.59-10.69.81-14.68 5.97-19.01 11.09-.58.69-1.19 1.37-1.82 2.04V148.74zm0 292.36c47.13 39.5 100.3 85.05 144.86 126.25H48.93C33 552.67 16.51 537.53 0 522.46v-81.35z"/><path class="fil7" d="M146.47 338.56c-12.91-.41-24.84 1.86-34.41 7.19-10.93 6.08-22.9 4.49-34.24 2.38-5.14-.96 2.94-2.91 2.51-5.51-3.59.97-7.03 1.9-13.72 3.73 21.47-19.19 44.85-34.22 73.64-47.33-15.49.53-45.79 12.55-57.95 22.1-4.64 3.64-9.56 7.14-14.56 10.6-1.55 1.07-4.26 2.7-5.67 2.42-17.69-3.38-25.22 7.19-37.59 10.96-1.95.59-11.95 4.92-24.48 10.44v-69.81c.42-.36.83-.74 1.22-1.14 1.79-1.83 3.44-4.16 7.99-3.84 2.96.84 2.92 2.48 2.87 4.2-.05 2.22 1.55 3.85 5.21 4.16 7.32.61 10.38 3.41 11.48 7.84.48 1.95.17 4.31 3.06 5.82 6.89-1.45 11.43-5.03 17.05-7.58 11.12-5.06 22.55-9.79 34.09-14.41 3.9-.87 6.86-2.15 9.04-4.68 3.85-4.45 29.03-9.15 36.53-7.23 3.04.78 5 2.25 6.48 4.05 1.74 2.13 3.2 4.23 7.53 5.06 3.37.64 2.75 2.76 2.34 4.66-.57 2.57-2.65 5.27.55 7.72 5.59-1.45 9.68-4.34 14.85-6.14 1.87-.66 3.61-1.46 5.43-2.18 2.61-1.01 5.55-1.66 7.72.08 2.03 1.6.31 3.23-1.6 4.42-5.69 3.47-10.23 7.57-15.78 11.1-4.21 2.68-7.99 5.62-11.26 8.77-4.83 4.63-11.45 8.44-16.02 13.75 9.01.49 16.88-1.29 24.94-2.13 3.06-.32 6.12-.56 9.16-.87 2.75-.27 5.28-.2 7.03 1.39 1.67 1.54.21 2.83-.93 4.19-3.2 3.76-8.7 6.27-12.79 9.58-2.77 2.3-4.16 5.68-9.71 6.24z"/><path class="fil5" d="M0 513.95c19.37 18.04 38.75 36.09 57.33 53.4H0v-53.4z"/><path class="fil8" d="M24.98 364.09c-7.2.96-14.03 2.18-14.15 8.13-4.35-3.69-8.03-7.58-10.83-12.05v-5.15c7.62 2.85 13.71 6.31 22.19 6.34.96.91 1.86 1.81 2.8 2.73z"/><path class="fil9" d="M820.65 357.75c.82 0-19.63 7.69-19.63 7.69-.36.34-.69 1.1-.45 1.22 14.13 7.74-2.77 10.08-6.31 14.73-.5.67-1.41 1.2-2.13 1.8-1.12 2.86-3.61 5.16-7.08 7.07-2.46 1.36-3.85 3.02-2.89 5.18-4.71 5.74-42.53 40.11-50.13 43.85-1.65.81-3.68.46-4.61-1.01-1.67-7.08-11.28-11.3-15.54-17.44-.96-6.78 33.28-43.96 36.74-49.99 2.94-5.12 4.23-10.58 8.27-15.44.81-.99.12-1.74-.84-2.47-2.22-1.54-2.15-3.59-3.16-5.85-9.66 3.47-17.38 8.36-26.35 12.08-4.21 2.45-8.89 4.51-13.49 6.66-2.46 1.14-5.26 1.72-7.87.4-2.39-1.22-2.15-3.05-1.03-4.6 3.99-5.57 6.74-11.5 10.38-15.84-7.89 5.41-18.82 10.58-27.78 17.01-4.61 1.58-7.6 4.33-11.55 6.38-2.58 1.36-5.02 2.76-8.73 1.71-9.73-9.5-21.85-18.41-15.9-31.28 1.98-4.29 1.79-8.97 2.82-13.42 1.55-6.82 4.57-13.49 11.21-19.17 1.43-1.22 2.65-2.48 3.39-3.94 5.24-4.61 14.25-4.99 21.4-7.46 3.16-1.08 4.69.99 3.54 2.91-.91 1.52-3.06 2.65-4.14 3.52 6.58-4.81 12.67-10.77 23.5-13.39 3.63.94 3.35 2.6 2.01 4.48-1.77 2.48-4.18 4.74-5.71 7.29 3.25-5.59 9.54-10.19 12.7-15.82 2.25-1.74 5.38-2.22 8.68-2.5 5.98 1.37 10.13 3.86 14.51 7.12 1.24.93 5.03.51 5.17 1.69.69 5.82 6.62 8.38 14.3 10.39 3.01.79 4.85.91 6.77-.58 8.97-7.01 6.13-8.8 14.64-16.03-.16-.09 32.29 14.27 32.58 14.88 2.77 1.51 5.81 8.69 7.15 11.44.77 2.53-2.1 3.85-4.4 5.35-12.43 8.13-25.44 15.87-36.13 22.16 16.88-9.59 34.69-21.58 53.75-32.71 2.25-1.31 4.76-3.12 8.63-2.62 5.88 2.1 3.63 5.19 1.89 7.89-3.68 5.69-7.44 11.39-13.34 17.56 16.07-4.6 31.25-8.28 46.55-11.8 3.25-.87 6.65-1.49 10.04-2.07 2.85-.49 5.86-.75 7.53 1.19 1.48 1.72-.41 3.08-2.06 4.4-3.28 2.65-8.08 4.08-11.93 6.24-8.94 5.8-18.74 10.95-29.46 15.4-7.51 3.12-14.11 7.04-21.3 10.45-2.68 1.23-4.81 2.85-7.27 4.22-2.08 1.16-4.11 2.16-6.96 1.11z"/><path class="fil10" d="M1104.34 349.53c-4.94 12.63 14.53 20.19 9 31.56 1.21.67 91.49 88.58 175.46 170.57v15.69H874.2c-34.29-27-60.7-48.09-61.3-49.49 37.44-23.85-32.77-32.06-30.2-41.59 1.48-3.27 134.95-96.5 140.93-95.84 1.79.2 65.21-20.44 65.5-21.75 1.55-7.1 10.31-7.04 18.34-7.22 3.18-.08 5.45.23 6-2.38.33-1.55 2.37-2.95 4.78-3.03 6.05-.18 9.37-2.7 12.41-5.41 5.62-5.01 14.73-8.07 18.84-13.92 3.37-1.77 6.74-1.58 10.54-.38 12.12 3.81 37.3 7.43 35.34 15.78-.38 1.67 9.27 5.76 8.96 7.4z"/><path class="fil6" d="M1074.99 349.53c-3.04-5.5 1.15-12.35-7.34-16.8-4.83-2.53-8.61-7.25-16.95-4.16-5.98 3.52-12.77 6.18-20.11 8.42-16.88 5.16-33.33 10.87-50.26 15.94-3.16.94-16.1 4.94-19.48 2.86-1.39-2.44-7.41-4.11-8.8-6.55 4.45-1.39 23.09-7 27.75-7.38 17.21-1.46 29.91-7.51 40.6-15.5 5.74-4.28 12.34-6.79 20.71-8.57 9.54-2.03 16.57-7.74 29.17-5.13 5.86 1.22 13.32-2.27 17.93-6.18 7.39-6.29 14.54-12.72 23.93-17.92 6 5.51-5.16 18.85-17.36 20.73-2.68.41-6.57-.01-7.27 2.1-.84 2.53 3.47 2.42 5.83 3.08 5.95 1.66 4.81 5.03 4.4 7.86-1.17 8.03-1.27 16.36-11.26 22.65-1.1-3.02-2.2-6.02-3.85-10.46-3.01 5.94-5.33 10.49-7.65 15.03z"/><path d="M623.57 407.76c-1.91.91-3.8 1.81-5.71 2.73-4.42-.17-3.78-2.18-3.08-3.84 1.15-2.76 3.87-4.64 8.39-5.5 6.43-1.2 8.94-5.03 12.6-8.04 1.03-.85-.26-1.69-.53-2.54.57-4.1 6.69-5.62 9.87-8.53 4.47-4.1 10.47-7.36 16.83-10.32 1.82-.85 3.61-1.4 5.88-1.23 5.71-3.05 11.43-6.08 17.14-9.12 3.73.99 3.11 3.21 3.3 5.09.26 2.53 1.98 3.47 6 3.08 8.66-.87 17.36.85 26.18-.69 6.03-1.04 10.47 2.74 9.52 6.84-.36 1.49-1.58 2.88-1.41 4.43.19 5.18-5.21 8.79-8.87 12.9-1.12 1.26-3.63 2.01-3.47 3.75.07.29.14.59.19.88 1.15 1.04.79 2.04-.29 2.94-7.63 6.32-11.19 13.92-16.55 20.97-1.2 1.57-2.46 2.98-5.79 2.65-5-6.78-10.11-13.51-14.85-20.36-.91-1.31-3.87-3.61 1.53-4.31 5.26-1.16 7.01 1.49 9.66 4.1 5.71-4.96 8.1-10.72 13.65-15.82-4.9 1.51-8.49 3.58-12.74 4.96-7.6 2.47-13.01.23-12.58-5.21.07-1.05-.07-2.12.36-3.15 1.17-2.76-2.15-1.77-4.04-1.99-5.74 2.62-.62 7.02-4.04 10.02-4.16-1.17-7.6-1.1-11.4 1.1-10.52 6.05-22.79 10.54-35.77 14.24z" style="fill:#174266;fill-rule:nonzero"/><path class="fil12" d="M795.59 362.9c4.83-1.71 32.19-10.62 37.95-11.56 8.22.38 16.21.88 22.79 4.81 7.01 4.19 14.42 3.17 21.8-.09 4.33-1.92 9.2-4.29 13.94-.17l-17.26 14.47c-9.28 4.68-20.78 18.61-31.87 21.49-2.87.75-124.76 55.12-127.96 54.18-7.2-5.09 90.16-67.27 85.43-73.33.52 0-4.81-10.15-4.81-9.8z"/><path d="M726.52 380.65c2.03-9.99 2.08-9.7-13.63-8.68-8.3.53-16.86-1.71-25.06 1.31-2.2.81-2.75-1.17-2.77-2.38-.1-3.18-.05-6.37-.05-9.55 11.43-7.61 22.83-15.21 34.26-22.83.86.44 1.72.88 2.61 1.32-5.36 8.36-10.71 16.72-17.36 27.11 8.73-3.94 14.61-6.61 20.51-9.27 4.78.37 9.47 1 14.42.09 3.28-.61 6.5.26 8.2 2.5.41 4.49-4.28 7.45-8.1 10.61-1 .84-2.85 1.04-4.52.41-.45-1.67.69-3.61-1.98-5.09-4.28 3.67 1.36 7.96-2.01 11.59-2.37.43-.88 3.27-4.52 2.85z" style="fill:#143b60;fill-rule:nonzero"/><path class="fil6" d="M902.1 387.71c-.98-.35-1.96-.7-2.92-1.07 16.14-12.27 20.63-29.64 42.46-39.44 2.65-1.2 4.97-2.71 7.44-4.07 9.04 3.73-.69 5.57-2.27 8.09-1.51 2.38-8.18 4.46-5.74 6.53 3.01 2.56 8.08-.66 12.15-1.45 3.59-.7 6.86-2.03 10.26-3.08-.5 2.39-1.03 4.78-1.53 7.19-3.01 5.3-9.42 8.53-16.64 11.35-12.15 4.72-24.22 9.56-35.89 14.77-2.27 1.01-4.57 1.51-7.32 1.17z"/><path class="fil3" d="M959.99 354.38c22.62-7.04 55.8-15.28 78.42-22.29 4.04-1.25 8.2-2.36 12.31-3.53-7.82 6.05-15.64 12.09-23.46 18.12-1.53 1.17-3.51 1.34-5.81 1.14-4.54-.37-6.26.85-4.73 3.7.77 1.45.43 2.68-1.7 3.58-2.06.85-3.35-.06-5.05-.69-7.84-2.92-16.33.06-16.59 5.83-.12 2.59-2.61 3.41-5.59 2.56-5.38-1.51-38.05 3.6-41.66 5.76-1.53-3.88 15.36-10.28 13.85-14.19z"/><path d="M623.57 407.76c13.01-6.27 25.8-12.73 39.12-18.73 5.12-2.3 7.77-.06 8.13 3.38-2.8 8.06-1.43 17.19-14.37 22.63-6.5-10.49-7.17-10.64-32.88-7.28z" style="fill:#19476b;fill-rule:nonzero"/><path class="fil5" d="M779.02 479.65c6.95-4.21 62.68-73.51 107.24-103.88 23.17-15.79 47.4-1.88 51.52-3.61 8.51-3.59 30.26-10.97 41.46-9.67-.91 2.62 5.65 4.04 5.74 6.63.07 1.84-4.08 4.03 5.7 5.67 1.1.18-33.27 3.72-35.64 5.69-1.39-3.94-4.59-4.25-9.8-2.39-10.33 3.7-20.68 7.39-31.42 10.55-3.39 1-131.72 95.22-134.8 91.02zM1150.57 378.59c-5.87 5.96-11.71 11.93-17.58 17.9-17.82 12.03-35.63 24.09-53.45 36.12a6948.7 6948.7 0 0 1-15.24-14.74c25.95-12.66 51.9-25.38 77.93-37.99 2.3-1.11 4.76-2.91 8.33-1.29z"/><path class="fil2" d="M836.28 383.21c13.03-4.08 24.75-9.75 38.56-12.85-12.41 10.05-101.86 77.61-114.27 87.66-66.43-37.77 23.31-58.42 63.97-74.1 7.03 3.02 12.05 5.16 17.09 7.31l1.29-.87c-2.2-2.38-4.42-4.75-6.65-7.14z"/><path d="M674.83 382.41c2.89-2.27 5.47-4.77 11.12-6.2-1.94 3.9-3.78 7.11-5.05 10.42-.5 1.33-3.06 3 .84 4.28 3.04.99 5.43 1.19 8.44-.15 6.03-2.66 12.34-5.06 20.54-8.38-6.6 9.44-12.34 17.64-20.13 25.17-.62.61-2.37.75-3.61 1.1-.24-.82-.79-1.66-.65-2.45.6-3.17-1.86-5.16-5.83-6.67-1.87-5.71-3.75-11.42-5.67-17.12z" style="fill:#1d4e6e;fill-rule:nonzero"/><path d="M702.88 408.04c3.75-3.64 39.61-44 43.36-47.64.07-4.36 4.47-7.36 11.69-7.98 1.03.29 4.14-2.47 2.96.21-5.52 12.5-43.77 61.62-52.14 73.49-3.59-5.82-5.38-11.88-5.88-18.09z" style="fill:#2e6d80;fill-rule:nonzero"/><path class="fil3" d="M1019.79 408.8c2.58 7.98-2.48 14.34-10.54 20.06-7.12-9.07-14.31-18.12-21.3-27.24-1.15-1.49-2.65-3.69.42-4.74 1.5-.51 4.68.31 6.53 1.07 8.41 3.51 16.62 7.2 24.89 10.85z"/><path class="fil5" d="M919.9 417.35c10.21-3.26 99.83-29.75 110.04-33.01.33.33.69.67 1.03 1-8.66 4.43-93.68 41.72-102.33 46.15-1.89-1.51-6.83-12.64-8.74-14.15z"/><path d="M726.52 380.65c2.03-.61.93-3.2 4.47-2.83 1.15 8.22-6.77 13.58-14.73 18.93 3.42-5.36 6.84-10.74 10.26-16.1z" style="fill:#356c85;fill-rule:nonzero"/><path class="fil6" d="M970.58 309.25c6.19-3.62 12.41-7.25 18.6-10.87 3.11.35 6.17-.06 9.2-.32 4.28-.38 7.05-2.06 7.1-4.84.02-2.06.98-3.84 2.25-5.62l.05.02c2.85.44 4.47 1.4 3.73 3.44-1.17 3.23 1.48 1.8 3.49 1.14 4.02 2.73-1.67 5.47 0 8.19-8.89 8.59-24.2 10.89-37.54 14.74-7.72 2.24-3.78-4.19-6.89-5.88z"/><path class="fil3" d="M1015 300.38c-7.7-2.73-.81-5.47 0-8.19 4.04-1.81 8.03-3.67 12.15-5.44 1.46-.62 3.18-1.89 4.85-.62.55.41-.36 2.03-1.29 2.73-5.14 3.9-10.45 7.71-15.71 11.53z"/><path class="fil18" d="m0 137.76 1.27-.82c2.7-1.87 6.14-2.13 8.63.56 1.1 3.2 2.94 6.47-2.18 9.06L0 153.2v-15.44z"/><path class="fil1" d="M998.35 190.67c24.21-1.51 32.98 28.04 47.44 26.57 18.03-1.83 23.1 7.25 32.21 13.14-36.15 23.06-74.26 44.8-112.16 66.69-23.53 13.58-39.21 31.07-59.22 46.37-2.77.2-4.18-1.05-5.79-2.16-3.49-2.44-7.03-4.9-11.07-6.94-4.45-2.24-6.91-4.81-6.26-8.47 4.88-2.97 9.75-5.94 16.76-10.19-7.94 1.29-13.01 2.12-18.1 2.95-5.36-.66-9.42-2.74-13.08-5.07-4.18-2.65-8.18-5.38-13.08-7.54-3.85-1.71-5.12-4.2-4.54-7.13 1.75-2.62 5.4-4.17 8.58-5.88 14.49-7.78 27.4-16.61 41.36-24.75a670.21 670.21 0 0 1 20.32-11.33c5.69-3.03 10.93-6.3 12.93-11.1.77-1.83 2.39-3.26 4.81-4.37 1.96-1.17 3.25-2.51 3.4-4.29.43-5.83 3.66-11.48 2.94-17.42-.21-1.87 1.22-3.08 4.28-3.53 3.69-.55 30.1-24.04 48.26-25.55z"/><path class="fil5" d="M883.5 325.86c5.88 6.84 17.53 10.58 23.12 17.56-4.83 4.16-9.68 8.3-14.51 12.46-4.73-.66-8.77.14-12.53 2.07-8.27 4.26-17.72 5.04-24.82-.06-6.1-4.39-16.4-1.61-21.23-6.56 6.55-5.13 15.37-8.5 23.5-12.43 8.89-4.26 17.64-8.66 26.47-13.04z"/><path class="fil1" d="M1007.73 287.59c1.29 4.23 3.75 8.83-3.92 11.6-4.73 1.69-10.18 2.48-14.63-.81 6.19-3.61 12.36-7.2 18.55-10.8z"/><path class="fil7" d="M146.47 338.56c5.81-5.3 10.83-11 18.91-15.18 1.53-.79 1.74-2.63 2.56-4.01-2.03.01-4.11-.14-6.12.08-11 1.14-21.95 2.45-32.95 3.53-2.13.21-5.31.9-6.31-.81-.45-.79 1.51-2.33 2.75-3.33 15.04-12.2 29.41-24.73 46.12-36.32-8.34 3.23-16.71 6.44-25.06 9.67-3.75-1.86-1.75-4.19-1-6.26 3.16-8.88 2.2-18.05 4.61-26.97.24-.88.21-2.04-1.15-2.47-2.34-.75-2.49.88-3.47 1.6-5.45 4.13-20.42 4.32-27.69 1.36-2.25-.91-2.56-2.41-1.89-4.05 1.17-2.95-1.48-2.67-4.3-1.9-3.49.94-6.62 2.36-9.87 3.59-4.83 1.83-9.54 2.15-13.82-.26-3.97-2.24-2.37-4.77-.31-7.4 1.98-2.57 1.65-5.1-1.77-7.49-5.09-3.55-4.97-5.7.05-9.41 1.79-1.34 2.73-2.41.77-3.9-1.31-2.6 1.24-4.19 3.78-5.79 2.82-1.78 5.52-3.62 8.61-5.24 7.65-4.02 13.46-9.18 20.68-13.48 2.03-1.2 3.68-2.77 6.69-3.17 8.03 1.02 12.41 5.35 17.95 8.45 24.88 13.88 49.9 27.65 74.43 41.79 7.89 4.54 15.8 9.08 23.79 13.54 3.13 1.75 6.86 3.35 7.39 6.38.72 2.21-1.08 3.76-3.3 5.24-3.13 2.09-6.26 4.16-9.54 6.15-21.47 13.11-40.79 27.56-62.4 40.57-2.61 1.57-4.04 3.72-5.67 5.74-2.97 3.46-8.97 4.92-12.72 7.86-2.97 1.16-6 2.25-9.75 1.89z"/><path class="fil8" d="M156.24 336.64c1.43-3.87 7.13-5.79 10.09-8.95 6.1-1.51 9.28-5.18 13.53-7.92 8.18-5.27 16.86-10.2 25.03-15.46 28.62-18.37 57.38-36.63 86.17-54.88 2.8-1.77 5.21-4.05 9.9-3.99 2.49.58 4.97.88 7.65.47 2.15-.32 5.02-.37 6 .76 3.2 3.67 8.89 3.79 14.15 4.71 2.7.47 4.4 1.84 4.71 3.64.41 2.22 1.39 2.97 4.92 1.61 9.11-3.52 18.53-6.66 28.24-9.47 13.75-5.16 26.66-11.33 42.32-14.16 5.19 1.71 3.16 3.82.74 5.91-9.59 8.27-19.89 16.19-29.67 24.35-.98.82-2.08 1.57-2.77 2.68 8.68-3.03 17.67-5.44 26.06-8.6 2.99-1.14 6.67-1.9 8.89.37 2.01 2.04-.72 3.7-3.13 4.98-10.38 5.5-20.73 11.01-31.27 16.37-1.12 1.84-.67 3.84-1.48 5.69-1.77 4.05-5.76 5.71-11.36 4.77-16.07 5.16-28.88 13.22-43.18 19.95-10.11 4.75-19.18 10.13-32.9 10.75-11.14.5-19.22 6.27-32.87 10.11 10.45-9.91 18.86-17.89 27.26-25.89-.45-.33-.91-.65-1.36-.99-15.92 7.28-31.82 14.56-47.84 21.88-.6-.7-1.05-.96-.96-1.14 1.27-2.92 6.43-4.98 4.66-8.59-4.16 1.37-8.44 2.6-12.48 4.13-5.52 2.09-10.88 4.34-16.28 6.58-3.3 1.37-6.6 1.83-9.85.11-4.83-2.54-9.4-1.89-14.37-.01-9.4 3.53-19.01 6.84-28.55 10.25z"/><path class="fil3" d="M364.97 289.48c10.21-1.45 6.62-8.28 11.4-11.85 2.85-1.25 5.07-.41 6.6 1.1 4.23 4.13 10.5 6.52 17.36 8.24 8.56 2.15 10.76 7.66 16.09 11.53.57 2.35-1.36 4.1-3.59 5.68-10.33 7.32-18.96 15.49-27.88 23.47-6.17 5.51-14.08 10.05-20.39 15.46-1.72.33-3.63-.05-5.26.93-3.63 2.18-7.46 1.9-10.21-.61-2.75-2.5-1.41-4.93 2.2-6.67 2.63-1.26 4.66-2.95 7.41-4.1 1.05-.44 1.44-1.17.45-1.9-4.04-1.83-8.32-.82-12.31-.23-5.24.78-10.38.64-15.42-.17-3.99-.64-7.79-1.81-6.34-5.3 9.16-6.27 18.34-12.55 27.5-18.84-.31-.27-.62-.55-.93-.82-9.11 3.4-18.24 6.79-30.15 11.22 14.15-11.28 30-18.46 43.47-27.14z"/><path class="fil19" d="M364.97 327.69c2.53 6.03-6.15 7.34-10.85 10.19-2.34 1.42-5.31 2.45-2.85 4.68 2.65 2.41 5.24 1.02 7.41-.58 2.06-1.49 3.56-1.01 4.95.43 2.18 1.36 1.29 2.74-.05 4.07-10.54 10.31-22.04 20.21-33.62 30.05-1 .85-2.49 1.37-4.16 1.58-3.59 0-7.05.43-10.5 1.04-4.66.84-8.46.29-10.35-2.94-.31-4.69 6.91-5.48 10.4-8.19.17-.06.38-.12.6-.18l.65-.18c-5.98-.35-6.15-3.24-4.35-5.45 3.08-3.81 4.45-7.52 2.87-11.67 12.74-6.09 25.51-12.18 38.25-18.27 2.25-3.21 6.46-4.37 11.6-4.55z"/><path class="fil19" d="M315.09 350.5c6.57 3.11 8.99 6.24 1.36 10.33-1.65.88-2.56 4.22-1.48 4.87 2.94 1.8 6.05-1.29 11.02-.78-3.85 1.49-6.69 2.6-9.54 3.72-7.08 1.75-12.27 5.57-19.46 7.22-2.61.59-5.09 1.84-7.72.08-.96-.3-1.91-.62-2.89-.93-7.27-6.2-13.87 1.74-20.97.32 9.3-14.13 32.92-16.71 49.68-24.82zM364.97 327.69c-3.87 1.51-7.75 3.02-11.62 4.52-3.06-1.45-5.47.05-7.87.82-19.96 6.44-39.78 13.05-59.82 19.37-7.99 2.51-12.82 7.07-19.63 10.37 16.52-14.57 40.12-24.72 59.05-37.75 10.4 6.93 22.93 2.86 34.67 2.62 1.77-.05 3.47-.93 5.21.05z"/><path class="fil18" d="M5.59 135.46c5.6-.03 97.86 49.99 115.1 60.91 1.84 1.17 4.04 2.06 4.18 3.93-3.8 4.75-11.64 7.14-16.45 11.36-2.58 2.25-6.1 4.1-9.4 6-9.49 5.06-17.24 11.22-26.23 16.61-2.75 1.66-5.33 3.44-8.54 4.8-2.51 1.63-5.02 3.26-9.09 1.96-3.61-1.45-4.47-3.84-4.92-6.26-.86-4.45-4.5-7.61-10.69-9.55-4.49-1.42-7.41-3.55-9.61-6.41-2.18-2.83-4.76-5.79-8.89-7.58-10.66-4.61-11.86-11.79-12.34-18.79-1.17-17.45-3.14-39.89-3.14-56.98z"/><path class="fil8" d="M7.84 154.8c3.2 9.24 1.1 18.61 1.29 27.91.21 10.75 2.53 20.29 16.31 28.31 8.18 4.77 12.96 11.76 23.07 15.88 7.24 2.95 3.99 9.38 7.99 13.66 1.7 2.35-.98 3.69-3.06 5.07-6.1 4.04-12.24 8.04-18.67 11.85C20.75 265.75 9.8 275.51.01 285.86v-34.48c2.23-2.54 4.48-5.07 6.79-7.58 3.59-3.88 11.81-1.45 17.79-5.41C3.53 241.1 7.93 232.3 7.9 225.6c-.1-23.62-.05-47.22-.05-70.81z"/><path class="fil8" d="M0 228.55c.55.06 1.03.17 1.29.34 2.94 1.86 1.59 9.23-1.29 13.61v-13.94z"/><path class="fil6" d="m325.04 376.91 38.59-34.51c14.82-12.69 29.65-25.37 44.49-38.06 2.25-1.93 4.64-3.79 6.96-5.68.43-3.79 4.69-6.23 8.27-8.7 15.42-10.63 30.29-21.56 45.12-32.51 4.71-3.78 8.7-8.03 16.21-9.96 10.57 1.71 12.36 4.19 6.48 9.84-8.54 8.19-18.27 15.84-27.71 23.62 2.58-1.89 6.07-3.05 9.44-4.29 2.61-.97 5.57-1.69 7.84-.06 2.8 2.01-.36 3.2-2.37 4.43-.53.3-.93.69-1.39 1.05-5.5 2.67-11.64 4.69-17.5 6.98-13.53 5.3-22.14 13.61-32.35 20.92-5.4 3.87-11.74 7.05-16.11 10.19 3.68-2.07 7.96-5.12 12.96-7.68 4.81-2.48 9.66-4.84 15.78-6.03 6.84-1.32 11.07-5.13 16.62-7.69 3.06-1.42 6.1-2.88 9.06-4.42 1.51-.79 3.51-1.2 5.28-.37 2.06.99 1.67 2.38.79 3.7-.55.84-1.22 1.63-2.06 2.39-10.16 9.32-18.98 19.22-30.32 28.02-.45.35-.69.79-1.05 1.19-5.57 6.38-13.96 11.85-14.75 19.77-.41 4.14-3.73 7.63-7.46 11.1-9.4 8.76-19.1 17.38-28.55 26.12-3.63 3.37-7.01 6.88-14.59 7.17-3.04.11-4.06 2.45-6.86 3.08 10.54-2.82 18.7-7.89 28.16-11.74 24.29-10.22 47.91-21.08 72.37-31.13 9.95-4.08 19.84-8.24 31.7-9.88.74 0 1.46.09 2.18.24 5.43 1.87 3.42 5.95 6.26 8.6 1.34 1.92.02 3.46-1.6 5.04-5.55 5.45-11.6 10.71-16.38 16.48-2.18 2.62-5.24 4.57-10.42 4.86-5.52.3-4.21 4.25-7.34 5.86 15.18-8.45 31.97-15.59 47.24-23.97 4.9-1.83 8.46-4.71 13.05-6.78 2.54-1.14 4.78-2.44 8.15-2.28 4.09.61 9.13.24 10.21 3.99.48 2.25-1.79 3.65-3.97 5.04-17.66 11.26-179.83 143.73-258.93 206.49H71.31c-18.93-11.43-46.15-27-44.55-28.45 7.44-6.78 279.85-148.54 287.23-155.34 2.79-2.74 5.86-5.44 11.02-6.66z"/><path class="fil19" d="M325.04 376.91c-11.57 10.46-21.95 21.59-35.19 31.1-6.41 4.6-218.18 107.46-225.57 112.2-4.28 2.27-7.41 1.9-9.83-1.1-1.15-1.43-.26-3.43-3.08-4.39-5.74-3.67-11.45-7.32-17.19-11-3.73-3.78 1.72-4.03 5.97-5.59 15.06-5.45 229.62-112.93 245.09-117.93 4.23-1.37 8.15-3.12 12.5-4.37 2.75-.78 5.64-1.95 8.42.05 5.81 4.2 12.94-1.83 18.89 1.02z"/><path class="fil8" d="M306.18 375.9c-22 7.36-236.85 112.54-258.8 119.96-3.11 1.05-4.57 2.98-5.28 5.13-1.53 1.82-18.91 9.43-16.84-.51 3.23-16.13 224.1-109.53 241.17-116.31 7.44-2.95 15.25-5.5 22.88-8.24 9.54-1.72 16.26-7.69 27.18-7.29-3.44 2.42-6.89 4.84-10.31 7.26z"/><path class="fil5" d="M240.65 410.43c7.71-2.19 8.15 1.94 9.85 4.72 2.48 4.08 5.27 7.55 13.69 5.25 4.31 9.58 15.08 17.71 15.56 28.18-1.53-.94-3.36-1.78-4.49-2.86-2.35-2.17-4.31-4.5-6.45-6.77-2.57 2.3-5.19 4.61-9.33 8.33-5.23-13.08-26.24-21.6-18.83-36.84z"/><path class="fil8" d="M87.67 228.52c1.67-.24 3.08-2.04 4.85-.72.62.47.02 2.19-.91 2.82-5.79 3.84-9.87 7.13-.64 11.74 3.04 1.52 2.01 5.73-.65 8.53-1.34 1.42-3.63 2.88-.96 4.39 2.39 1.36 5.5 1.81 8.63.69 5.16-1.86 10.31-3.76 15.49-5.62 1.58-.56 3.39-1.75 5.02-.44 1.41 1.13 2.99 2.65 2.89 3.94-.26 3.67 4.92 6.52 11.07 5.42 4.52-.81 10.5-.18 11.55-4.87.31-1.4 3.51-2.51 6.5-1.84 3.13.7 3.25 2.59 2.92 4.2-2.3 11.82-1.41 23.89-7.05 35.44-1.58 1.81-3.13 4.66-6.79 3.66-3.44-.94.48-3.08.79-4.72.69-3.7-.72-7.58 2.7-11.31-2.73 0-4.78 2.13-7.32-.27-11.6-11-11.91-10.61-32.95-5.77-7.96 1.84-10.16 8.21-19.27 8.41-4.85-.32-7.08 2.6-10.88 3.66-2.53.7-5 1.72-7.13.32-3.42-2.25-5.69-.72-9.16.06-10.47 2.33-15.9 6.97-18.67 13.49-1.08 2.53-5.48 3.73-7.03 6.15-2.18.75-4.47 1.75-4.42-1.13.12-6.35 1.82-12.72-13.25-14.03-6.69-.58-4.92-5.79-3.75-9.38-1.91-1.83-.14-3.14 1.65-4.37 10.26-7.1 19.46-14.82 30.6-21.38 8.7-5.13 15.23-11.57 24.7-16.19 4.26-3.58 9.37-6.59 14.63-9.55 1.96-1.11 3.92-2.21 6.81-1.31z"/><path class="fil6" d="m67.92 240.32-58.62 41c-3.11 2.14-6.2 4.29-9.3 6.43v-5.2c7.89-10.54 20.46-18.95 33.52-27.14 7.77-4.87 15.33-9.88 22.98-14.83 2.34-1.07 4.69-2.12 7.03-3.18 2.8.15 4.21 1.17 4.4 2.94z"/><path class="fil20" d="M30.7 305.85c5.55-7.64 5.02-17.68 22.09-20.67 4.95-.87 8.89-4.05 14.35-6.69-.79 3.82-4.64 9.06 6.03 5.95 4.54-1.33 8.34-3.67 14.73-6.58-2.46 2.44-3.42 3.37-4.35 4.29-17.6 7.9-35.22 15.79-52.84 23.68z"/><path d="M667.85 370.48c-10.47 6.67-20.97 13.33-31.44 20-1.89 3.4-9.95 7.07-15.09 6.85-4.42-.18-6.5-2.27-5.33-5.6 1.27-3.67 3.66-7.13 5.74-10.75-2.46-.21-3.75.75-4.45 1.49-5.43 5.85-16.35 5.65-24.03 8.98-1.36.59-3.2.46-4.83 0-10.52-2.85-10.07-2.77-6.65-10.36 2.44-5.45 2.85-11.27 5.83-16.68 1.34-2.41 2.49-4.84 4.64-7.05 1.82-1.86 2.25-3.93.41-5.99-.93-2.59 1.24-4.74 2.77-6.87 5.31-7.4 11.19-14.63 16.9-21.93 3.06-3.91 7.39-6.79 13.79-8.68 12.24-3.59 24.75-6.85 36.87-10.61 2.46-.76 5.16-1.83 7.75-.02-14.23 13.17-14.46 28.75-18.39 43.68-1.08 4.1 1.84 7.75 5.38 11.06 4.21 3.9 7.65 8.02 10.11 12.47z" style="fill:#11345c;fill-rule:nonzero"/><path class="fil6" d="M670.74 303.28c-4.28 1.31-8.34 3.2-12.86 3.85-37.32 5.36-51.48 24.02-63.1 44.16.41 4.68-4.23 8.27-7.13 12.11-5.61 7.41-135.01 117.28-236.93 203.95H305.4c102.73-84.52 236.13-194.44 242.23-199.26 9.23-7.28 19.01-14.27 27.9-21.73 6.12-4.32 10.71-9.37 16.23-13.96 2.8-2.35 4.92-5.18 10.16-5.77 13.49-17.74 42.65-20.06 66.68-27.28 14.08-4.23 29.03-7.34 43.56-10.95.41.33.41.67-.05.99-10.26 6.2-20.51 12.41-30.77 18.61-.5-.27-1-.55-1.51-.82 3.9-3.32 7.82-6.65 12.98-11.06-8.73 2.85-15.4 5-22.09 7.16z"/><path class="fil18" d="M940.64 243.9c-17.36 20.65-51.07 30.91-74.6 47.64-3.92 2.8-8.39 5.28-12.62 7.9-1.27 2.32-2.8 4.46-7.48 4.46-24.08 13.77-45.86 29.15-73.5 40.51 18.19-11.7 41.45-29.76 58.89-39.55 7.22-4.05 13.89-8.51 21.73-12.11 21.94-10.24 59.22-42.91 73.27-59.45 2.78-3.31 15.35-14.29 21.36-16.69 2.46 1.51-1.05 10.29-1.82 12.03-2.18 5.01-2.85 10.26-5.24 15.26z"/><path class="fil5" d="M845.97 303.9c2.49-1.49 5-2.97 7.48-4.46 3.83 6.78 14.85 9.23 21.49 14.35 2.13 1.65 5.38 2.85 7.2 4.83-17.88 4.72-35.77 9.43-55.35 14.59 8.13-7.61 13.68-14.74 18.27-22.16 1.41-2.24 4.4-4.57.91-7.14z"/><path d="M757.93 352.42c-3.9 2.67-7.79 5.32-11.69 7.98-2.65-.82-5.57-1.26-8.18-.32-5.79 2.07-9.8.84-13.08-2.38 8.97-4.42 17.88-8.85 26.92-13.2 1.75-.84 3.44-2.68 5.98-1.49 2.1.97.36 2.54-.29 3.75-1.05 1.95-1.2 3.81.34 5.66z" style="fill:#10355a;fill-rule:nonzero"/><path d="M712.1 289.42c.02-.33.05-.66.05-.99 3.32-.88 6.65-1.78 9.95-2.66 3.59 1.83-.29 2.88-1.31 3.94-4.59 4.75-9.52 9.35-15.28 14.92.91-6.05 7.46-10.01 6.6-15.21z" style="fill:#17516f;fill-rule:nonzero"/><path class="fil3" d="M403.63 512.32c4.26-3.94 8.49-7.9 12.74-11.85 10.38-.37 118.11-103.12 126.11-106.96 1.91-.91 44.69-2.98 46.79-3.01 13.56-3.69 25.51-9.06 39.5-16.32-3.73 6.94-6.41 11.7-8.82 16.51-.74 1.46-3.13 3.3-.53 4.55 2.37 1.14 4.88-.49 7.1-1.2 3.37-1.08 6.6-2.36 9.87-3.56 3.83.27 5.57 1.89 2.96 3.59-5.04 3.3-7.55 8.22-16.16 9.44-4.83.69-7.36 3.47-5.36 6.99-2.27 1.78-5 3.11-9.49 3.85 4.76-6.35-2.03-7.22-8.39-7.29-7.36-.11-157.18 99.64-157.75 107.96-2.13 5.18-8.51 7.04-15.73 8.25-6.5-4.63-20.85-2.56-22.86-10.95z"/><path class="fil10" d="M343.59 567.35c2.53-2.07 5.09-4.13 7.66-6.2 85.83-68.93 193.24-137.83 196.03-139.21 2.3-.64 39.39-10.07 41.69-10.71-.14.85 110.99 81.62 213.37 156.12H343.58z"/><path class="fil4" d="M947.7 216.61c5.68-3.04 20.04-12.91 23.99-14.68-18.08 14.25-24.76 18.71-24.9 27.18-.07 4.83.45 10.66-6.14 14.79-2.82-5.22 2.61-9.69 3.39-14.59.62-3.9-1.53-10.98 3.66-12.7z"/><path class="fil10" d="M577.88 347.78c-13.96 10.85-160.12 131.85-266.32 219.58H207.11c113.65-74.35 325.69-202.04 340.34-211.58.29-3.41 4.73-4.99 7.87-7.14 4.49-3.06 10.16-5.3 14.66-8.38 1.89-1.29 4.11-2 6.91-1.1 4.4 2.68 3.11 5.64 1 8.62z"/><path class="fil6" d="M248.03 271.19c6.34-1.52 9.4-5.28 13.82-8.13 15.64-10.07 31.44-20.03 47.2-30.03 6.17-1.81 6.38-1.72 7.89 3.06-3.8 4.58-7.51 9.23-16.47 10.55-28.83 18.27-57.52 36.66-86.57 54.81-13.75 8.59-28.09 16.77-42.25 25.1-1.41.84-2.7 2.39-5.33 1.14 23.5-18.21 49.85-34.74 75.72-51.55 2.3-1.48 4.04-3.29 6-4.95z"/><path class="fil20" d="M67.92 240.32c-2.51-.35-3.54-1.6-4.42-2.95 11.17-7.13 21.28-14.94 34.31-20.82 1.79.14 2.82.75 2.92 1.93-5.13 5.3-25.1 17.23-32.8 21.84z"/><path class="fil24" d="M100.73 218.5c-.98-.64-1.94-1.29-2.92-1.93 8.56-5.36 17.28-12.95 25.84-18.31.96.53 5.33 2.76 6.59 3.53-8.56 5.47-20.95 11.25-29.51 16.71z"/><path class="fil19" d="M470.64 258.66c-17.55 13.87-36.25 27.12-55.56 40.01-1.53-.18-4.28-.2-4.42-.59-2.89-8.1-15.25-9.26-23.57-13.39-4.02-1.99-7.17-4.69-10.71-7.05 11.5-6.34 23-12.67 34.5-19.01-.31-.32-.65-.64-.96-.96-13.27 4.39-26.54 8.79-39.81 13.17-.55-.27-1.08-.53-1.63-.81 5.95-5.18 11.76-10.43 17.91-15.52 7.34-6.11 15.01-12.05 22.4-18.12.67-.55.33-1.6.48-2.41 2.27-2.97 6.31-4.92 10.02-7.08 3.28-.43 5.45.81 7.44 2.12 12.48 8.3 26.49 15.58 39.02 23.85 2.56 1.67 4.47 3.43 4.9 5.79z"/><path class="fil1" d="M419.24 227.71c-1.24 3.43-1.77 7.33-9.97 6.24-13.82 4.86-27.61 9.72-41.43 14.56-6.93.26-10.04-2.7-11.05-6.24-1.12-4.01-4.11-3.62-8.42-2.44-2.49.69-4.28 1.89-6.26 2.97-2.22 1.22-4.69 2.54-7.56 1.17-3.18-1.52-2.94-3.81-1.08-5.74 3.59-3.73 7.58-7.36 13.53-9.73 3.51-1.4 6-2.51.55-4.19-3.08-.94-3.87-2.97-5.57-4.57-1.15-5.03 4.3-8.06 8.8-11.21 3.04-2.13 5.16-4.25 4.81-7.19 6.69-7.01 12.79-7.6 21.66-2.12 2.2 1.36 4.28 2.79 6.62 4.05 2.3 3.32 7.27 5.07 11.31 7.2 7.27 3.84 13.7 8.19 20.56 12.29.19 1.9 5.33 2.44 3.49 4.93z"/><path class="fil3" d="M343.52 219.4c3.25.85 4.26 4.1 9.35 3.2 1.84-.32 2.94 1.34 3.18 2.59.45 2.38-1.96 3.67-4.92 4.45-7.05 1.84-10.57 5.88-14.68 9.5-.96.84-1.53 2.77-.79 3.27 2.06 1.34 3.39-.49 4.26-1.23 3.42-3.05 9.2-3.59 13.68-5.5 3.32-1.42 5.59-.27 5.57 2.12-.07 4.61 2.96 8.09 8.7 10.72-12.5 4.49-25.03 8.97-37.87 13.57-1.58-3.32 4.64-7.2-3.06-8.98-4.42-1.04-8.46-1.13-11.28 3.27 4.23-10.32-9.18-7.29-15.16-9.75 4.88-3.61 9.75-7.23 14.63-10.84.86-4.02 7.03-6.03 8.99-9.64 5.79-1.1 11.26-2.39 14.42-6.12.86-.99 3.04-1.36 5-.63z"/><path class="fil5" d="M497.83 344.97c-30.29 9.26-56.81 22.29-84.59 34.07-5.91 2.5-12.12 4.71-18.19 7.05-3.51-2.79-3.06-4.6 2.13-7.28 9.97-5.15 20.47-9.85 31.06-14.45 4.66-2.03 8.03-3.66 2.94-7.4-2.75-2.03-1.51-4.64 1.58-6.56 3.95-2.44 5.76-5.48 6.74-8.83.45-1.57.14-2.85-1.24-4.28-5.98-6.2-4.21-8.44 7.08-9.47 5.28-.46 10.14-2.51 15.8-1.67 1.36.2 2.75-.46 3.75-1.1 6.62-4.14 14.7-6.99 22.23-10.32 2.92-1.29 5.33-2.97 6.34-5.27.72-.84 2.01-1.22 3.18-1.72 17.24-5.8 32.35-13.68 48.89-20.16 1.22-.47 2.41-.94 3.71-1.32 1.84-.53 3.8-.73 5.36.17 1.94 1.11 1.24 2.47.14 3.72-3.59 4.11-8.49 7.6-13.03 11.27-10.97 8.51-22.47 16.72-35.15 24.23-9.83 3.88-13.32 10.11-9.49 17.1.46.78.86 1.48.77 2.26z"/><path d="M580.46 311.21c-11.36 12.44-19.22 26.16-33.54 37.51-2.15 1.71-5.19 2.97-7.79 4.43-6.62 3.11-13.22 6.2-19.84 9.3-5.4-2.62-11.07-5.12-8.85-10.4.38-.91-1.12-1.58-1.6-2.41-.96-1.98.6-3.58 2.18-5.07 9.4-8.89 18.1-18.09 28.57-26.51-7.27 5.76-14.49 8.94-20.42 9.02-.6-.32-1-.72-1.24-1.19 3.54-7.87 9.25-15.2 21.85-18 10.64-2.36 22.04-4.14 33.83-2.13 4.76.81 6.48 2.67 6.86 5.45z" style="fill:#12365d;fill-rule:nonzero"/><path class="fil3" d="M475.04 280.4c6.26.11 10.5 8.07 19.1 1.61-5.36 7.36-14.7 13.4-12.03 21.99 3.85 4.57 1.22 8.85-1.41 13.13-10.81 5.94-23.84 8.94-37.23 11.48-2.44.14-4.88 1.36-7.27-.06 11.24-11.1 22.47-22.19 33.69-33.29-20.23 12.06-47.43 17.65-67.28 29.91 22.98-15.72 40.17-35.16 72.42-44.77z"/><path class="fil3" d="M436.22 328.57c2.44-.3 4.85-.59 7.29-.9 1.05.55 3.61.08 2.99 1.77-3.06.35-7.39-.72-8.56 1.96-.88 2.03 2.97 3.18 4.11 4.68 3.87 5.04.53 9.94-4.54 13.89-3.92 3.05-7.13 4.87-.31 8.19 4.45 2.16.96 4.46-2.68 6.12-11.55 5.27-23.05 10.55-34.52 15.9-3.06 1.43-6.17 2.95-4.95 5.91-12.12 5.3-24.22 10.58-39 17.04 5.88-5.22 9.9-8.82 13.96-12.38.53-.46 1.82-1.19 2.03-1.1 11.62 4.87 9.92-3.53 13.32-5.89 6.72-4.64 11.17-10.58 17.72-15.35 12.29-8.94 15.9-20.25 22.78-30.7 2.25-3.37 6.84-6.11 10.35-9.14zM510.43 349.51c2.94 4.31 5.88 8.62 8.85 12.93-14.63 7.48-29.29 14.94-43.87 22.45-3.49 1.8-6.81 3.72-11.21 6.12 2.75-4.63 4.97-8.53 7.41-12.38 1.22-1.93 2.25-4.4 6.91-2.07 2.1 1.05 3.56-.03 4.61-1.1 7.34-7.42 14.66-14.85 21.97-22.26-.12-2.35.65-4.19 5.33-3.69z"/><path class="fil7" d="M510.43 349.51c-1.79 1.23-3.56 2.45-5.36 3.69-4.73-1.93-3.18-5.67-5.79-8.21-.6-.47-1.27-.96-1.22-1.6.29-4.39 12.6-15.21 19.08-16.74.64-.15 1.41.01 2.1.11 8.44-4.17 16.88-8.35 25.32-12.52.1-.05.41.05 1.31.18-11.91 11.77-23.67 23.44-35.46 35.09z"/><path class="fil7" d="M519.25 326.76c-9.87 4.65-13.82 11.92-19.96 18.21-.48 0-.98 0-1.46-.01-6.72-1.42-6-4.99-5.62-8.28.65-5.62 5.02-9.87 12.77-12.64 2.61 1.43 4.97 3.06 9.01 1.48 1.94-.76 4.06-.32 5.19 1.16l.07.09z"/><path d="M649.27 284.01c4.33-2.01 9.25-2.09 14.3-1.83-4.45 3.5-8.73 5.65-16.93 6.87-8.99 1.34-17.24 7.63-23.33 12.91-3.68 3.2-9.35 4.26-12.67 7.45-5.55 5.3-7.44 11.16-8.73 17.24-8.01 7.04-16.02 14.07-24 21.11-1-2.77-2.01-5.54-2.99-8.3 10.35-11.12 18.63-23.15 34.26-32 1.7-4.96 8.22-7.61 13.51-10.63 6.14-3.5 12.05-7.14 18.03-10.75 2.37-1.45 4.71-3.03 8.56-2.07z" style="fill:#0e2347;fill-rule:nonzero"/><path d="M589.28 390.49c-6.17 4.11-14.01 6.59-21.78 9.17-4.16 1.37-7.77.61-11.21-1.04 12.84-15.78 25.68-31.55 38.49-47.32 1.6 1.13 2.06 2.54 1.17 3.82-6.62 9.62-7.29 20.32-13.27 30.02-2.94 4.71 6.5 2.54 6.6 5.35z" style="fill:#154167;fill-rule:nonzero"/><path class="fil3" d="M357.31 199.68s1.77.56.65 2.57c-.39 2.72-20.54 29.95-33.07 24.43-1.98 1.81-4.3 2.56-7.34.9 10.91-8.23 27.65-20.27 39.76-27.89z"/><path class="fil5" d="M320.66 225.3c13.94-9.83 3.19 4.67-5.54 10.5-1.15-1.69-1.75-3.88-6.05-2.77 2.82-1.81 8.74-5.92 11.59-7.73z"/><path d="M519.18 326.68c-2.77-.62-4.21.73-6.03 1.61-3.16 1.51-6.46.7-9.06-.43-2.85-1.23.05-2.57.88-3.81 11.43-7.89 22.86-15.78 34.28-23.65.88-.26 1.82-.3 2.68 0 7.96 2.86 10.04 2.66 15.49-1.74 1.6-1.29 3.04-2.63 5.55-3.29 8.58-3.44 18.08-5.71 27.14-8.53 3.49-1.08 7.03-1.83 10.59-.08-6.77 8.15-13.51 16.31-20.28 24.46-7.82-5.38-31.44-4.95-42.89-.41-9.85 3.88-11.78 10.8-18.36 15.85z" style="fill:#113055;fill-rule:nonzero"/><path d="M649.27 284.01c-13.39 7.83-26.75 15.66-40.14 23.47-4.85-5.89-2.44-10.36 6.36-13.72 2.2-.84 4.11-1.99 6.15-3 7.46-3.14 14.82-6.35 22.4-9.35 3.13-1.23 6.36-4.83 9.78-2.76 2.77 1.67-3.78 3.18-4.54 5.36z" style="fill:#28687d;fill-rule:nonzero"/><path class="fil7" d="M446.52 329.46c-1-.59-1.98-1.19-2.99-1.77 11.95-3.93 23.88-7.84 35.84-11.77 3.95-3.29 7.75-6.75 15.64-5.47.24 2.09.21 2.06-2.46 3.41-8.7 4.42-17.57 8.73-26.01 13.34-6.17 3.37-14.08-1.02-20.01 2.25z"/><path d="M494.98 310.44c-5.21 1.83-10.42 3.64-15.64 5.47 2.99-3.76-1.08-8.19 2.77-11.88 4.76-3.64 9.52-7.28 14.3-10.92 1.36 2.51 1.51 4.95-.65 7.39-2.89 3.27-2.34 6.32 2.13 8.94l-2.92 1.01z" style="fill:#14325a;fill-rule:nonzero"/><path class="fil4" d="M1172.04 223.04c-7.49-.69-14 1.71-21.02 2.47-2.66.29-5.79.76-7.49-.94-1.63-1.61.9-2.89 2.35-3.96 8.59-6.23 17.41-12.34 26.15-18.49v20.92z"/><path class="fil18" d="M1172.64 190.57c-37.42 21.91-76.71 37.2-111.5 60.97 11.05-4.87 22.07-9.76 33.11-14.63-27.88 17.62-59.51 32.53-86.48 50.7.02.21.02.43.05.64-3.68 4.99-11.12 7.71-17.02 11.35-4.28 3-9.47 5.41-13.84 8.35-1.72 1.16-3.8 1.75-6.38 1.31-22.71 10.93-39.45 25.4-58.7 39.87 26.9-11.77 52.38-22.92 77.85-34.08.96.67 1.94 1.33 2.89 2-14.51 8.7-29.02 17.39-43.54 26.09-.12 1.22-.24 2.44-1.77 3.35-.86.52-1.58 1.14-2.42 1.66-12.53 7.89-24.74 15.82-29.72 27.17-2.22 5.06-10.04 7.95-14.37 12.27-2.08 1.08-3.51 3.15-7.13 1.92-1-4.86-2.01-9.7-2.99-14.56-6.77 16.01-20.92 28.74-38.64 40.1-.89.58-68.43 61.76-69.36 61.24-3.9-4.86-19.29-12.7-23.22-17.56.45-5.44 86.02-66.48 89.82-70.69 6.24-6.9 15.78-12.21 23.5-18.41 4.02-5.65 11.88-9.55 16.76-14.8 4.88-4.2 9.8-8.38 14.8-12.53 17.52-14.67 32.61-30.64 53.65-43.42 18.72-11.36 38.16-22.25 57.29-33.35 10.16-5.89 20.49-11.74 30.15-18 9.83-6.37 21.38-11.65 31.45-17.86 0 0 4.34-1.4 20.71-10.61 10.05-5.65 39.6-19.54 54.83-25.17 4.02-1.15 17.67-4.43 18.41-4.26.72.17 1.67.5 1.77.97z"/><g><path d="M1288.81 523.15c-9.18-1.67-15.11-6.04-21.32-10.62-.93-.68-1.21-1.9-1.25-2.88-.08-2.67-2.6-4.31-6.19-4.38-10.39-.21-20.8-.12-31.17.14-3.21.08-3.65 2.16-3.61 3.87.06 2.85-.44 5.6-2.48 8.19-1.37 1.7-3.81 1.65-6.25 1.48-13.48-.95-26.76-.76-39.47 2.8-2.14.6-4.26.72-6.13-.44V372.33c1.74-4.61 8.35-7.69 10.23-12.53-3.83.12-6.44 3.2-10.23 1.02v-5.37c2.04-7.58 9.46-13.68 14.08-20.65-4.76.58-8.8 3.6-14.08 1.45v-3.07c1.9-3.19 5.21-5.68 9.08-7.96 5.63-3.3 10.45-7.03 14.14-11.66-3.91-.68-5.51-2.31-4.3-4.86 3.41-7.08 5.63-14.36 8.27-21.57.63-1.7 1.45-3.38 4.7-3.42 3.25-.04 4.34 1.66 4.94 3.32 2.04 5.6 4.6 11.09 8.35 16.35 2.56 2.72 4.04 5.78 6.28 8.61 1.27 1.61 1.19 3.47-1.29 4.47-4.44 1.8-3.07 3.82-.99 5.81 3.63 3.46 6.86 7.08 10.82 10.4.77.64 1.21 1.3.73 2.11-5.89 1.98-5.95 2.01-2 5.92 4.88 4.85 10.73 9.23 16.26 13.76 2.46 2.02 4.34 2.06 6.28-.1 6.03-6.67 13.56-12.65 20.99-18.67 2.28-1.85 3.23-3.77.71-5.94-1.78-1.54-2.18-3.28-.54-5.04 7.48-6.48 11.99-13.72 15.47-21.22" style="fill:none;fill-rule:nonzero"/><path class="fil32" d="M1288.81 566.59c-28.18-31.67-46.61-69.5-70.87-103.93-21.55-30.57-42.84-59.64-49.87-88.64-3.9-16.1 6.16-36.1.18-46.95-9.95-18.07 2.66-58.76 2.66-62.29 2.7-4.31 7.45-7.52 13.56-9.91 4.98-1.95 8.13-1.02 9.79 2.58 1.19 2.62 1.03 5.31 1.23 7.98.08 1-.02 2.26 2.06 2.43 1.88.15 2.68-.95 3.43-1.85 1.8-2.16-.22-6.8-3.87-9.07-2.38-1.49-6.31-1.9-7.43-4.25-.99-2.1 3.97-3.52 3.12-6.14-6.07 1.41-11.07 4.34-15.03 7-1.94 1.3-3.33 3.03-6.84 2.02 0-21.76-.07-44.2-.07-65.96.25-.06 5.2 2.48 5.2 2.48 0 .13 27.72 53.74 27.72 53.74-.11 0 39.47.17 39.99 1.54 1.07 2.99-.89 5.51-3.21 7.92-3.81 3.91-7.14 7.93-8.84 12.44-2.54 1.68-1.23 3.87-1.86 5.81-2.62 8.33-5.1 16.67-7.06 25.06-.26 1.09 26.79 31.35 66 74.61v193.37z"/><path class="fil3" d="M1170.91 255.58c3.48-2.19 14.86-14.14 19.13-12.18 1.07.49 3.47 3.33 3.33 4.36-.2 1.48-1.29 2.01-2.27 3.36-1.57 2.15.36 2.29 4.65 3.2 8.15 1.74 11.46 9.95 6.38 14.33-1.67 1.44-3.79 2.4-6.62 2.01-3.09-.44-2.82-2.22-2.89-3.74-.12-3.89 1.7-9.83-2.89-10.96-5.61-1.38-10.01 4-14.73 6.62-1.35.75-2.72 1.49-4.1 2.22v-9.22z"/><path d="M1170.91 336.22c6.58-1.48 13.18-2.94 21.11-7.31-6.68 10.58-13.72 18.6-21.11 26.51v-19.2z" style="fill:#0f254c;fill-rule:nonzero"/><path d="M1170.91 360.8c2.38-.89 4.8-1.74 7.12-2.66 2.12-.84 3.79-3.46 5.83-2.63 2.66 1.07.5 3.55-.16 5.19-1.92 4.83-7.36 8.26-12.81 11.62.02-3.84.02-7.67.02-11.52z" style="fill:#0e244d;fill-rule:nonzero"/><path class="fil1" d="M1230.01 267.08c-.87-4.73 4.26-8.01 7.18-11.8 2-2.6 5.05-4.91 4.8-8.05.32-.32.77-.55 1.33-.68 2.87-.3 4.32.96 5.89 2.15 11.2 8.35 21.39 17.24 32.41 25.69 1.53 1.18 3.11 2.34 4.68 3.5 1.01.74 1.82 1.35 2.5 1.8v29.96c-3.1 5.73-7.29 11.16-14.18 15.84-3.11.6-4.26-.84-5.41-2.17-2.66-3.11-5.37-6.22-6.94-9.63-.93-2-2.44-3.68-4.54-5.21-8.03-11.52-16.42-22.93-25.3-34.19-1.78-2.25-3.55-4.54-2.42-7.22z"/><path class="fil6" d="M1230.01 267.08c10.05 13.56 20.1 27.13 30.15 40.69 2.14 4.81 1.43 4.51-5 7.34-7.73 3.39-15.54 7-20.68 12.29-1.17 1.2-.85 2.4-.1 3.65.73 1.21 1.01 2.54.12 3.71-.95 1.25-67.95 41.84-68.94 40.11-21.74-17.22-17.57-8.58-8.89-28.78 2.86-6.7 68.89-72.52 73.35-79.01z"/><path class="fil5" d="M1231.18 334.67c1.82.55 1.72-.44 1.31-.87-5.61-5.77.77-9.54 6.4-12.56 5.67-3.05 9.93-7.4 17.9-8.68 3.69-.59 3.33-2.87 3.37-4.78 4.82 5.91 9.67 11.84 14.49 17.75 9.34 8.28-1.94 12.89-7.99 18.48-4.78 4.42-9.62 8.83-13.98 13.4-2.12 2.24-3.77 2.42-6.11.44-7.97-6.72-17.31-12.83-22.92-20.6-.95-1.31-3.71-2.87-1.9-4.06 1.69-1.12 4.36.49 6.58.91.95.19 1.92.39 2.87.57z"/><path class="fil18" d="M1243.23 247.13c15.2-9.77 30.39-19.54 45.58-29.31v64.61c-1.23-.79-2.78-2-4.88-3.62-13.64-10.51-27.14-21.12-40.7-31.68z"/><path d="M1288.81 235.44c-3.92 2.14-7.41 3.91-10 5.01 2.28-3.17 6.19-5.17 10-7.14v2.13z" style="fill:#153157;fill-rule:nonzero"/></g><g><path d="M1288.81 342.3c-9.67 3.03-21.79 6.33-24.46 6.93 9.97 10.84 16.81 22.19 24.46 33.07v-40z" style="fill:#21454e;fill-rule:nonzero"/><path d="M1288.81 209.02c-5.17 4.82-10.87 9.4-18.18 13.97 1.2-2.37 2.57-3.92 4.08-5.45 1.04-1.04 2.48-2.11.75-3.44-6.47.37-11.72 2.15-15.6 5.5 1.88 1.51 1.18 2.89-.31 4.35-2.51 2.48-6.16 4.19-9.75 5.92-10.5 5.07-21.1 10.06-30.5 15.99-.53.34-1.07 1.08-2.22.44-1.24-.56-2.26-.21-3.24.28-2.3 2.47-3.83 5.1-4.78 7.97.13 1.51.75 2.29 2.28 3.28 1.39.77 2.55 1.75 4.46 2.07 2.57.28 4.52-.63 6.43-1.47 10.7-4.69 21.37-9.42 31.18-14.89 1.93-1.08 3.55-1.8 6.12-.68 2.24.97 4.52.27 6.63-.44 3.02-1.02 5.83-2.3 9.06-3.06 2.64.53 4.79 1.95 7.8 1.86 1.04-.01 1.99-.21 2.88-.52 1.03-.34 2.01-.74 2.91-1.2v-30.47z" style="fill:#54a48d;fill-rule:nonzero"/><path class="fil32" d="M1257.05 307.15c3.06 4.54 6.14 9.09 9.22 13.61.2.3.55.66.98.81 11.1 3.68-9.45 18.22-3.29 24.15.98.95 1.31 2.52 2.26 3.5 3.16.81 13.75-2.03 22.58-5.01v-58.3c-7.67 4.58-14.83 9.53-22.01 14.46-3.3 2.23-7.96 3.69-9.75 6.78z"/><path d="M1228.75 271.14c2.39 0 3.99-1.02 5.61-1.89 14.7-7.87 27.82-16.71 40-26.14 1.73-1.33 3.24-2.8 2.68-4.7-.16-.55-.67-.75-1.51-.52-3.15 1.11-6.23 2.31-9.47 3.31-2.46.77-4.83 2.6-7.38-.48-1.44-1.73-3.63.3-5.03 1.11-11.12 6.42-24.87 12.5-37.11 17.95-4.3 2.08 5.03 10.59 12.22 11.36z" style="fill:#36736e;fill-rule:nonzero"/><path d="M1288.5 238.48c-1.06.5-2.11 1-3.17 1.51-7.12 4.81-13.54 10-20.03 15.16-5.28 4.19-10.4 8.48-13.3 13.63-.58 1.04-1.64 2.1-.46 3.27 1.89.7 3.46.07 4.94-.57 6.76-2.95 13.79-5.66 19.99-9.11 4.17-2.66 8.34-5.32 12.34-8.1v-15.84c-.1.02-.2.04-.31.06z" style="fill:#316867;fill-rule:nonzero"/><path d="M1275.53 237.87c1.66 1.28-.04 2.2-1.04 3.02-9.38 7.6-19.44 14.82-30.7 21.33-5.07 2.92-11.01 5.93-16.02 8.91.02 1.73 1.74 3.57 4.54 4.07 2.42 1.38 3.97.12 5.49-.81 13.81-8.45 26-17.82 37.99-27.3 1.58-1.27 3.37-2.39 5.01-3.6 1.09-.81 3.17-1.33 2.35-2.81-3.24-.16-4.41-2.61-7.62-2.82z" style="fill:#529e8d;fill-rule:nonzero"/><path d="M1288.5 238.48c.1.01.2.03.31.05v-.36c-.11.1-.21.2-.31.3z" style="fill:#34746c;fill-rule:nonzero"/><path d="M1283.14 240.69c-15.76 11.26-30.81 22.91-47.56 33.59-1 .64-1.9 1.02-3.26.92 1.33 1.43 2.68 2.87 4.01 4.29 5.28-1.24 9.44-3.62 13.96-5.65.97-.44 1.95-1.07 1.31-2.02 7.32-11.28 19.84-20.24 32.29-29.21 1.07-.78 2.5-1.42 1.44-2.63-.73.24-1.46.49-2.19.72z" style="fill:#387a75;fill-rule:nonzero"/><path d="M1216.89 246.92c-.22.66-.82 1.81-.56 1.89 1.46.48 1.39-.65 2.08-1.04 11.62-6.7 23.91-12.89 36.46-18.86 3.59-1.71 6.03-3.9 8.22-6.31 1.9-2.1 1.06-2.98-2.75-2.63-3.3.24-5.5 1.74-7.51 3.09-7.67 5.2-17.22 9.06-24.89 14.26-2.2 1.5-5.79 1.9-7.8 3.64-1.75 1.85-4.03 3.57-3.24 5.97z" style="fill:#78c2a3;fill-rule:nonzero"/><path d="m1288.81 225.61-1.46 1.06c-.95.68-2.35 1.4-1.95 2.58 1.13-.39 2.39-.68 3.41-1.17v-2.46z" style="fill:#7cc1a3;fill-rule:nonzero"/><path d="M1275.64 214.34c-2.02 2.54-5.23 4.65-6.56 7.45-.51 1.06-2.19 2.32-.35 3.12 1.62.71 2.79-.72 3.83-1.4 5.91-3.87 11.55-7.89 16.25-12.38v-5.12c-5.45 2.04-10.37 4.46-13.17 8.33z" style="fill:#74c5a3;fill-rule:nonzero"/><path d="M1275.64 214.34c4.55-2.39 8.34-5.33 13.17-7.52v-1.96c-2.97.29-8.44 3.13-9.85 4.04-5.1 3.31-11.7 5.12-17.95 7.23-.58.3-1.13.64-1.71.94-2.31 1.17-4.7 2.29-6.74 3.67-8.75 5.83-17.97 11.3-27.91 16.3-2.5 1.3-4.98 2.59-7.73 3.67-1.8.98-4.68 2.12-4.68 2.05 4.37 1 6.43-.35 8.98-1.35 14.14-6.31 26.57-13.93 39.08-21.44 4.28-2.81 10.1-3.9 15.34-5.62z" style="fill:#69a27c;fill-rule:nonzero"/><path d="m1287.76 205.03 1.05.34v-.68c-.35.11-.7.22-1.05.34z" style="fill:#508e7b;fill-rule:nonzero"/><path d="M1226.92 238.73c-2.99.85-10.4 2.35-12.81 3.25-5.73 2.4-6.49 2.1-10.34 3.86.1-.06 1.99 3 1.86 2.92.08-.05 5.15.09 8.99-1.86.75-.17 1.51-.57 2.24.01 1.46-1.83 8.61-6.33 10.05-8.17z" style="fill:#66b092;fill-rule:nonzero"/><path d="M1214.63 246.9c-.71-.5-1.75-.65-2.33-.14-4.18.31-6.69 1.9-6.66 1.99-.01-.04 2.7 5.02 3.47 5.87 2.04-2.52 4.88-4.8 5.52-7.72z" style="fill:#71bba4;fill-rule:nonzero"/><path d="M1246.01 290.55c1.84 2.54 3.66 5.08 5.5 7.63 4.68.35 7.11-1.99 9.82-3.63 5.5-3.34 11.37-6.44 16.91-9.76 3.27-1.96 6.85-3.63 10.57-5.18v-7.69c-1.87 1.04-3.71 2.12-5.52 3.22-1.42.87-3.02 1.64-4.9 2.1-3.97 1.29-6.76 3.45-9.88 5.36-3.39 2.1-6.91 4.09-11.59 4.93-3.59 1.17-6.58 3.1-10.91 3.03z" style="fill:#2b5458;fill-rule:nonzero"/><path d="m1288.81 327.09-.89.44c-.95.48-2.42.92-1.82 1.87.5.77 1.66.67 2.71.61v-2.92z" style="fill:#2b555b;fill-rule:nonzero"/><path d="m1288.81 252.5-.09.07c-4.1 3.11-8.71 5.97-13.08 8.94.02 2.29 2.81 2.02 4.9 1.93 2.66-.12 5.27-.21 7.84.34.15.02.29.04.44.05v-11.32z" style="fill:#509c8b;fill-rule:nonzero"/><path d="M1288.81 278.23c-3.4 1.39-6.72 2.87-9.82 4.56-9.27 5.05-17.67 10.72-27.48 15.39.47 3.33 3.28 6.08 5.54 8.97 6.05-2.4 10.4-5.92 15.25-9.15 5.28-3.51 10.9-6.81 16.51-10.13v-9.64z" style="fill:#2f6264;fill-rule:nonzero"/><path d="M1288.63 262.78c-2.97-1.18-6.23-.57-9.37-.56-1.42.01-2.84.42-3.61-.73-7.94 3.52-15.51 7.39-24.05 10.34-3.79 1.68-7.62 3.33-11.37 5.05-1.53.71-3.57 1.16-3.9 2.62.43 1.79 1.78 3.22 3.37 4.05 2.41.71 4.17-.2 5.92-.99 5.43-2.45 11.1-4.7 16.45-7.22 7.42-3.18 14.43-6.71 21.87-9.87 1.73-.75 3.81-1.32 4.68-2.7z" style="fill:#3f837a;fill-rule:nonzero"/><path d="M1261.35 274.58c-7.22 2.99-14.43 5.99-21.65 8.97 1.75 2.46 3.5 4.92 6.3 7 5.48 3.12 7.54-1.03 11.04-2.11 3.73-2.48 6.09-5.57 8.86-8.45 2.64-2.74.58-4.84-4.56-5.41z" style="fill:#2b5c5f;fill-rule:nonzero"/><path d="M1261.35 274.58c5.32 2.75 5.43 3.39 1.18 6.57-2.84 2.12-5.07 4.45-5.48 7.3 4.56-.09 7.62-1.96 10.7-3.73 3.77-2.16 7.36-4.42 11.04-6.65 2.3-3.25 5.89-5.78 10.02-8.03v-7.24l-.16-.03c-6.01.86-10.06 3.78-14.94 5.81-4.34 1.8-8.25 3.98-12.35 5.99z" style="fill:#326a69;fill-rule:nonzero"/><path d="M1288.81 268.51c-1.32.73-2.66 1.45-4.04 2.13-3.86 1.92-6.63 4.1-5.98 7.44 2.06-.15 3.79-.75 5.23-1.66 1.57-.98 3.17-1.94 4.79-2.88v-5.03z" style="fill:#3a7873;fill-rule:nonzero"/></g><g><path class="fil5" d="M923.1 567.35c-101.88-71.7-211-148.5-210.1-151.26-.46-2.68-2.32-4.43-7.04-4.24-1.61.06-2.74-.6-3.97-1.1-1.24-.51-2.46-1.29-3.87-1.3-8-.09-14.1-3.04-20.64-5.36-2.11-.76-4.46-1.29-6.89-.89-6.47 1.06-12.78.21-19.08-.55-5.82-.7-11.69.14-17.56-.67-5.63-.79-11.06-1.7-15.9-3.76-3.22-1.38-6.76-2.36-10.49-3.08-7.04-1.35-13.58-2.31-21.33-.55-10.12 2.3-20.75.86-30.85-1.33-3.56-.77-6.34-2.27-8.8-4.09-7.65-5.66-12.08-12.58-18.21-18.82-1.54-1.57-2.28-3.88-6.37-3.78-1.91 1.62-.5 3.1.48 4.6 6.11 9.36 13.39 18.45 16.29 28.56.5 1.72 1.69 3.34 3.06 4.86 3.84 4.21 7.82 4.86 14.49 2.41 4.19 1.68 8.63 2.75 13.53 3.45 4.3.61 7.45 2.81 10.73 4.74 6.85 4.03 117.03 83.27 211.79 152.17h130.74z"/><path d="M489.06 333.49c5.15 4.07 8.75 8.84 14.4 12.67 3.87 2.67 6.99 5.71 10.62 8.5 2.5 1.91 5.24 3.71 8.52 4.97 4.91 1.91 9.62 3.89 13.19 6.84 1.02.84 2.46 1.4 4.19 1.61 1.5.14 3.13.09 4.28-.46 4.84-2.32 7.95-.73 11.08 1.65 2.48 1.88 5.35 3.55 8.17 5.24 7.71 4.58 10.93 4.17 14.92-1.85 1.32-2.04 1.28-4.12-.48-6-2.69-2.87-4.67-5.97-7.41-8.82-3.04-3.46-7.86-6.02-11.38-9.24-1.24-1.13-2.74-2.16-3.3-3.55-.56-.87-1.43-1.63-2.17-2.43-.82-.9-2.72-1.9-2.08-2.69.63-.75 2.43.44 3.84.52 3.45.19 4.8-.91 3.54-2.99-.2-.33-.39-.74-.8-.91-7.06-2.7-7.6-8.49-13.86-11.67-5.98-3.03-10.41-7.21-16.99-9.89-.76-.31-1.24-.85-1.82-1.31-4.78-2.91-9.89-5.59-15.56-7.75-3.19-1.22-6.69-2.96-9.71.35-1 1.09-2.3.05-3.26-.26-3.45-1.11-6.5-2.62-9.76-3.92-1.56-.61-3.15-1.22-4.89-1.58-2.78-.59-5.58-.64-7.6.9-2.21 1.68-.67 3.27.8 4.81.89.94 3.48 2.29 2.28 2.75-1.76.67-3.04-1.17-4.43-2.02-3.17-1.96-5.48-4.9-11.21-3.72-1.33 3.86 1.69 7.16 4.08 10.3 3.84 5 8.26 9.93 16.21 12.93 2.15 2.32 4.37 4.66 6.6 7z" style="fill:#264c54;fill-rule:nonzero"/><path class="fil1" d="M429.29 273.65c1.22 1.53 2.43 3.07 4.6 4.18 6.22 1.85 7.74 1.63 9.99-2.12.81-1.36 1.19-.7 1.87-.19 2.63 1.97 6.02 3.42 8.84 5.26 1.65 1.31 3.84 2.17 6.17 2.83 4.06 1.13 6.28.34 5.84-2.36-.39-2.38.74-3.3 4.41-3.73 4.61-.53 5.04-1.64 2.19-4.04-.44-.37-.98-.7-1.46-1.05-4.28-3.12-4.26-3.14 1.78-4.91 1.37-1.84-.93-2.83-2.45-3.88-9.73-6.7-18.64-13.93-28.89-20.25-14.32-8.82-27.14-18.39-39.54-28.24-1.59-1.28-3.43-2.45-5.69-3.28-.94-.34-2.08-.7-3.04-.12-.93.54-.7 1.31-.28 1.97 1.43 2.18 3.87 3.97 5.73 5.98.59.65 2.15 1.32 1.24 2.05-.54.42-1.91-.38-2.95-.58-.89-.17-1.78-.28-2.7-.15-2.13.61-1.54 1.76-1.06 2.71 1.32 2.58.54 4.09-4.3 3.93-.94-.04-1.7.39-2.32.85 1.15 2.77 2.32 5.56 3.46 8.33.65.57 1.19 1.27 2.24 1.52 10.1 2.37 14.28 8.18 19.18 13.5 5.22 5.68 8.89 11.84 12.69 17.94.96 1.5 1.65 3.17 4.45 3.84z"/><path class="fil20" d="M455.88 279.95c-3.8-2.5-8.52-4.41-11.54-7.42-.32-.31-1.26-.6-1.78-.52-1.15.17-.91.87-.87 1.45.26 4.71-.07 4.9-7.8 4.38.96 1.7 4.54 1.76 5.43 3.52 1.59 2.4 4.13 4.4 6.63 6.42 4.58 3.68 8.43 7.67 11.71 11.88 1.11 1.42 1.85 3.14 4.85 3.56 5.02 1.03 8.02 3.52 11.21 5.97 1.59 1.23 3.89 3.27 6.69 1.58 2.5-1.5-.26-2.9-1.95-4.13-1.76-1.28-4.85-2.62-2.87-4.4 2.3-2.05 5.65-.92 8.43.09 5.41 1.99 10.25 4.59 16.08 6.12.8.21 1.85.52 2.5.35.8-.2.06-.79-.17-1.2-.32-.63-1.37-1.36-.22-1.9 1.59-.77 3.21-.12 4.61.4 6.39 2.35 11.86 5.5 17.66 8.38 6.56 1.95 7.93 1.6 7.93-1.99-2.04-2.47-5.86-3.8-9.5-6.1 5.6 3.39 11.19 5.81 16.38 8.56 3.43 1.82 7.08 2.42 11.1.72 2.96-1.86 1.72-3.59-.46-5.26-14.91-11.39-29.26-23.12-46.47-33.19-4.54-2.66-8.63-5.71-14.38-7.47-3.13 1.04-6.78-.34-9.89.8-1.41 1.97 1.13 3.06 2.59 4.25 3.85 3.14 8.06 6.11 11.04 9.65 2.48 2.95 1.98 3.54-3.06 3.95-1.09.09-2.48 0-3.11.54-4.32 3.75-10.51 1.72-15.88 2.14-1.17.09-2.17-.29-2.96-.79-4.46-2.8-8.37-5.9-12.25-9.03-.46-.39-.11-.92.32-1.32z"/><path d="m377.49 214.42.06 1.35c4.43 3.89 5.98 8.67 9.76 12.76 10.73.52 10.73.52 7.76-7.06-3.13-3.43-8-5.77-12.88-8.06-1.7-.79-3.5-.04-4.71 1.02z" style="fill:#488d7f;fill-rule:nonzero"/><path class="fil2" d="M711.39 415.91c1.54-1.23 2.11-2.67 2.24-4.19 2.17-6.48-3.22-11.08-13.62-11.58-4.8-.22-9.52-.67-13.9-2.05-2-.64-4.15-1.09-6.37-1.04-5.26.11-10.06-.87-15.01-1.94-6.95-1.49-13.8.21-20.49 1.35-3.19.54-6.34 1.17-9.6 1.57-4.15.51-8.1-.06-10.73-1.93-7.99-5.7-18.99-6.3-29.61-7.53-5.21-.6-10.41-.66-15.82.33-7.93 1.45-17.23-1.18-20.92-5.51-2.21-2.6-5.61-4.65-8.63-6.86-3.82-2.78-5.41-6.38-8.97-9.22-8.97-7.02-23.42-10.29-30.87-18.41-1.09-1.19-3.72-1.83-5.63-2.73 2.76 4.63 8.13 8.26 11.71 12.58 2.2 2.67 4.72 5.24 7.1 7.85 5.98 5.36 10.15 11.4 15.58 16.97 3.85 3.95 7.32 8.4 14.49 10.23 13.01 3.32 26.36 4.73 39.91.93 1.13-.32 2.72-.77 3.65-.5 6.5 1.9 14.04 1.94 20.1 4.64 9.28 4.15 19.69 5.42 30.83 4.58 3.08-.22 5.61 1.26 8.56 1.12 5.37-.25 10.62 1.42 16.25-.29 2.82-.86 6 1.3 8.89 2.28 4.82 1.63 8.69 4.61 15.3 3.59 2.02-.32 4.3 1.09 6.1 2.16 1.56.93 2.37 2.27 5.71.8 2.67-1.19 2.93 1.52 3.74 2.8z"/><path class="fil19" d="M539.94 367.3c-.06 5.76 6.74 9.12 11.41 13.23 1.28 1.13 3.09 2.04 4.21 3.23 5.84 6.21 15.8 8.44 26.61 5.78 4.46-1.1 8.89.02 13.01.5 6.91.79 14.29.99 20.55 3.5 1.09.44 2.56.7 3.24 1.3 7.47 6.68 16.62 4.72 26.59 2.77 7.5-1.46 15.75-3.47 23.55.07.44.2 1.04.47 1.48.43 11.26-1.3 20.81 4.51 32.07 3.2.78-.09 1.98.16 2.48.53 3.89 2.91 2.31 16.19 11.38 17.71 4.15-6.77 8.58-13.47 14.34-19.78.33-1.11-3.77-8.87-4.88-8.9-3.46 1.9-6.15 4.19-8.32 6.75-.26.31-.41.65-.63.97.13-.35.57-.68.56-1.04-.26-3.94-.87-7.82-5.15-11.01-4.37-.96-6.22 1.4-8.87 2.71-5.1 3.45-10.99 4.93-18.38 3.21-3.11-.72-6.41-1.16-9.75-1.09-7.78.17-15.36-.19-22.57-2.42-3.39-1.05-7.15-1.04-10.63.26-1.85.68-3.95.8-5.89.51-4.37-.67-8.69-.91-13.1-.2-1.52.25-2.98-.01-4.22-.54-4.74-2.03-10.54-3.15-14.75-5.45-8.49-4.66-18.47-7.62-27.83-11.29-3.17 5.62-4.72 5.77-12.02 1.14-3.5-2.23-7.1-4.41-10.41-6.76-2.67-1.9-4.93-3.08-8.54-.68-1.22.81-3.63.92-5.52 1.36z"/><path class="fil10" d="M576.44 372.24c.11 1.13-.22 2.23 2.21 2.83 8.43 2.08 15.88 5.09 22.77 8.95 5.15 2.88 11.89 5.46 18.06 6.37 6.91 1.01 15.56 1.91 22.29.32 6.13-1.45 10.38-.7 15.32.74 2.19.64 4.41 1.24 6.86 1.2 8.67-.11 17.19.07 25.6 1.91 4.98 1.1 12.56-1.64 15.21-4.72.94-.83 1.39-1.85.28-2.56-4.45-2.87-9.3-5.44-15.45-6.73-.83-.18-1.78.09-2.59.38-1.11.46-1.69 1.22-2.45 1.86-3.06 2.56-6.47 3.28-11.04 1.88-6.3-1.92-12.91-3.39-19.18-5.33-5-1.55-10.02-2.24-15.45-1.25-4.21.77-8.08.28-11.39-1.48-15.9-8.46-35.44-12.59-53.66-18.33-1.61-.51-3.32-1.14-5.09-.16 2.93 3.2 4.8 6.74 8.1 9.84 1.28 1.24 1.37 2.9-.39 4.27z"/><path class="fil8" d="M531.1 312.36c1 4.79-4.72.99-6.61 2.1 6.82 4.24 13.84 8.36 20.38 12.76 2.33 1.57 7.36 2.81 3.89 6.16-.52.51 1.37 1.27 2.67 1.42 1.69.19 3.41.44 4.21 1.44.83 1.04 3.69 1.99 1.96 3.17-1.33.92-3.26-.41-4.82-.96-1.37-.47-2.8-1.7-4.3-.85-1.56.87.13 1.97.87 2.82 1.52 1.72 3.32 3.36 5 5.04 2.61 2.23 6.11 3.79 10.17 4.53 8.84 1.62 16.38 4.46 22.68 8.72 1.11.76 2.5 1.37 4.11 1.71 4.04.25 8.02.65 11.75 1.81 1.67.52 3.56.89 5.35.7 7.39-.8 14.19.57 21.01 2.07 1.89.41 3.91.68 5.97.65 4.46-.06 5.78-1.04 5.67-4.19-.82-2.22-3.91-3.03-6.5-4.06-23.03-9.09-45.58-18.63-67.72-28.56-10.54-4.73-20.62-9.85-30.4-15.2-1.54-.83-2.97-1.88-5.34-1.27z"/><path class="fil6" d="M590.83 359.55c-6.58-4.63-13.47-8.79-23.68-10.22-4.5-.63-8.56-2.54-12.82-3.87 2.83 5.13 10.01 8.26 14.38 12.67 11.93 4.11 24.94 6.75 36.85 10.8 7.58 2.57 14.41 6.01 21.47 9.16 3.35 1.5 6.74 2.32 10.8 1.42 5.97-1.33 11.32-.41 16.86 1.35 6.39 2.03 13.17 3.56 19.64 5.56 5.56 1.71 11.45-.8 12.69-5.03-2.24-4.34-8.88-5.66-13.9-8.05-2.11-1-4.5-2.17-7.6-1.42-7.93 2.44-15.97 2.74-23.68-.17-3.84-1.44-7.5-2.34-11.97-1.78-2.37.29-4.89-.08-7.04-.64-8.8-2.27-18.45-3.43-25.62-7.85-1.82-1.12-4.46-1.03-6.39-1.94z"/><path class="fil7" d="M506.98 327.29c-.04 1.03.81 1.66 1.87 2.14 9.36 4.22 14.8 10.6 21.77 16.12 2.87 2.28 6.02 4.4 8.99 6.62 1.17.87 3.32 1.6 4.85.6 1.43-.93-.76-1.56-1.56-2.23-9.26-7.98-18.51-15.96-27.85-23.9-1.13-.96-2.19-2.47-4.71-1.84-1.67.41-2.96 1.35-3.37 2.49z"/><path class="fil18" d="M622.89 252.47c-7.08.39-14.12-1.29-21.2-.09 1.2.83 2.76.28 4.13.45.32.04.48.12.54.05.33-.41-.11-.59.09-.14.2.45.11-.18-.46.11-.59.28.17-.02-.56-.02-10.43.06-18.36 4.28-27.27 6.8-4.22 1.19-7.3 1.11-11.08-.5-5.8-2.47-10.69-5.7-16.92-7.78-1.72-.58-3.48-1.63-5.15.06-.02 3.69 5.56 4.45 8.54 6.56 7.84 3.68 13.8 8.77 18.94 10.74-4.89-1.95-10.89-6.81-18.47-10.5-8.15-4.3-16.34-8.56-25.07-12.37-8.14-6.12-19.07-11.38-30.76-14.54-2.45-.5-4.95-.96-6.8-2.15-2.05-.34-3.35-.91-4.91-1.45-22.2-2.93-42.24-9.5-62.92-15.01-2.06-.56-3.45-1.69-5.15-2.55-7.78-3.04-16.14-5.32-24.64-7.4-6.73 1.95-11.58-.71-16.66-2.77-1.54-.63-2.89-1.46-4.69-1.75-2.06-.33-2.71.25-1.78 1.48 1.46 5.06 3.89 9.94 6.8 14.73 2.67-.68 4.87-.39 6.65 1.14 2.89 2.51 6.43 4.58 10.93 5.9.96.33 1.95.67 2.91.99 1.98.65 4.06 2.56 6.1 1.23 1.48-.97-.98-2.5-2.07-3.66-1.5-1.61-3.34-3.08-4.87-4.67-.93-.96-2.43-1.72-2.56-2.97 2.19-.08 2.93 1.18 4.06 1.95 3.04 2.02 5.95 4.12 8.73 6.29 8.78 6.85 17.56 13.63 27.59 19.86 13.6 8.45 25.77 17.84 38.57 26.82-.3 2.57 2.32 3.25 5.59 3.48 3.35.14 7.04 2.27 9.88-.66-2.76-4.47-8.49-7.42-13.6-10.67-2.19-1.38-4.52-2.7-6.67-4.12-8.52-4.1-14.51-9.85-21.31-13.19 7.97 4.87 17.05 10.94 27.5 16.03 3.8 2.1 7.91 3.88 12.86 4.72 1.3.08 2.69-.05 3.58-.59 3.61-2.15 6.41-1.2 9.04.8 4.76 3.45 10.47 6.25 15.84 9.28.96.54 2.02 1.04 3.15 1.43 2.39.81 5.11 2.21 7.41.39 1.93-1.51-.11-3.09-1.46-4.47-.39-.4-1-.68-1.63-.94.69.24 1.22.59 1.89.84 2.09.78 4.3 1.25 6.8 1.29 6.71.08 9.6 2.15 9.02 6.34-.09.72.09 1.43.63 2.04 4.21 4.8 7.54 9.95 13.51 14.07 5.11 4.77 10.75 9.24 18.68 12.25 5.34 2.03 7.93 1.49 10.93-2.14-.57-4.09-5.91-5.95-9.86-8.46-.5-.32-1.11-.58-1.54-.93.43.22.89.41 1.43.51.54.11 1.2.31 1.59.15 5.65-2.23 9.06.18 12.6 2.41.78.5 1.83.97 2.91.93 5.5-.16 5.93 2.34 6.58 4.84 1.69 6.54 8.37 9.08 18.18 6.94 5.35-1.59 11.23-2.1 16.8-3.21 2.45-.5 5.24-.91 5.87-2.76.63-1.83-1.91-2.56-3.8-3.47-1.76-.85-3.24-1.89-4.26-3.16-1.59-1.45-3.63-2.63-5.76-3.75-5.95-3.15-11.64-6.46-15.36-10.9-1.3-1.56-3.26-2.82-5.5-3.88-5.13-3.22-11.38-5.64-15.45-8.64 4.19 2.84 9.87 5.57 15.49 8.36.78.14 1.57.14 2.35.01 5.06-2.4 5.35-3.23 1.33-5.96-2.04-1.38-2.82-2.63-1.13-4.28.33-2.16 2.83-3.45 4.93-4.85 3.78-2.51 7.3-5.17 10.34-8.05.85-.77 3.34-1.91.04-2.81z"/><path class="fil4" d="M479.13 270.77c-1.87-1.16-3.72-2.32-5.6-3.48-2.78-.59-5.59-.84-7.19 1.13-1.41 1.73.78 2.8 2.45 3.88.91.58 1.87 1.12 2.71 1.75.78.59 2.54 1.01 1.96 1.9-.57.89-2.28.39-3.46.45-5.69.28-6.54 1.04-5.24 4.63.24.65 1.19 1.37.24 1.96-1.26.78-2.37.04-3.35-.44-1.89-.89-4.52-1.11-5.71-2.62-1.85.2-3.63.59-1.85 1.99 4.37 3.45 8.69 6.95 13.53 10.13 2.61 1.71 17.12.42 19.01-1.59 1.48-1.58 3.08-.74 4.71-.7 5.1.14 6.78-1.4 4.61-4.34-4.15-5.55-11.1-9.82-16.8-14.65z"/><path class="fil12" d="M666.04 372.23c7.84 2.28 14.36 5.78 21.01 9.17 5.37.32 16.6 5.69 17.69 8.45 2.67-.84 4.04-3.13 7.74-2.82 3.67 2.36 11.99 10.85 17.22 11.22.74.24 1.46.46 2.21.7 3.32-3.52 6.63-7.05 9.97-10.56.41-1.85-6.09-9.26-7.73-10.03-14.93-7.02-29.96-13.98-43.89-21.82-.81-.46-1.67-.91-2.54-1.85 1.85.14 2.74.8 3.72 1.32 14.32 7.54 29.24 14.57 44.24 21.55 1.61.76 5.68 3.66 7.94 3.09 3.72-3.68 5.03-9.43 8.79-13.1 1-.98 1.95-1.96 2.06-3.16.46-2.09-2.22-2.83-4.17-3.76-18.25-8.74-36.87-17.14-57.16-23.9-1.15-.38-2.02-1.03-3.3-1.26-2-.26-4.19-.64-5.32.87-1.19 1.57.5 2.67 2.11 3.65 2.93 1.81 6.58 2.99 9.73 4.59.43.22 1.02.53.91.83-.28.65-1.17.35-1.82.27a25.15 25.15 0 0 1-6.52-1.83c-7.11-3.08-13.6-6.76-21.75-8.82-1.02-.26-1.57-.97-2.26-1.51-3.93-2.34-7.56-4.94-12.99-5.95-1.59-.24-3-.78-4.54-1.07-4.43-.84-6.24-.02-7.17 3.15 2.28 5.02 9.1 7.87 13.99 11.59 5.08 3.87 9.99 7.82 15.01 11.73 2.89 3.94 8.34 6.29 13.49 8.82 11.28 6.01 23.96 10.82 35.35 16.73 2.11 1.1 4.63 1.89 6.5 4.4-12.01-5.62-23.72-10.13-33.09-16.46-2.85-1.92-5.76-3.1-9.62-3.63-6.78-2.34-13.8-4.37-20.33-7-18.23-8.49-36.22-17.15-53.8-26.18-5.84-2.99-13.52-4.01-19.53-6.94-1.56-.75-3.56-1.19-5.15-1.99-8.06-3.99-15.04-8.75-22.81-12.92-1.83-.98-3.48-3.04-6.69-1.18-.8 2.58 2.04 4.11 4.28 5.74 4.84 3.53 11.1 6.09 16.01 9.57 1.09.78 2.37 1.46 3.3 2.34.41.38 1 .8.43 1.25-.5.4-1.33.28-2.02.14-1.95-.39-3.59-1.16-5.28-1.85-4.93-2.03-9.36-4.5-14.04-6.73-1.89-.9-3.69-1.97-6.32-1.86-4.56 1.19-7.95-.25-11.27-1.97-5.8-3.01-11.67-5.97-17.51-8.96-.7-.35-1.54-1.02-2.3-.6-1.24.68.09 1.26.78 1.69 3.8 2.36 7.65 4.67 11.49 7.01 19.95 11.49 42.22 21.04 64.44 30.6 14.43 6.21 29.29 12.01 43.97 18 7.69 4.86 16.58 8.58 26.53 11.27z"/><path class="fil60" d="M549.91 315.18c7.21 4.12 14.92 7.81 23.05 11.16.91.38 1.98.6 3.02.8 1.52.28 3.22.96 4.35-.35.91-1.05.5-2.09-.78-2.88-4.3-2.69-8.58-5.42-13.04-7.99-4.72-2.73-9.97-5.15-12.21-9.19-.46-1.27-1.69-2.24-2.87-3.28-.69-.6-3.63-.66-1.61-2.28 1.32-1.06 2.08-2.08 4.56-1.24.94.32 2.15.18 2.95-.47 2.37-2.41.17-4.59-.8-6.83-5.13-4.31-8.73-9.21-13.01-13.84-.52-.57-1.56-1.64-.57-1.85 3.63-.79 3.28-2.12.91-3.13-3.5-1.49-4.28-5.75-11.01-4.14-3.82.91-6.73-1.36-9.97-2.31-.94-.28-2.04-1.1-2.85-.38-.74.66.76 1.16 1.46 1.63 2.22 1.52 5.98 3.8 3.95 5.1-2.39 1.52-5.78-1.1-8.17-2.32-5.56-2.87-10.73-6.03-16.06-9.07-4.39 1.63-8.8 1.18-13.21.02-4.08-1.63-8.15-3.26-12.23-4.89-1.7-.39-3.19-1-4.52-1.79-1.33-.79-2.54-.74-3.35.4 7.04 4.7 14.06 9.38 21.1 14.08 2.76 1.88 5.61 3.65 8.65 5.36 13.1 7.39 24.98 15.62 36.22 24.11 5.11 3.86 9.08 8.43 15.14 11.87 2.02 1.1 2.26 2.31.91 3.72z"/><path d="M370.69 199.69c.22-.39.22-1.13 1.3-.59 4.02 2.04 8.73 3.42 12.93 5.25 3.11 1.35 5.1 2.41 6.56-.78.19-.39 1.52-.56 2.33-.83-7.64-2.17-15.44-4.44-23.11-6.59-.79-.22-1.57-.43-2.36-.5.18 1.49 1 2.78 2.35 4.04z" style="fill:#4c8f7d;fill-rule:nonzero"/><path d="M622.89 252.47c-2.35 4.07-7.37 6.87-11.78 9.95-2.35 1.64-4.95 3.12-4.8 5.59 6.82.85 9.21-2.78 12.84-5.16.37-.24.48-.63.78-.92-.11.24-.39.45-.41.68-.19 2.82 2.04 3.98 6.5 3.28 4.47-.7 7.63-2.66 10.71-4.67.39-.25.76-.5 1.13-.77 0 .31-.41.46-.63.67-3.89 3.67-1.93 6.57 2.91 9.12 2.33 1.13 4.91 1.96 7.58.68 2.91-1.38 1.65-3.15.28-4.74-1.04-1.19-.43-2.07 1.08-2.73 4.67-2.02 5.97-4.91 7.04-8.32.98-3.16 2.91-6.22 3.28-9.52.17-1.4 1.99-3.97-.75-3.76-4.35.15-9.77 1.76-13.11 3.51-6.71 3.52-15.01 4.85-22.64 7.09z" style="fill:#559e89;fill-rule:nonzero"/><path d="M742.35 286.28c-31.06-12.89-53.11-28.1-80.56-43.15-1.95-1.47-3.35 3.17-2.45 5.24.24.33.61.6 1.09.81 7.19.48 8.97 4.84 13.12 7.51 3.43 2.44 6.26 5.18 9.47 7.72 1.07.85 2.69 2.37 4.35 1.16 2.74-1.99 4.04-.51 5.58.51 6 3.94 12.51 7.58 18.51 11.53 1.54 1.01 2.98 2.09 5.32 2.36 5.63.31 10.08 2.27 14.69 4.12 3.35 1.35 6 3.88 10.89 3.09.35-.31.35-.6-.02-.9z" style="fill:#509b80;fill-rule:nonzero"/><path d="M742.35 286.28c.02.24.04.47.04.72-.02 1.63 1.83 2.48 3.5 3.36 15.43 8.26 31.05 16.39 47.3 24 2.28 1.06 4.43 2.61 7.84 1.78.41-.24.7-.52.89-.85.44-1.32-.61-2.27-2-3.08-12.69-7.41-23.72-16.03-38.67-21.83-3.76-1.46-7.41-3.02-11.47-4.14-1.06.01-2.09-.34-3.17-.05-1.43.02-2.85.05-4.26.08z" style="fill:#3b7873;fill-rule:nonzero"/><path d="M660.59 248.95c-.54-2.02.87-3.88 1.22-5.83-1.27-.84-2.65-2.01-4.74-.6 1.93 1.55.07 3.15.2 4.71.33 4.12-4.76 7.36-4.24 11.62.24 2.03-3.85 2.93-6.43 3.98-2.48 1.03-3.39 2.04-1.17 3.65 1.35.98 4.11 1.95 2.09 3.47-2.37 1.79-4.58-.13-6.82-.61-4.87 1.5-2.56 3.23-.41 4.97 1.91.88 4.32.72 6.41 1.25.59.01 1.17-.07 1.72-.21 3.17-1.27 4.15-3.5 5.76-5.44 4.22-5.13 6.06-10.76 7.97-16.36.52-1.63.52-3.28-1.58-4.59z" style="fill:#3b7e77;fill-rule:nonzero"/><path d="M431.51 213.76c-4.35-1.22-8.73-2.42-13.08-3.63 2.48 4.57 9.76 4.71 15.17 6.38 14.38 4.46 29.24 8.33 44.65 11.12 6.67 1.2 13.21 2.7 19.97 3.67-18.63-7.14-45.47-10.45-66.72-17.54z" style="fill:#488977;fill-rule:nonzero"/><path d="M545.5 251.69c1.85-1.07 3.46-.25 4.98.34 2.83 1.09 5.3 2.47 7.73 3.92 10.71 6.44 13.77 6.55 26.85 2.67 7.49-2.22 16.93-5.93 26.07-5.75-2.15-.08-7.2-.74-9.43-.48-9.13.79-16.8 3.97-24.92 6.37-3.41 1.02-5.8 1.06-8.93-.39-7.86-3.66-15.54-7.51-24.57-10.02-1.3 1.66-1.28 2.97 2.22 3.34z" style="fill:#4b8673;fill-rule:nonzero"/><path d="M545.5 251.69c-1.52-.91-1.72-2.17-2.22-3.35-4.28-1.99-9.24-2.45-14.32-2.51 4.26 4.82 12.49 6.75 18.49 10.29 1.74 1.03 3.82 1.81 5.74 2.7 1.89 0 1.83-.63 1.15-1.44-2.89-1.92-6.54-3.38-8.84-5.69z" style="fill:#306962;fill-rule:nonzero"/><path d="M746.6 286.18c.8.26 1.59.53 2.41.79 3.11-.02 6.15-.26 9.08-1 2.07-.52 4.21-.86 6.43-.39 2.72.59 5.21.4 6.82-1.22 1.98-1.99 5.84-.11 7.89-1.71-5.35-2.94-6.57-2.61-13.6-1.96-7.41.97-15.09 3.35-19.03 5.49z" style="fill:#58997c;fill-rule:nonzero"/><path class="fil9" d="M765.59 354.64c.87-.98 1.91-1.82 3.8-2.03 5.11-1.99 7.13-5.71 11.28-8.26 1.37-.84 2.61-1.92 3.63-3.03 2.04-3.81 6.35-7 7.56-11.05-2.87-2.18-6.84-2.83-11.56-1.51-2.82.79-5.08 1.25-8.1.13-2.98-1.11-6.04-.72-7.67 1.6-.67 2.51-3.07 2.17-5.65 1.36-4.82-1.53-8.71-3.86-12.56-6.18-6.78-2.04-12.77-4.82-18.4-7.97-2.95-1.65-6.02-3.41-10.36-3.58-1.46 0-2.89-.19-4.32-.37-10.75-1.36-14.86-.21-20.84 5.81-.67 1.82 1.54 2.41 3.43 2.55 9.8.76 17.1 4.69 25.09 7.74 1.57.6 3.09 1.31 4.85 1.65 2.5.48 3.61 1.06 2.3 2.94-1.08 1.53.76 2.89 2.37 4.06 4.04 2.93 8.78 5.32 13.69 7.61 5.19 2.42 10.49 4.74 15.53 7.32 1.65.84 3.41 1.88 5.93 1.2z"/><path d="M765.59 354.64c-11.14-5.7-23.73-10.23-33.7-16.9-2.48-1.66-4.95-3.29.46-4.65.65-.17 1.56-.42 1.09-.98-.28-.33-1.09-.63-1.74-.68-5.34-.47-9.58-2.37-13.69-4.32-7.63-3.61-16.32-5.59-25.4-7.02-.3-1.34-2-1.92-3.56-2.53-9.62-3.73-18.42-8.2-27.4-12.5-5.24-2.5-11.39-3.8-16.71-6.11-10.52-6.42-21.25-12.71-31.05-19.6-1.65-1.16-3.37-2.67-6.48-1.53l-2.15-.06c-1.87.02-1.91.64-1.17 1.49 7.26 7.05 15.8 13.35 26.49 18.39 9.15 5.9 19.31 11.02 29.98 15.75 6.76 3 13.25 6.28 20.36 8.96 11.02 3.33 21.07 7.61 30.59 12.44 1.39.41 2.67.94 3.72 1.66 13.25 5.99 24.53 13.37 35.8 20.75 2.26 1.48 4.48 3.67 8.78 2.34l.48-.04.48.04c.89-.27 1.98-.44 1.54-1.32 1.48-1.04 5.97-.97 3.28-3.56z" style="fill:#275057;fill-rule:nonzero"/><path d="M759.81 359.55c-7.75-1.7-12.06-6.04-17.23-9.55-8.08-5.49-17.12-10.15-26.75-14.4-4.87 4.5-4.8 4.41-12.75 1.46-4.21-1.57-8.58-3.32-13.84-1.69-.32.32-.32.63.04.93 21.97 8.1 43.13 16.98 63.25 26.85.72.35 1.3.8 1.95 1.22 1.78-1.62 3.56-3.22 5.34-4.83z" style="fill:#2f6c6b;fill-rule:nonzero"/><path class="fil72" d="M744.99 381.16c-16.92-7.85-37.73-18.15-53.57-26.88-.83-.46-1.76-.85-2.7-1.19-1.35-.48-2.85-.78-4.02.12-1.33 1.04.06 1.77 1.11 2.36 5.52 3.08 10.91 6.29 16.73 9.12 11.65 5.68 26.48 14.76 38.28 20.32 1.91-.56 3.32-2.8 4.17-3.85z"/><path class="fil2" d="M725.75 391.26c-3.65-2.41-8.52-3.25-13.27-4.22 1.26 3.03 2.33 6.1 3.85 9.07.78 1.52-.8 2.07-1.89 2.96-1.06.87-1.57 2.25-.06 2.81 1.59.58 2.74-.93 2.87-1.59.8-3.85 8.26-5.06 8.49-9.03z"/><path class="fil3" d="M666.04 372.23c-8.15-4.43-17.23-7.97-26.55-11.27 1.33 3.26-1.2 4.04-5.56 3.35-3.37-.53-6.65-1.33-10.01-1.95-4.02-.73-7.91-1.64-12.34-.89-2.96.51-6.15.46-8.97-.88-3.56-1.69-7.84-.86-11.8-1.05 9.76 6.96 22.9 10.11 36.59 11.54 5.91.61 11.17 1.01 16.56 2.95 6.11 2.18 13.25.79 19.95.33 1.89-.13 2.11-1.14 2.11-2.14z"/><path d="M556.56 292.61c-1.39 2.35.69 4.7 0 7.05.7 2.83 4.48 4.12 7.36 5.83 2.54 1.51 5.6 2.63 8.15 4.14 1.61.94 3.8 1.97 3.58 3.39-.59 3.75 3.02 6.03 6.34 8.5 6.47 2.08 11.38 5.75 19.01 6.74 4.85.63 7.89 3.66 11.78 5.57 15.77 7.78 31.44 15.61 47.75 22.92.74.38 1.72.38 2.54.65 2.48.81 4.93 1.06 7.08-.35 2.13-1.4 1.65-2.97.35-4.52-3.43-3.82-8.1-7.06-12.52-10.4-5.39-4.06-11.64-7.65-16.29-12.12-2.72-4.14-7.73-7.14-14.06-8.41-13.69-2.76-23.46-8.99-34.13-14.48-2.87-1.47-4.93-3.86-9.32-3.88-2.5 2.89-5.32 3.09-9.73 1.17-7.26-3.21-12.34-7.61-17.88-11.78z" style="fill:#336e6c;fill-rule:nonzero"/><path d="M607.4 277.82c.98.28 2.28.4 2.89.87 4.17 3.27 9.99 5.65 13.73 8.95 5.56 4.89 13.99 7.56 19.86 12.05 4.04-3.89 10.08-6.87 12.8-11.36.11-.2-.09-.45-.26-.66-1.15-.86-2.93-.8-4.39-1.22-4.54-1.26-5.72-3-4.11-6 1.02-1.88 2.02-3.76-.7-5.45h-1.11c-1.11-.07-2.06.25-3.04.5-.7.18-1.54.87-2.15.31-.33-.31.78-.94.74-1.53-1.57-1.55-3.58-3.06-1-4.94-4.65-2.79-5.37-5.62-.59-8.73 1.19-.77 2.65-2.29 1-3.08-1.37-.66-2.52.96-3.67 1.6-3.3 1.84-5.87 4.22-10.12 5.33-2.04.53-4.35 1.37-6.04-.01-1.35-1.12-.46-2.44 1-3.5.54-.39 1.57-.71.98-1.44-.72.28-1.52.51-2.15.86-4.78 2.67-8.34 6.29-14.79 7.64-4.52 1.7-2.72 3.36.35 4.71 3.69 1.63 4.08 3.21.76 5.12z" style="fill:#387870;fill-rule:nonzero"/><path d="M681.54 321.47c-16.99-7.94-33.98-15.88-50.97-23.83-.02 2.42 3.65 2.82 5.65 4.13.87.57 2.48.85 2.37 1.75-.15 1.11-1.93 1.3-3.24 1.57-6.34 1.32-13.21 1.51-19.1 3.73 1.48 2.95 6.04 5.58 10.15 5.07 3.08-.38 3.72.54 4.91 1.75 4.52 4.6 10.19 8.52 17.49 11.41 5.21 1.43 9.95.06 13.88-1.68 4-1.78 6.76-1.36 10.06.37 1.96 1.03 4.37 1.68 6.87 2.05 2.17.32 4.35.5 6.04-.79 2.17-2.89-1.37-4.08-4.11-5.53z" style="fill:#459183;fill-rule:nonzero"/><path d="M649.44 326.47c-6.93-3.99-14.14-7.81-18.25-13.37-.61-.83-1.33-2.82-3.46-.6-1.41 1.47-2.98.52-4.17 0-2.54-1.12-4.87-2.43-7.3-3.67-2.89-.94-4.69 2.43-8.26.61-3.85-1.97-7.63-3.55-7.37-7.23.09-1.44-1.11-2.93-1.87-4.35-.35-.66-1.28-1.63-2.22-1.32-5.78 1.89-7.54-1.55-10.64-3.14-2.28-1.17-3.96-2.87-6.93-.22-2.3 2.05-4.43-.28-6.56-.85-.82-.21-2.15-.83-2.28-.72-1.02.76.35 1.27.93 1.7 2.26 1.7 4.72 3.28 7.1 4.9 2.26 1.53 4.76 2.95 6.02 4.98 9.84 6.12 20.36 11.73 31.7 16.68 1.89.83 4.39 1.14 6.69 1.52 8.1 1.33 13.15 5.36 19.12 8.59-.26-2.93 2.06-3.22 5.76-2.43 1.41.31 2.28 1.62 4.21.96.52-1.2-1-1.53-2.21-2.02z" style="fill:#2a585c;fill-rule:nonzero"/><path d="M467.9 256.03c1.8-.66 3.04-.08 4.15.76 1.02.76 2.17 1.18 3.72.63-10.13-5.85-20.25-11.73-30.42-17.56-1.02-.59-2.8-1.63-3.63-.98-.98.77 1.2 1.42 2.11 2.03 6.36 4.34 12.78 8.65 19.25 12.93 1.37.92 2.59 2.02 4.82 2.2z" style="fill:#36766f;fill-rule:nonzero"/><path d="M541.53 265.7c.7.5 1.33.92 1.93 1.36 4.19 3.12 8.28 6.27 12.58 9.31 1.57 1.12 3.45 2.12 5.43 2.95 1.45.61 3.84 1.5 4.89.76.85-.6-1.61-1.56-2.69-2.29-5.09-3.5-10.25-6.99-15.4-10.46-1.39-.93-2.67-1.96-4.84-2.22-.93-.11-1.74-.26-1.91.59z" style="fill:#36776f;fill-rule:nonzero"/><path d="M554.35 257.38c-.39.48-.76.97-1.15 1.44 7.82 4.52 14.71 9.75 24.51 12.7.59.18 1.32.18 1.98.26-.19-.27-.28-.61-.59-.79-7.56-4.39-15.12-8.78-22.73-13.13-.48-.28-1.33-.32-2.02-.47z" style="fill:#38746e;fill-rule:nonzero"/><path d="M488.02 262.3c6 3.78 9.71 3.78 13.21-.02-2.91-2.74-5.91-4.81-10.39-.96-.57.51-1.87.66-2.82.98z" style="fill:#44897e;fill-rule:nonzero"/><path d="M604.08 279.26c.39-.5.78-.99 1.17-1.49-5.41-3.99-13.06-6.4-18.25-10.56-.59-.47-1.95-.87-2.87-.19-.19.14.69.99 1.28 1.38 5.84 3.89 12.01 7.54 18.68 10.86z" style="fill:#36776c;fill-rule:nonzero"/><path d="m649.44 326.47 2.22 2.04c4.97 1.11 8.04 3.85 12.17 5.68 2.43.79 5.04 1.33 7.32 2.3 2.04.87 4.5 1.07 6.13.04 3.76-2.38 7.82-1.53 11.99-.93 5.63.21 10.75 1.18 15.21 3.56 2.28 1.22 4.67 2.71 8.37 1.62 3.87-1.16 2.74-3.28 2.96-5.18-.69-.87-1.78-1.36-3.3-1.44-3.08 1.03-5.58.12-8.1-.94-5.02-2.12-9.58-4.6-13.99-7.21-3.19-1.88-4.19-1.57-5.61 1.14-6.06.02-10.78-1.85-15.04-4.33-1.76-1.03-2.85-1.3-4.87.04-4.15 2.7-9.43 3.93-15.47 3.62z" style="fill:#35706e;fill-rule:nonzero"/><path d="M581.96 321.52c-2.26-2.83-5.37-5.38-4.09-9.04.52-1.46-2.58-2.73-4.5-3.79-5.56-3.04-11.21-6.02-16.82-9.02-1.58-.58-3.06-1.27-4.72-1.71-1.52-.4-4.15-1.26-2.46 1.22.46.67.63 1.64-.89 1.55-6.45-.41-1.59 1.48-.89 1.98 2.06 1.45 4.45 2.7 6.73 4.02 6.13 1.64 9.78 5.23 14.75 7.79 4.37 2.24 8.5 4.74 12.91 7z" style="fill:#295c60;fill-rule:nonzero"/><path class="fil72" d="M681.53 363.79c8.39.81 10.99 6.29 17.42 8.82 7.78 3.04 14.82 6.87 22.2 10.34.74.34 1.54.65 2.39.86 1.37.37 2.95.76 3.93-.29.83-.87-.37-1.51-1.19-2.14-4.17-3.19-10.02-5.06-14.93-7.67-8.74-4.63-18.94-8.01-27.59-12.73-1.95.55-3.11 1.36-2.22 2.82z"/><path class="fil60" d="M689.27 335.61c-1.52-.64-3.15-1.22-4.56-1.94-2.21-1.12-4.08-.92-5.65.45-2.85 2.47-5.93 2.95-9.54.63-1.63-1.05-3.67-.84-5.67-.54 5.43 3.5 13.12 4.9 18.79 8.18 4.26 2.47 9.08 4.3 14.84 4.96 1.26.14 2.63.46 3.43-.44.8-.9-.2-1.63-1.19-2.11-4.04-1.97-8.21-3.84-12.25-5.82-1.07-.53-2.69-1.16-2.04-2.24.8-1.32 2.54-.31 3.84-.4v-.72z"/><path d="M681.53 363.79c.72-.94 2.22-1.64 2.21-2.82-4.45-2.81-10.28-4.73-13.25-8.47-.3 4.7-1.3 5.12-9.97 4.24 6.82 2.56 13.58 5.2 21.01 7.06z" style="fill:#2e6265;fill-rule:nonzero"/><path d="M801.27 315.26c3.28-2.68 6.35-5.44 8.54-8.57.61-1.75-.82-2.95-2.67-4.05-7.41-2.74-11.67-7.73-18.77-10.69-.63-.26-1.11-.66-1.65-1.01.65.41 1.24.87 1.98 1.2 4.17 1.89 7.26 4.65 12.06 6.02 1.95.29 3.82.14 4.61-1.13.91-1.44-1.56-1.59-2.63-2.22-2.78-1.64-6.24-2.8-8.5-4.83-4.65-2.74-8.54-6.1-15.01-7.33-4.04-.73-8.32-2.07-10.38 1.84-.39.75-1.45.58-2.28.31-6.74-2.18-11.91.77-17.56 2.17 20.12 6.51 34.78 17.24 51.01 26.77.61.36.83 1 1.24 1.52z" style="fill:#4ea18a;fill-rule:nonzero"/><path d="M794.25 289.99c1.02 2.84 5.48 3.52 8.17 5.32.69.46 2.26.65 1.89 1.46-.44.97-2.02.7-3.22.77-.15 2.63 3.54 3.76 5.41 5.61 1.11 1.18 2.22 2.36 3.34 3.54 1.82-1.31 3.43-2.77 6.19-3.36 2.15-.46 2.61-1.51 2.41-2.8-.2-1.88-2.93-1.57-4.61-2.16-6.54-2.8-13.04-5.58-19.57-8.38z" style="fill:#57ac8c;fill-rule:nonzero"/><path class="fil87" d="M647.25 275.02c-.15 2.16.54 4.37-2.32 6.22-1.95 1.26-.37 2.68 1 3.74 2.58 2.02 5.37 3.94 10.15 2.73 1.32.96 2.3 2.1 4.41 2.54 3.63.74 5.91-.35 5.17-2.74-.33-1.09-1.28-1.69 1.54-1.76 2.78-.07 6.97.61 9.26 2.09 1.93 1.24 3.84 2.61 7.08 2.09 2.91-2.57-1.87-3.61-2.37-5.03 6.26 5.55 16.01 9.29 24.46 13.93 5.43 2.99 11.36 5.61 17.27 8.21 1.2.53 2.39 1.11 3.8 1.44 1.82.41 3.72.66 4.98-.53 1.2-1.14.56-2.3-.81-3.2-3.34-2.19-6.69-4.37-10.25-6.42-7.86-4.57-16.73-8.44-23.57-13.44 6.47-.04 10.26 2.7 14.04 5.7 11.41 9.08 23.79 17.6 37.68 25.18 1.69.92 3.43 1.79 5.54 2.29 3.54.4 7.06.76 8.5-2.18.87-1.78 1.96-.14 2.46.08 4.24 1.82 8.15 3.95 12.58 5.61 2.87 1.04 5.45 2.34 8 3.63 1.63.61 2.56 2.5 5.24 1.16 1.3-4.18 4.35-7.71 9.5-10.47-10.88-3.89-20.05-9.26-29.88-14.06-9.71-4.72-18.92-9.87-28.33-14.82-7.28-1.88-12.51-5.92-20.03-7.64-2.09-.47-3.69-.78-5.59-.08-1.76 1.75.74 2.76 1.83 4.2-4.82-4.34-9.84-8.37-16.47-11.39-5.61-2.56-7.17-2.49-12.32.39-2.09 1.17-3.74 1.22-5.67.01-1.32-.81-2.61-1.64-3.84-2.5-.98-.7-1.78-1.49-2.87-2.12.98.43 1.87.94 2.98 1.25 1.15.32 2.41.83 3.52.04.98-.7.63-1.56.19-2.32-1.65-2.89-4.52-5.32-7.32-7.78-1.07-.94-2.32-1.81-3.24-2.81-2.89-2.25-5.48-4.67-8.71-6.75-.94-.6-1.7-1.31-3.17-.54-.37.01-.74.01-1.09.02-1.09 9.36-5.24 18.1-13.36 26.03z"/><path class="fil24" d="M672.67 256.7c3.22 3.54 7.34 6.74 9.91 10.51.33.48 1.26 1.04.26 1.52-.2.11-1.2-.39-1.8-.66-1.33-.61-2.59-1.31-3.97-1.89-1.06-.45-1.96-1.92-3.41-.9-1.06.75.52 1.71 1.43 2.41 2.59 1.97 5.43 3.82 7.87 5.87 3.3 2.73 6.23 2.1 8.41-.42 2.32-2.67 4.82-2.11 8.04-.9 8.02 3.03 12.93 7.88 18.4 12.44.98.81 2 2.38 3.46 1.83 1.89-.72-.17-2.03-.59-3.07-.65-1.62-3.48-2.44-3.91-4.18-8.24-5.15-16.42-10.34-24.77-15.41-1.5-.91-4.41-4.17-5.08.55-.22 1.57-1.45.14-1.85-.18-3.45-2.71-6.84-5.48-10.23-8.21-1.17-.34-1.8.02-2.19.68z"/><path d="M672.67 256.7c.72-.22 1.45-.45 2.17-.67-3.26-2.44-6.48-4.92-9.84-7.3-1.02-.73-2.54-1.79-3.34.22 5.02 1.81 7.1 5.31 11.01 7.75z" style="fill:#69b79a;fill-rule:nonzero"/><path d="M641.69 274.29c-1.61.81-4.32.73-4.85 2.35-.09.25.72.81 1.28.93 2.54.57 4.52-.26 6.36-1.23.67-.35 1.11-.88 1.67-1.33-.74-2.06-2.71-1.12-4.45-.72z" style="fill:#4b8e80;fill-rule:nonzero"/><path d="M683.75 289.82c-4.74-1.22-7.43-3.74-9.97-6.35-.82-.83-1.32-2.32-2.8-.19-1.04 1.48-3.35 1.92-5.65 1.48-3.76-.73-3.1.44-2.24 1.84.56.9 2.71 1.82.89 2.75-1.76.91-3.34-.35-4.91-.84-.96-.31-2-.53-3-.79-3.61 1.86-4.39 5.17-9.21 6.63-2.56.78-2.33 3.45-2.98 5.35.57.45 1 1.16 1.74 1.32 14.84 3.33 25.31 10.92 38.39 15.96 2.82 1.09 5.71 2.09 8.56 3.14 1.37-.07 2.5-.45 3.13-1.24 3.87-4.83 10.36-4.82 17.42-3.93 1.59.2 3.28.15 4.93.21-.33-2.24-4.15-2.19-5.82-3.59-1.19-.99-2.98-1.63-4.09-2.68-2.98-2.22-5.63-4.58-7.6-7.23-3.59-4.89-10.47-7.97-16.05-11.75-.22-.05-.48-.06-.74-.08z" style="fill:#326d6a;fill-rule:nonzero"/><path d="M754.54 317.26c-17.86-8.84-32.48-19.7-46.54-30.86-3.85-3.07-9.73-1.91-14.16-3.53-.26-.09-.89.22-1.35.34.46.48.8 1.04 1.39 1.44 5.61 3.89 11.97 7.28 18.29 10.7 5.74 3.1 11.32 6.35 16.9 9.58 1.15.67 2.95 1.56 1.52 2.64-1.41 1.07-3.17.11-4.39-.47-15.95-7.52-32.31-14.7-45.97-23.99-.65-.45-1.46-1.5-2.39-.92-.8.48.85 1.09 1.41 1.63 1.95 1.86 3.71 3.78 4.5 6l-.04-.02c9.43 5.63 19.32 10.92 29.22 16.2 11.99 6.51 24.7 12.45 37.22 18.53 3.93 2.1 8.5 3.71 12.01 6.16.85.59 1.94 1.12 3.41.68.74-2.24 3.11-2.69 5.63-1.5 3.35 1.58 5.93 1.22 9.43.05 3.24-1.07 7.37-1.65 10.41.79 1.5-1.45 1.76-2.91.06-4.38-2.43.14-2.61-1.69-4.46-2.05-.56-.17-1.11-.11-1.45.18-3.78 3.29-5.82 3.69-11.54 1.81-4.32-1.43-8.99-2.62-11.97-5.3-1.57-1.85-4.39-2.75-7.13-3.71z" style="fill:#306666;fill-rule:nonzero"/><path d="M751.12 323.64c-11.39-6.1-24.05-11.2-35-17.68-.63-.38-1.63-.51-2.45-.74-2.93 1-5 2.55-6.73 4.31 2.82 2.6 6.28 4.66 11.12 5.61 4.45.91 7.87 2.88 11.12 4.83 4.85 2.91 10.17 5.17 16.49 6.47 3.35.3 6.36.31 5.45-2.78z" style="fill:#439086;fill-rule:nonzero"/><path d="M751.12 323.64c-.52 1.96-3.54 1.94-5.45 2.8 3.85 3.42 9.02 5.81 15.14 7.26 3.85.91 5.17.13 4.76-2.34-3.91-3.25-9.3-5.38-14.45-7.72z" style="fill:#31716d;fill-rule:nonzero"/><path d="M684.81 327.14c1.32-1.81 2.71-1.64 4.65-.26 5.17 3.71 11.34 6.66 18.27 8.85 1.74.55 5.82 2.12 4.78-1.58-8.99-5.53-19.68-9.41-30.96-12.67 2.08 1.65 4.06 3.33 3.26 5.66z" style="fill:#3a7a74;fill-rule:nonzero"/><path d="M806.48 303.15c.19-2.64-2.72-4.08-5.41-5.61-5.39-3.3-12.15-5.57-17.29-9.09-.33-.24-1.02-.5-1.41-.42-.78.13-.41.58-.06.78 7.74 4.41 13.86 9.87 22.07 13.98.52.26 1.39.24 2.09.35z" style="fill:#7ac2a7;fill-rule:nonzero"/><path d="M754.54 317.26c1.83 1.42 3.67 2.83 5.5 4.25 4.8 1.77 10.6 1.84 15.4 3.68 1.33.51 2.87.14 4-.6 2.13-1.4.22-2.58-.56-3.81-5.67-2.54-11.34-5.09-17.03-7.61-.54-.25-1.08-.72-1.85-.3-.13.07.02.43.17.6 3.69 4.63-1.83 3.68-5.63 3.79z" style="fill:#3e8176;fill-rule:nonzero"/><path d="M778.91 320.77c-1.46 1.06 1.89 2.47-.57 3.45-2.78 1.11-3.67-.91-5.48-1.39-4.09-1.09-8.37-1.48-12.78-1.32 4.34 3.68 10.6 5.59 17.1 6.93 5.19 1.07 9.39.06 9.49-4.15-2.04-1.65-5-2.48-7.74-3.51z" style="fill:#36766e;fill-rule:nonzero"/><path class="fil87" d="M706.95 309.54c3.91-.38 5.72-2.09 6.72-4.31-9.56-5.48-18.53-11.42-29.96-15.44 8.74 6.1 15.55 13.13 23.23 19.74z"/></g><path class="fil5" d="M4.59 567.35c-1.52-1.46-3.05-2.93-4.59-4.4v4.4h4.59z"/><path class="fil2" d="M741.83 448.07c1.54-1.23 2.11-2.67 2.24-4.19 2.17-6.48-3.22-11.08-13.62-11.58-4.8-.22-9.52-.67-13.9-2.05-2-.64-4.15-1.09-6.37-1.04-5.26.11-10.06-.87-15.01-1.94-6.95-1.49-13.8.21-20.49 1.35-3.19.54-6.34 1.17-9.6 1.57-4.15.51-8.1-.06-10.73-1.94-7.99-5.7-18.99-6.3-29.61-7.53-5.21-.6-10.41-.66-15.82.33-7.93 1.45-17.23-1.18-20.92-5.51-2.2-2.6-5.61-4.65-8.63-6.86-3.82-2.79-5.41-6.38-8.97-9.22-8.97-7.02-23.42-10.29-30.87-18.41-1.09-1.19-3.72-1.83-5.63-2.73 2.76 4.63 8.13 8.26 11.71 12.58 2.2 2.67 4.72 5.24 7.1 7.85 5.98 5.36 10.15 11.4 15.58 16.97 3.85 3.95 7.32 8.4 14.49 10.23 13.01 3.32 26.36 4.73 39.91.93 1.13-.32 2.72-.77 3.65-.5 6.5 1.9 14.04 1.94 20.1 4.64 9.28 4.15 19.69 5.42 30.83 4.58 3.08-.22 5.61 1.26 8.56 1.12 5.37-.25 10.62 1.42 16.25-.3 2.82-.86 6 1.3 8.89 2.28 4.82 1.63 8.69 4.61 15.3 3.59 2.02-.32 4.3 1.09 6.1 2.16 1.56.93 2.37 2.27 5.71.8 2.67-1.19 2.93 1.52 3.74 2.8z"/><path class="fil2" d="M774.94 478.13c1.54-1.23 2.11-2.67 2.24-4.19 2.17-6.48-3.22-11.08-13.62-11.58-4.8-.22-9.52-.67-13.9-2.05-2-.64-4.15-1.09-6.37-1.04-5.26.11-10.06-.87-15.01-1.94-6.95-1.49-13.8.21-20.49 1.35-3.19.54-6.34 1.17-9.6 1.57-4.15.51-8.1-.06-10.73-1.94-7.99-5.7-18.99-6.3-29.61-7.53-5.21-.6-10.41-.66-15.82.33-7.93 1.45-17.23-1.18-20.92-5.51-2.2-2.6-5.61-4.65-8.63-6.86-3.82-2.78-5.41-6.38-8.97-9.22-8.97-7.02-23.42-10.29-30.87-18.41-1.09-1.19-3.72-1.83-5.63-2.73 2.76 4.63 8.13 8.26 11.71 12.58 2.21 2.67 4.72 5.24 7.1 7.85 5.98 5.36 10.15 11.4 15.58 16.97 3.85 3.95 7.32 8.4 14.49 10.23 13.01 3.32 26.36 4.73 39.91.93 1.13-.32 2.72-.77 3.65-.5 6.5 1.9 14.04 1.94 20.1 4.64 9.28 4.15 19.7 5.42 30.83 4.58 3.08-.22 5.61 1.26 8.56 1.12 5.37-.25 10.62 1.42 16.25-.3 2.82-.86 6 1.3 8.89 2.28 4.82 1.63 8.69 4.61 15.3 3.59 2.02-.32 4.3 1.09 6.1 2.16 1.56.93 2.37 2.27 5.71.8 2.67-1.19 2.93 1.52 3.74 2.8z"/><path class="fil10" d="M591.54 404.42c.11 1.13-.22 2.23 2.21 2.83 8.43 2.08 15.88 5.09 22.77 8.95 5.15 2.88 11.89 5.46 18.06 6.37 6.91 1.01 15.56 1.91 22.29.32 6.13-1.45 10.38-.7 15.32.74 2.19.64 4.41 1.24 6.86 1.2 8.67-.11 17.19.07 25.6 1.91 4.98 1.1 12.56-1.64 15.21-4.72.94-.83 1.39-1.85.28-2.56-4.45-2.87-9.3-5.44-15.45-6.73-.83-.18-1.78.09-2.59.38-1.11.46-1.69 1.22-2.45 1.86-3.06 2.56-6.47 3.28-11.04 1.88-6.3-1.92-12.91-3.39-19.18-5.33-5-1.55-10.02-2.24-15.45-1.25-4.21.77-8.08.28-11.39-1.48-15.9-8.46-35.44-12.59-53.66-18.33-1.61-.51-3.32-1.14-5.1-.17 2.93 3.2 4.8 6.74 8.1 9.84 1.28 1.24 1.37 2.9-.39 4.27zM676.36 472.14c.11 1.13-.22 2.23 2.21 2.83 8.43 2.08 15.88 5.09 22.77 8.95 5.15 2.88 11.9 5.46 18.06 6.37 6.91 1.01 15.56 1.91 22.29.32 6.13-1.45 10.38-.7 15.32.74 2.19.64 4.41 1.24 6.86 1.2 8.67-.11 17.19.07 25.6 1.91 4.98 1.1 12.56-1.64 15.21-4.72.94-.83 1.39-1.85.28-2.56-4.45-2.87-9.3-5.44-15.45-6.73-.83-.18-1.78.09-2.59.38-1.11.46-1.69 1.22-2.45 1.86-3.06 2.56-6.47 3.28-11.04 1.88-6.3-1.92-12.91-3.39-19.18-5.33-5-1.55-10.02-2.24-15.45-1.25-4.21.77-8.08.28-11.39-1.47-15.9-8.46-35.44-12.59-53.66-18.33-1.61-.51-3.32-1.14-5.09-.17 2.93 3.2 4.8 6.74 8.1 9.84 1.28 1.24 1.37 2.9-.39 4.27z"/></g></g></svg>