<svg xmlns="http://www.w3.org/2000/svg" xml:space="preserve" width="2001.131" height="882.304" style="shape-rendering:geometricPrecision;text-rendering:geometricPrecision;image-rendering:optimizeQuality;fill-rule:evenodd;clip-rule:evenodd" viewBox="0 0 1288.81 568.24"><defs><style>.fil0{fill:none}.fil5{fill:#629e82}.fil4{fill:#9baca0}.fil2{fill:#e3ebd2}.fil1{fill:#f2ebb7}.fil3{fill:#f2f8fd}.fil6{fill:#f4f4ca}.fil7{fill:#ffeaae}</style></defs><g id="Слой_x0020_1"><g id="_105553272842400"><path class="fil0" d="M1288.81 568.24H0V0h1288.81z"/><path class="fil1" d="M53.83 21c1.73 0 3.13.52 3.13 1.16 0 .64-1.4 1.16-3.13 1.16s-3.13-.52-3.13-1.16c0-.64 1.4-1.16 3.13-1.16z"/><path class="fil2" d="M66.93 352.27c1.89 0 3.42.72 3.42 1.61 0 .89-1.53 1.61-3.42 1.61s-3.42-.72-3.42-1.61c0-.89 1.53-1.61 3.42-1.61z"/><path class="fil3" d="M191.56 397c2.46 0 4.46.72 4.46 1.61 0 .89-2 1.61-4.46 1.61s-4.46-.72-4.46-1.61c0-.89 2-1.61 4.46-1.61zM168.66 298.11c2.46 0 4.46 1.08 4.46 2.41s-2 2.41-4.46 2.41-4.46-1.08-4.46-2.41 2-2.41 4.46-2.41zM135.75 240.69c1.96 0 3.55.72 3.55 1.61 0 .89-1.59 1.61-3.55 1.61-1.96 0-3.55-.72-3.55-1.61 0-.89 1.59-1.61 3.55-1.61zM235.19 270.85c1.46 0 2.65 1.08 2.65 2.41s-1.18 2.41-2.65 2.41c-1.46 0-2.65-1.08-2.65-2.41s1.18-2.41 2.65-2.41zM23.46 188.79c1.56 0 2.83.54 2.83 1.21 0 .67-1.27 1.21-2.83 1.21s-2.83-.54-2.83-1.21c0-.67 1.27-1.21 2.83-1.21z"/><path class="fil4" d="M53.05 192.02c1.15 0 2.09.54 2.09 1.21 0 .67-.94 1.21-2.09 1.21s-2.09-.54-2.09-1.21c0-.67.94-1.21 2.09-1.21z"/><path class="fil3" d="M144.9 218.11c1.96 0 3.55.4 3.55.89s-1.59.89-3.55.89c-1.96 0-3.55-.4-3.55-.89s1.59-.89 3.55-.89zM159.46 195.64c.82 0 1.48.62 1.48 1.38 0 .76-.66 1.38-1.48 1.38s-1.48-.62-1.48-1.38c0-.76.66-1.38 1.48-1.38zM157.63 168.14c1.45 0 2.62.86 2.62 1.91 0 1.06-1.17 1.91-2.62 1.91-1.45 0-2.62-.86-2.62-1.91 0-1.06 1.17-1.91 2.62-1.91z"/><path class="fil5" d="M280.98 140.92c1.91 0 3.47.86 3.47 1.91 0 1.06-1.55 1.91-3.47 1.91-1.91 0-3.47-.86-3.47-1.91 0-1.06 1.55-1.91 3.47-1.91z"/><g><path class="fil6" d="M504.37 88.71c1.89 0 3.42.72 3.42 1.61 0 .89-1.53 1.61-3.42 1.61s-3.42-.72-3.42-1.61c0-.89 1.53-1.61 3.42-1.61z"/><path class="fil7" d="M502.11 50.7c1.39 0 2.52.72 2.52 1.61 0 .89-1.13 1.61-2.52 1.61-1.39 0-2.52-.72-2.52-1.61 0-.89 1.13-1.61 2.52-1.61zM537.62 22.24c.93 0 1.68.72 1.68 1.61 0 .89-.75 1.61-1.68 1.61-.93 0-1.68-.72-1.68-1.61 0-.89.75-1.61 1.68-1.61z"/><path class="fil6" d="M604.36 41.17c1.37 0 2.48.72 2.48 1.61 0 .89-1.11 1.61-2.48 1.61-1.37 0-2.48-.72-2.48-1.61 0-.89 1.11-1.61 2.48-1.61zM587.48 102.23c1.37 0 2.48.72 2.48 1.61 0 .89-1.11 1.61-2.48 1.61-1.37 0-2.48-.72-2.48-1.61 0-.89 1.11-1.61 2.48-1.61zM622.66 75.3c1.39 0 2.52.72 2.52 1.61 0 .89-1.13 1.61-2.52 1.61-1.39 0-2.52-.72-2.52-1.61 0-.89 1.13-1.61 2.52-1.61zM668.48 30.48c.92 0 1.67.39 1.67.87s-.75.87-1.67.87c-.92 0-1.67-.39-1.67-.87s.75-.87 1.67-.87z"/><path class="fil1" d="M664.76.52c1.73 0 3.13.52 3.13 1.16 0 .64-1.4 1.16-3.13 1.16s-3.13-.52-3.13-1.16c0-.64 1.4-1.16 3.13-1.16zM743.65 21c1.73 0 3.13.52 3.13 1.16 0 .64-1.4 1.16-3.13 1.16s-3.13-.52-3.13-1.16c0-.64 1.4-1.16 3.13-1.16z"/><path class="fil2" d="M389.11 147.1c1.89 0 3.42.72 3.42 1.61 0 .89-1.53 1.61-3.42 1.61s-3.42-.72-3.42-1.61c0-.89 1.53-1.61 3.42-1.61zM340.21 168.96c1.89 0 3.42.72 3.42 1.61 0 .89-1.53 1.61-3.42 1.61s-3.42-.72-3.42-1.61c0-.89 1.53-1.61 3.42-1.61zM432.66 255.98c1.37 0 2.48.72 2.48 1.61 0 .89-1.11 1.61-2.48 1.61-1.37 0-2.48-.72-2.48-1.61 0-.89 1.11-1.61 2.48-1.61zM483.09 223.92c1.89 0 3.42.72 3.42 1.61 0 .89-1.53 1.61-3.42 1.61s-3.42-.72-3.42-1.61c0-.89 1.53-1.61 3.42-1.61zM571.03 383.4c1.89 0 3.42.72 3.42 1.61 0 .89-1.53 1.61-3.42 1.61s-3.42-.72-3.42-1.61c0-.89 1.53-1.61 3.42-1.61zM620.37 391.99c1.89 0 3.42.72 3.42 1.61 0 .89-1.53 1.61-3.42 1.61s-3.42-.72-3.42-1.61c0-.89 1.53-1.61 3.42-1.61zM649.89 411.06c1.89 0 3.42.72 3.42 1.61 0 .89-1.53 1.61-3.42 1.61s-3.42-.72-3.42-1.61c0-.89 1.53-1.61 3.42-1.61zM588.03 320.61c1.37 0 2.48.72 2.48 1.61 0 .89-1.11 1.61-2.48 1.61-1.37 0-2.48-.72-2.48-1.61 0-.89 1.11-1.61 2.48-1.61zM582 300.42c1.96 0 3.55.72 3.55 1.61 0 .89-1.59 1.61-3.55 1.61-1.96 0-3.55-.72-3.55-1.61 0-.89 1.59-1.61 3.55-1.61zM671.82 326.88c1.96 0 3.55.72 3.55 1.61 0 .89-1.59 1.61-3.55 1.61-1.96 0-3.55-.72-3.55-1.61 0-.89 1.59-1.61 3.55-1.61zM756.74 352.27c1.89 0 3.42.72 3.42 1.61 0 .89-1.53 1.61-3.42 1.61s-3.42-.72-3.42-1.61c0-.89 1.53-1.61 3.42-1.61z"/><path class="fil3" d="M881.37 397c2.46 0 4.46.72 4.46 1.61 0 .89-2 1.61-4.46 1.61s-4.46-.72-4.46-1.61c0-.89 2-1.61 4.46-1.61zM858.48 298.11c2.46 0 4.46 1.08 4.46 2.41s-2 2.41-4.46 2.41-4.46-1.08-4.46-2.41 2-2.41 4.46-2.41zM825.56 240.69c1.96 0 3.55.72 3.55 1.61 0 .89-1.59 1.61-3.55 1.61-1.96 0-3.55-.72-3.55-1.61 0-.89 1.59-1.61 3.55-1.61zM925.01 270.85c1.46 0 2.65 1.08 2.65 2.41s-1.18 2.41-2.65 2.41c-1.46 0-2.65-1.08-2.65-2.41s1.18-2.41 2.65-2.41zM713.27 188.79c1.56 0 2.83.54 2.83 1.21 0 .67-1.27 1.21-2.83 1.21s-2.83-.54-2.83-1.21c0-.67 1.27-1.21 2.83-1.21z"/><path class="fil4" d="M742.86 192.02c1.15 0 2.09.54 2.09 1.21 0 .67-.94 1.21-2.09 1.21s-2.09-.54-2.09-1.21c0-.67.94-1.21 2.09-1.21z"/><path class="fil3" d="M834.72 218.11c1.96 0 3.55.4 3.55.89s-1.59.89-3.55.89c-1.96 0-3.55-.4-3.55-.89s1.59-.89 3.55-.89zM849.28 195.64c.82 0 1.48.62 1.48 1.38 0 .76-.66 1.38-1.48 1.38s-1.48-.62-1.48-1.38c0-.76.66-1.38 1.48-1.38zM847.44 168.14c1.45 0 2.62.86 2.62 1.91 0 1.06-1.17 1.91-2.62 1.91-1.45 0-2.62-.86-2.62-1.91 0-1.06 1.17-1.91 2.62-1.91z"/><path class="fil5" d="M970.79 140.92c1.91 0 3.47.86 3.47 1.91 0 1.06-1.55 1.91-3.47 1.91-1.91 0-3.47-.86-3.47-1.91 0-1.06 1.55-1.91 3.47-1.91z"/><path class="fil0" d="M652.42 176.06c1.3 0 2.35.54 2.35 1.21 0 .67-1.05 1.21-2.35 1.21s-2.35-.54-2.35-1.21c0-.67 1.05-1.21 2.35-1.21z"/></g><g><path class="fil6" d="M1163.67 88.71c1.89 0 3.42.72 3.42 1.61 0 .89-1.53 1.61-3.42 1.61s-3.42-.72-3.42-1.61c0-.89 1.53-1.61 3.42-1.61z"/><path class="fil7" d="M1161.41 50.7c1.39 0 2.52.72 2.52 1.61 0 .89-1.13 1.61-2.52 1.61-1.39 0-2.52-.72-2.52-1.61 0-.89 1.13-1.61 2.52-1.61zM1196.93 22.24c.93 0 1.68.72 1.68 1.61 0 .89-.75 1.61-1.68 1.61-.93 0-1.68-.72-1.68-1.61 0-.89.75-1.61 1.68-1.61z"/><path class="fil6" d="M1263.66 41.17c1.37 0 2.48.72 2.48 1.61 0 .89-1.11 1.61-2.48 1.61-1.37 0-2.48-.72-2.48-1.61 0-.89 1.11-1.61 2.48-1.61zM1246.78 102.23c1.37 0 2.48.72 2.48 1.61 0 .89-1.11 1.61-2.48 1.61-1.37 0-2.48-.72-2.48-1.61 0-.89 1.11-1.61 2.48-1.61zM1281.96 75.3c1.39 0 2.52.72 2.52 1.61 0 .89-1.13 1.61-2.52 1.61-1.39 0-2.52-.72-2.52-1.61 0-.89 1.13-1.61 2.52-1.61z"/><path class="fil2" d="M1048.41 147.1c1.89 0 3.42.72 3.42 1.61 0 .89-1.53 1.61-3.42 1.61s-3.42-.72-3.42-1.61c0-.89 1.53-1.61 3.42-1.61zM999.51 168.96c1.89 0 3.42.72 3.42 1.61 0 .89-1.53 1.61-3.42 1.61s-3.42-.72-3.42-1.61c0-.89 1.53-1.61 3.42-1.61zM1091.96 255.98c1.37 0 2.48.72 2.48 1.61 0 .89-1.11 1.61-2.48 1.61-1.37 0-2.48-.72-2.48-1.61 0-.89 1.11-1.61 2.48-1.61zM1142.39 223.92c1.89 0 3.42.72 3.42 1.61 0 .89-1.53 1.61-3.42 1.61s-3.42-.72-3.42-1.61c0-.89 1.53-1.61 3.42-1.61zM1230.33 383.4c1.89 0 3.42.72 3.42 1.61 0 .89-1.53 1.61-3.42 1.61s-3.42-.72-3.42-1.61c0-.89 1.53-1.61 3.42-1.61zM1279.67 391.99c1.89 0 3.42.72 3.42 1.61 0 .89-1.53 1.61-3.42 1.61s-3.42-.72-3.42-1.61c0-.89 1.53-1.61 3.42-1.61zM1247.33 320.61c1.37 0 2.48.72 2.48 1.61 0 .89-1.11 1.61-2.48 1.61-1.37 0-2.48-.72-2.48-1.61 0-.89 1.11-1.61 2.48-1.61zM1241.3 300.42c1.96 0 3.55.72 3.55 1.61 0 .89-1.59 1.61-3.55 1.61-1.96 0-3.55-.72-3.55-1.61 0-.89 1.59-1.61 3.55-1.61z"/></g></g></g></svg>