<svg xmlns="http://www.w3.org/2000/svg" xml:space="preserve" width="2001.131" height="882.304" style="shape-rendering:geometricPrecision;text-rendering:geometricPrecision;image-rendering:optimizeQuality;fill-rule:evenodd;clip-rule:evenodd" viewBox="0 0 1288.81 568.24"><defs><style>.fil20,.fil25,.fil27{fill:#668073;fill-rule:nonzero}.fil20,.fil27{fill:#6a8475}.fil27{fill:#909377}.fil13,.fil14,.fil21{fill:#9a997a;fill-rule:nonzero}.fil13,.fil14{fill:#9d9c7b}.fil14{fill:#9e9b7c}.fil17,.fil28,.fil29{fill:#a4a07c;fill-rule:nonzero}.fil28,.fil29{fill:#a8a27d}.fil29{fill:#a9a67a}.fil15,.fil16,.fil18{fill:#aca57d;fill-rule:nonzero}.fil15,.fil16{fill:#b3a67e}.fil16{fill:#b3a77e}.fil22,.fil23,.fil24{fill:#b4a77f;fill-rule:nonzero}.fil22,.fil24{fill:#b4a87f}.fil22{fill:#b9ab7e}.fil1,.fil19,.fil26{fill:#cbb981;fill-rule:nonzero}.fil19,.fil26{fill:#efcd8a}.fil26{fill:#f1cc87}</style></defs><g id="Слой_x0020_1"><g id="_105553271613056"><path style="fill:#f4d18c" d="M1288.81 568.24H0V0h1288.81z"/><path class="fil1" d="M940.48 103.61c24.71-.33 49.38-1.99 74.11-2.57 19.32-.46 38.66-1.45 57.98-2.11 37.02-1.26 74.06-.93 111.09-1.18 5.1-.04 10.18 2.84 15.28.14-1.12 2.76-2.22 5.53-3.34 8.29-3.75-1.53-7.75-1.31-11.61-1.31-65.46-.1-130.89-.54-196.33.23-19.53.23-39.09.37-58.64.83-4.85.12-9.64 2.11-14.74.64 8.62-3.13 17.68-.64 26.2-2.96z"/><path d="M1064.96 164.55c-2.01-1.64-4.42-1.02-6.67-1.02-16.71-.04-33.44.37-50.16-.06-32.07-.79-64.12.73-96.18.1-1.7-.04-4.52 1.24-4.91-1.29-.35-2.34 2.59-2.4 4.29-3.01 6.05-2.2 11.96-5.74 18.76-2.63 3.69 1.02 7.11.23 10.28-1.68 2.34-1.41 4.75-2.84 7.46-2.59 6.7.64 11.4-2.51 16.23-6.74 8.42-7.4 21.12-7.75 30.45-1.64 6.84 4.46 11.53 3.05 15.21-4.6 6.68-8.38 13.6-10.63 23.09-6.84 3.55 1.43 6.32.06 9.39-.83 2.2-.64 4.44-1.12 6.67-1.66 8.42-2.9 12.07-1.6 16.15 6.34 1.49 2.88 2.59 4.58 6.41 3.19 11.32-4.1 16.29-1.76 21.02 9.37.6 1.39 1.55 2.65 1.85 4.17-.02 1.56-.97 2.51-2.3 2.98-8.93 3.17-17.58 7.11-27.05 8.46z" style="fill:#b6ab7f;fill-rule:nonzero"/><path d="M1094.04 153.31c-2.22-.04-3.13-1.04-3.75-3.34-2.65-9.85-10.3-13.64-18.59-8.19-4.21 2.76-6.47 2.07-8.17-3.27-2.13-6.67-4.41-9.14-14.68-8.4 4.37-4.77 7.21-10.7 12.17-15.09 11.28-10.01 27.98-10.82 37.54-1.64 3.48 3.32 4.98 7.09 4.58 11.79-.23 2.69.04 5.2 3.73 4.93 7.67-.58 13.78 2.18 18.51 8.27.56.73 2.07.73 3.13 1.06.35 1.97-1.02 2.63-2.47 3.25-8.69 3.71-17.33 7.53-26.22 10.72-1.89.68-3.86 1.83-5.78-.08z" style="fill:#cdb882;fill-rule:nonzero"/><path d="M903.59 115.13c2.2 1.95 4.58 1.6 7.4 1.49 23.15-.91 46.23-2.11 69.48-.83 11.71.64 23.71-.48 35.57-.64.97-.02 1.93-.1 2.88.02 1.58.21 4.39-.71 4.42 1.06.04 2.01-2.7 1.08-4.25 1.2-27.53 2.32-55.16 1.55-82.71 2.65-23.42.95-46.79.35-70.17.85-1.16.02-2.3.06-3.46-.04-1.08-.08-2.72.43-3.03-.87-.43-1.72 1.51-1.12 2.36-1.62 1.14-.69 2.28-1.41 3.42-2.11 9.56 2.49 19.32.58 28.96 1.2 3.32.19 6.41-.29 9.14-2.36z" style="fill:#d6bf83;fill-rule:nonzero"/><path d="M1033.7 184.28c-.41 1.78-1.76 2.69-3.25 3.48-.81-3.01-3.23-2.28-5.2-2.05-18.16 2.11-36.38.44-54.58.93-.71.02-2.03-.15-2.07-.39-.21-1.28 1.02-1.51 1.85-1.64 4.15-.64 7.09-3.65 10.65-5.27 10.57-4.85 21.72-5.29 32.92-1.93.52.16 1.18.48 1.43.91 4.31 7.46 11.44 6.24 18.24 5.97z" style="fill:#c7b581;fill-rule:nonzero"/><path d="M903.56 178.56c-21.46.02-42.93.08-64.41-.02-1.91 0-5.47 1.41-5.31-2.18.12-3.09 3.46-2.36 5.62-2.34 24.05.33 48.13.73 72.18 1.1 1.12 2.13-.04 2.67-1.89 2.86-2.07.23-4.21-.54-6.18.58z" style="fill:#cfba82;fill-rule:nonzero"/><path d="M903.56 178.56c2.05-2.67 6.74.93 8.08-3.44 9.45-2.47 19.07-.66 28.59-1.06 1-.04 2.11.5 2.01 1.58-.16 1.82-1.78 1.7-3.09 1.74-11.86.44-23.69 1.82-35.59 1.18z" style="fill:#e7c687;fill-rule:nonzero"/><g><path d="M641.91 133.56c53.93 0 97.65 43.72 97.65 97.65 0 53.93-43.72 97.65-97.65 97.65-53.93 0-97.65-43.72-97.65-97.65 0-53.93 43.72-97.65 97.65-97.65z" style="fill:#f9f2a4"/><path d="M736.9 248.43c-.29 2.36-.59 5.25-2.36 7.39-5.71-1.9-10.38-.6-16.05-1.66-9.1-1.72-15.1 1.92-19.72 9.24-3.75 5.94-9.51 4.59-14.93 3.7-5.84-.96-7.1.13-6.13 6.06 1.51 9.24 11.29 15.37 20.28 12.71 2.88-.86 5.65-2.19 8.68-2.42 2.57-.22 5.22.08 6.65 2.56 1.51 2.63.05 4.88-1.72 6.78-7.3 7.94-15.48 14.71-25.78 18.5-1.08.4-1.57 1.16-2.05 2.04-.94 1.46-2.46 2.31-3.69 3.47-5.6 2.2-6.15 1.78-10.93 5.07-6.18 4.73-6.19 1.8-14.22 3.45-3.48-.19-16.45.11-15.79-3 1.57-7.3 2.98-2.83 2.05-9.98-.27-1.85-.47-3.7-.4-5.57.03-4.86-3.15-8.52-4.86-12.71-.03-.1-.32-.15-.45-.12-.15.03-.27.19-.39.34-3.32 7.34-4.17 15.01-3.75 22.92.1 1.97-.07 4.02-1.65 5.57-2.86 1.14-3.8-1.36-5.03-2.88-2.69-3.35-5.1-6.92-7.56-10.45-1.31-1.89-2.49-2.47-4.24-.51-1.57 1.75-3.38 3.2-5.96 3.08-2.36-.25-3.62-1.95-4.86-3.67-3.96-4.75-6.24-10.13-6.26-16.38.96-14.68-2.19-29.15-2.26-43.76.4.54-.71-.3-.08-.52.07-.02.02-.62.13-.93 0-.02-.08-.05-.12-.08 1.2 5.49-1.14 10.8-.72 16.26-.52 2.56-.19 5.5-3.2 6.88-3.18-3.03-3.8-7.27-5.03-11.14-1.8-5.7-3.52-11.43-5.55-17.05a6.92 6.92 0 0 1 .02-3.2c1.11-3.72 3.79-5.49 7.49-5.45 4.26.03 6.66-2.32 8.73-5.65 3.62-5.79 5.86-12.39 10.97-17.28 5.18-4.96 11.01-8.23 18.34-7.72 5.42.37 7.56 3.22 6.72 8.26-1.06 6.29 2.26 10.69 8.9 11.68 2.15.32 4.34.17 6.51.25 3.16.12 6.09.66 7 4.36.35 1.48 1.21 1.87 2.57 1.45 3.16-.99 6.29-.62 9.39.29 2.1.62 3.5-.27 4.81-1.75 4.12-4.59 9.86-5.52 15.47-6.21 5.33-.66 9.17 3.11 9.64 8.58.3 3.72-.45 7.3-1.4 10.89-.45 1.73-2.07 4.39.84 5.07 2.68.61 6.14 1.67 8.13-1.72 1.26-2.15 2.02-4.58 3-6.88 1.94-4.59 4.34-6.04 8.41-5.2 3.99.82 6.23 4.06 5.96 8.6-.4 6.92-.4 6.92 6.66 6.5 3.42-.25 7.03-1.3 9.78 1.97z" style="fill:#f9e499;fill-rule:nonzero"/><path d="M736.9 248.43c-5.12-1.21-10.25.19-15.37.03-5.76-.18-5.82-.08-3.6-5.23.91-2.1 1.21-4.24.72-6.36-.62-2.73-2.49-3.96-5.44-4.14-2.81-.17-4.36.69-5.18 3.37-.94 3-2.34 5.87-3.15 8.9-.76 2.84-2.81 2.37-4.75 2.42-10.42.29-10.5.24-7.39-9.47 1.01-3.13 1.06-6.24.93-9.41-.17-4.07-4.46-7.69-8.3-6.34-5.28 1.85-11.81 1.4-15.05 7.69-1.06 2.05-3.43 1.57-5.42.62-3.38-1.62-6.65-1.8-9.93.51-2.51 1.75-4.04.67-3.28-2.17 1.25-4.71-1.65-4.64-4.66-4.51-5.79.25-11.23-.05-15.85-4.46-2.74-2.61-3.26-5.25-2.24-8.53 1.77-5.69.12-7.76-6.06-7.39-10.57.62-16.91 7.22-21.44 15.82-1.78 3.4-3.67 6.73-5.55 10.06-1.9 3.38-4.58 5.54-8.97 4.71-3.13-.57-5.32 1.33-6.92 3.89-2.41-.29-1.9-2.17-2.14-3.72-.1-.71.2-1.53-.44-2.12.37.57.32 1.21.25 1.83-.13 1.38-1.14 1.87-2.31 2.22-.79.17-1.57.07-2.32-.12-.5-.17-.94-.42-1.35-.76-2.96-6.65-3.33-13.68-2.91-20.82.27-4.38-1.65-8.58-.67-13.13.4-1.85-1.65-1.31-2.74-.27-3.89 3.67-6.31 3.5-7.98-1.3-1.36-3.94.6-1.74-.48-5.66.96-7.99 3.92-15.2 9.04-20.79.54-.59 2.77-.66 3.58-.13 1.55 3.16-5.73 3.19-6.52 5.98-.25.88-1.31 1.92-.24 2.66.71.49 1.48-.51 2.1-1.03 2.09-1.8 4.58-2.73 7.2-3.32 5.12-1.13 6.53-.51 9.04 4.33.57 1.11 1.06 2.24 2.47 2.02 3.35-.54 5.03 1.63 7.12 3.7 6.95 6.87 15.52 10.18 25.23 10.38 7.64.15 15.32.44 22.92-.77 2.98-.47 5.45.45 7.54 2.89 3.55 4.14 6.06 3.89 9.37-.29 2.24-2.83 5.49-3.84 8.92-3.84 3.74 0 6.72-1.77 9.73-3.53 2.44-1.43 2.49-2.93.07-4.46-.84-.54-1.7-1.08-2.41-1.78-1.92-1.88-1.92-4.11-1.14-6.5.79-2.44 2.69-2.56 4.83-2.54 8.01.05 16.04.05 24.05 0 1.63-.02 3.33.47 4.9-.42 5.69 0 11.38-.02 17.08-.02 3.03 5.35 6.28 10.6 9.05 16.09 7.89 15.64 10.06 32.26 7.91 49.51-.29 1.92-1.26 3.77-1.89 5.67z" style="fill:#faf0a2;fill-rule:nonzero"/><path d="M682.62 312.73c-.79-1.63.59-2.24 1.53-2.59 10.3-3.7 18.31-10.62 25.82-18.24 1.46-1.5 3.99-3.18 2.14-5.37-1.38-1.63-4.02-2.22-6.48-1.35-1.88.67-3.8 1.23-5.69 1.88-12.93 4.44-24.87-4.33-24.32-17.84.2-5.15 1.85-6.28 6.55-4.49 8.53 3.25 11.7 1.9 17.22-5.2 3.69-4.73 7.69-9.27 15.45-7.41 5.39 1.3 11.31.32 17 .3 2.15 0 4.16.07 4.07 3.01-6.8 23.75-21.04 41.84-41.74 55.03-1.01.64-1.99 1.21-2.51 2.32-3.05 2.42-6.04 2-9.04-.07z" style="fill:#faee9f;fill-rule:nonzero"/><path d="M667.61 176.93c.66.03 1.3.07 1.95.08 11.71.05 23.43.08 35.14.13-1.57 1.38-3.5.91-5.28.93-7.54.05-15.06.15-22.59-.03-2.98-.07-4.04 1.2-4.73 3.85-.79 3.03.81 3.8 3.06 4.65 1.85.69 4.11 1.48 4.01 3.9-.12 2.42-2.17 3.45-4.19 4.53-3.85 2.05-7.62 3.45-12.2 3.43-4.83-.02-6.5 2.89-5.12 7.1.17.54.34 1.01-.18 1.23-.39.17-1.11.17-1.36-.08-1.94-1.94-4.36-1.4-6.65-1.41-2.09-.02-3.72-.77-4.27-2.78-.98-3.52-3.59-3.82-6.29-3.08-8.77 2.42-17.94 1.67-26.51.91-9.21-.82-18.92-4.17-24.66-13.14-.88-1.36-1.6-1.88-3.2-.94-3.6 2.12-5.13-.1-5.23-3.21-.14-4.09-2.44-4.43-5.34-3.55-3.5 1.04-7.72.82-9.31 5.57-.66 1.94-2.63.59-3.85-.12-1.53-.88-2.17-2.36-.94-3.77 2.52-2.91 2.83-6.68 4.26-10.01 21.76-27.15 50.29-39.7 84.7-36.91 22.23 1.82 42.41 10.06 58.32 26.67 1.63 1.7 3.38 3.21 5.55 4.19.79 2.63 4.81 4.56 3.25 7.27-1.57 2.71-5.2.59-7.91.86-8.6.84-16.78-3.21-25.38-1.97-5.39.15-10.4 1.75-15.37 3.69-4.02 1.57-8.28.27-11.8.71 3.57.68 8.09-1.43 12.12 1.31z" style="fill:#f9f2a4;fill-rule:nonzero"/></g><g><path class="fil13" d="M73.7 53.62c-.06 3.91-.13 7.83-.19 11.75-.02.22-.01.45.04.67 2.17 4.74 6.48 7.69 9.71 11.55 4.81 5.75 9.43 11.57 13.22 18.06.91 1.56 1.86 3.23 4.19 2.61 2.92-1.01 5.85-.82 8.89-.57 7.42.61 14.88.51 22.31 1.34 3.07.34 6.69 0 8.11-3.91.66-2.17-.27-4.02-1.25-5.84-4.18-7.75-10.2-13.55-18.8-15.8-4.98-1.3-10.27-1.16-15.38-.02-4.4.98-4.33.91-6.27-2.96-4.12-8.21-10.38-14.16-19.31-16.94-1.69-.52-3.52-1.02-5.26.07z"/><path class="fil14" d="M133.18 48.48c-1.06-.01-1.8-.62-2.45-1.35-8.33-9.49-24.67-6.88-30.76 2.77-1.39 2.21-3.3 4.12-4.52 6.49-.78 1.51-1.89 2.47-3.7 2.35-.26 1.34.6 1.88 1.65 2.27 3.29.34 5.25-1.96 6.8-4.12 2.64-3.68 6.54-4.45 10.4-5.11 3.53-.6 6.04 2 7.79 4.48 2.35 3.35 5.12 4.85 9.13 4.7 4.22-.15 7.6 2.97 11.79 3.19 9.02.48 17.91 2.49 26.96 2.55 11.84.07 23.66 1.06 35.52.89 4.56-.06 9.09 1.25 13.67 1.56 2.41.16 3.81 1.18 3.73 3.81-.02.96.39 1.89 1.19 2.56 3.25-1.07 2.23-4 2.74-6.26-.33-4.86-1.35-9.41-5.76-12.37-1.41.11-2.46-.43-3.46-1.51-12.1-13.23-27.34-18-44.85-16.48-11.85 1.01-22.58 5.24-32.52 11.64-.4.27-.8.55-1.24.76-.85.41-1.9 1.39-2.63.74-.87-.77.62-1.6.68-2.51.05-.38.05-.73-.15-1.05z"/><path class="fil15" d="M213.27 52.88c-1.71-1.47-3.42-2.95-5.13-4.42-8.44-7.03-18.35-10.97-29.07-12.1-15.47-1.63-30.09 1.69-43.39 10.06-.9.57-1.67 1.35-2.51 2.05-.35 1.01-1.32 1.35-2.07 1.94-.85.67-1.82 1.41-.87 2.68.72.95 1.68 1.49 2.84.89 1.61-.83 3.2-1.71 4.71-2.68 11.96-7.76 25.09-11.98 39.33-11.38 13.96.57 26.34 5.41 35.94 16.09.8.9 1.6 1.91 2.61 2.5 1.49.85.99-.63 1.18-1.27.5-.87.37-1.43-.72-1.55-1.51-.37-1.5-2.29-2.86-2.81z"/><path class="fil16" d="m93.19 60.18-1.45-1.45c-4.73-2.89-9.27-6.13-14.93-7.03-1.6-.26-3.31-.76-3.12 1.9 2.31.6 4.76.9 6.93 1.84 8 3.41 13.96 9.03 17.03 17.28 1.12 3.01 2.68 3.24 5.47 2.51 16.42-4.34 27.38 1.24 35.09 15.67.61 1.13.84 2.23.82 3.45.76.9-.08 1.86.1 2.78.23 1.23.57 2.53 2.03 2.63 1.66.11 2.23-1.18 2.49-2.58.17-.96 0-1.92-.18-2.88-2.35-11.64-15.86-23.26-27.63-23.93-3.63-.21-7.26-.39-10.84.29-2.5.48-3.73-.44-4.73-2.66-1.51-3.29-3.24-6.54-7.08-7.82z"/><path class="fil17" d="M93.19 60.18c2.78 3.33 5.68 6.55 6.81 10.95.43 1.63 2.02 1.49 3.37 1.23 3.67-.68 7.4-.46 11.06-.73 11.27-.83 26.2 12.83 27.79 23.31.12.83.33 1.67.32 2.5-.01.73-.29 1.51-1.19 1.54-.83.02-.76-.78-.94-1.32-.38-1.13-.51-2.38-1.4-3.3-1.32 4.5-5.63 3.72-8.13 3.22-8.27-1.63-16.64-.29-24.88-1.69-2.36-.4-4.91-.26-6.38 2.31 3.28 6.46 6.54 12.9 9.82 19.36 2.97 6.43 8.22 11.11 12.71 16.36 1.69-2.88-.87-4.34-2.06-6.27-.33-.54-1.45-.8-.85-1.63.32-.44 1.16-.23 1.73-.11 5.43 1.21 10.78 2.72 16.28 3.67 9.58 1.67 19.23 2.4 28.89 2.53 10.88.16 21.77.32 32.68-.46 10.82-.78 21.49.97 31.69 4.96.68.27 1.44.46 1.86 1.07 2.67 3.89 6.58 4.37 10.89 4.36 14.04-.05 28.07-.07 42.11-.41.61-.01 1.21-.06 1.75-.37.6-2.84-1.83-2.86-3.29-2.96-5.56-.37-10.98-2.03-16.59-1.75-2.79.13-5.18-.49-7.12-2.78-1.78-2.11-4.42-2.36-7.03-2.28-8.93.26-17.57-1.57-26.18-3.57-2.98-.69-5.85-1.79-8.24-3.69-5.73-4.56-12.27-5.96-19.38-5.43-.72.05-1.95.16-1.91-.44.06-.95 1.12-.38 1.74-.28 2.63.39 5.29.54 7.9 1.19 1.64.41 3.4.49 5.03-.05 12.03-3.95 24.25-3.79 36.55-1.83 3.07.49 6.02-.35 9.04-.44 13.68-.39 27.34 1.28 41.04.69 2.06-.09 3.78.57 5.01 2.36 1 1.45 2.5 2.28 4.18 2.73 1.44.39 2.61 1.17 3.73 2.16 3.89 3.42 6.81 3.61 11.1.69 1.19-.8 2.68-1.19 3.57-2.45.37-.54.52-1.13.54-1.78-.77-4.25-3.96-5.67-7.66-6.38-2.77-.54-5.46.19-8.16.55-.46-.13-1.06-.17-1.29-.58-2.56-4.5-6.36-6.96-11.5-7.82-1.96-.33-3.76-.82-5.6.04-2.41 1.11-4.64.85-6.86-.55-2.1-1.32-4.45-1.68-6.93-1.69-5.18-.02-6.58-1.28-8.2-6.18-2.06-6.21-6.63-10.06-12.67-11.86-7.55-2.24-15.31-3.03-23.19-1.69-3.02.85-4.86-.07-5.84-3.25-.71-2.29-2.4-4.13-4.4-5.57-1.23-.73-2.72-.29-4-.85-.07-7.72-.12-7.25-8.07-8.13-16.85-1.85-33.76-1.41-50.64-2.21-3.78-.18-7.63-.79-11.43-1.58-4.01-.84-8.27-.26-12.45-1-2.18-.39-3.66-2.23-5.47-2.22-6.8.07-11.94-2.58-16.08-7.9-2.18-2.8-5.15-2.13-8.54-1.71-5.06.62-7.37 4.08-10.4 7.03-1.18 1.13-2.22 2.58-4.22 2.38z"/><path class="fil18" d="M287.4 140.91c-15.01 0-30.02-.01-45.02.01-3.64.01-6.97-.3-8.65-4.36-.83-2.01-3.2-1.35-4.84-1.96-11.16-4.15-22.61-4.79-34.49-4.12-11.78.67-23.65.54-35.5-.23-10.27-.66-20.41-1.74-30.44-3.96-2.94-.65-5.71-2.05-8.78-2.05-1.17 0-2.67.11-3.13 1.24-.37.89 1.04 1.46 1.62 2.19 1.56 1.95 3.63 3.56 4.01 6.25 1.55 2.69 3.06 5.41 5.13 7.75 5.56 1.5 11.27 1.39 16.9 1.08 4.74-.26 9.41.3 14.1.33 36.69.16 73.41.93 110.06-.23 22.67-.72 45.32-.37 67.99-.79 9.91-.18 19.82-.11 29.73-.06 1.19 0 2.42.24 3.58-.28-.22-1.96-1.77-2.08-3.19-2.22-1.8-.18-3.63-.1-5.45-.1-22.63 0-45.26-.02-67.89.02-2.01-.02-4.2-.47-5.73 1.47z"/><path class="fil19" d="M369.58 141.59c-38.74.01-77.49.04-116.22.04-30.14 0-60.3.01-90.44-.07-9.73-.02-19.46-.39-29.18-.55-2.16-.04-4.37-.4-6.42.67.73 1.21 1.47 2.42 2.21 3.63 1.08 1.51 2.58 2.17 4.41 2 10.87-1.07 21.76-.23 32.64-.5 17.42-.43 34.81.68 52.22.91 14.01.18 28.04.45 42.03.99 9.17.35 18.35.55 27.52.93 1.4.06 2.92.43 4.17-.69-5.67-1.12-11.39-1.44-17.14-1.45-1.91 0-2.53-.9-2.5-2.68.02-1.67.71-2.47 2.39-2.41.49.02 1.01-.13 1.45.01 3.72 1.19 7.42.01 11.12 0 15.84-.04 31.67-.02 47.5-.01 12.16 0 24.32.02 36.49.04 1.56 1.73 3.67 1.44 5.67 1.46 2.25.02 4.51.05 6.76.05 6.92-.98 13.89-.21 20.82-.48 1.52-.06 3.16.38 4.45-.88.29-2.19-1.5-1.8-2.63-1.96-4.79-.68-9.64-.8-14.41-.35-6.24.58-12.41-.15-18.63-.07-1.61 0-3.18-.04-4.28 1.39z"/><path class="fil1" d="M292.49 148.91c-15.58-.21-31.14-1.26-46.74-1.62-12.18-.29-24.38-.91-36.56-1.33-23.34-.79-46.7-.58-70.06-.74-3.22-.02-6.42 1.79-9.64.09.71 1.74.79 2.69 1.5 4.43 0 0 5.49-.03 7.93-.03 41.28-.06 82.55-.34 123.81.15 12.32.15 24.65.23 36.98.52 3.06.07 6.08 1.33 9.3.4-5.43-1.97-11.15-.4-16.52-1.86z"/><path class="fil20" d="M319.07 70.26c8.76-.52 17.52.11 26.31-.48 10.42-.68 20.9-.22 31.36-.26.96 0 1.95.04 2.72-.73-15.49 0-30.98-.16-46.47.1-4.64.08-9.37.12-13.91 1.36z"/><path class="fil21" d="M378.41 133.65c-1.65-2.95-4.37-4.11-7.52-4.28-1.91-.1-2.67-.71-2.96-2.7-.69-4.67-3.64-7.75-7.8-9.77-9.64-2.49-19.03-2.42-27.71 3.12-2.05 1.32-4.05 2.45-6.48 2.69-1.6.35-3.14.41-4.5 1.83-2.6 2.72-5.68 1.35-8.86-.4-5.64-3.11-9.71-9.21-17.78-8.16-10.2 1.33-20.54-1.1-30.79-.44-10.04.66-19.94-.96-29.94-.8-7.69.12-15.35-.06-22.75 3.19-3.7 1.62-7.74-1.16-11.71-1.33-.96-.04-1.9-.39-2.86-.39-1.02 0-2.45-.48-2.86.87-.45 1.43.85 2.1 1.89 2.73 1.07.66 2.25.87 3.5.61 6.44-1.35 12.28.17 17.35 4.17 3.55 2.8 7.53 4.34 11.82 5.25 8.63 1.84 17.28 3.53 26.18 3.11 2.28-.11 4.15.38 5.32 2.85 1.07 2.27 3.59 2.35 5.74 2.18 6.24-.51 12.2 1.72 18.39 1.63a4.81 4.81 0 0 1 3.31 1.32c25.88 0 51.74 0 77.62.02 1.52 0 3.17-.45 4.56.66 11.94.04 23.87.06 35.81.13 1.41.01 2.92-.39 4.22.58.54.44 1.08.44 1.62 0 .5-1.6-.57-1.97-1.74-2.5-2.92-1.29-5.93-2.32-9.08-2.86-3.13-.54-6.25-.4-9.31.43-3.67.99-7.44.49-11.15.9-1.35.15-2.14-.27-1.65-1.84.27-.9.63-1.84.1-2.79z"/><path class="fil22" d="M310.67 117.67c-1.64-1.44-1.52-3.76-2.81-5.42-3.03-3.87-7.29-5.1-11.83-5.45-2.69-.21-5.21-.44-7.68-1.71-3.41-1.74-7.08-1.38-10.61-.33-2.64.79-3.78-.46-3.96-2.7-.23-2.68 2.03-1.88 3.39-1.88 31.48-.01 62.97-.28 94.44.21 11.12.17 22.25.22 33.37.45.96.02 1.94-.02 2.9-.12.29-.04.76-.32.8-.55.18-.79-.56-.65-.94-.66-2.3-.06-4.61-.05-6.9-.07-3.48-.05-7.02.37-10.19-1.77-1.11-.74-2.58-.52-3.9-.18-7.51 1.94-14.84 2.33-22.17-1.15-4.31-2.05-8.96-1.92-13.16.88-2.03 1.35-4.24 1.68-6.59 1.41-10.86-1.62-21.78-1.66-32.71-1.4-11.6.28-23.15-.67-34.72-.76-2.25-.01-4-.78-5.26-2.58-.99-1.4-2.21-2.55-3.46-3.61 1.73-1.54 3.79-.29 5.64-.67 1.38-.28 3.25.54 3.67-1.74-.24-.02-.49-.09-.72-.07-8.41.61-16.45-.91-24.59-3.03-6.02-1.56-12.48-1.5-18.4 1.52 6.88-1.33 13.72-.69 20.44.82 8.28 1.86 13.96 6.38 15.38 15.44.48 3.06 4.11 3.17 6.38 3.25 3.9.13 7.4.83 10.58 3.07 1.45 1.02 2.84.78 4.41.02 6.02-2.89 14.38.43 16.96 6.54.39.98.01 3 2.24 2.23z"/><path class="fil23" d="M174.66 100.91c2.61 2.36 5.98 4.12 5.98 8.43 0 1.55 1.62 1.92 2.85 2.4 2.86 1.08 5.41 2.57 7.18 5.17 1.57-.34 1.28-1.13.48-2.02-1.63-1.8-3.56-3.33-5.71-4.36-1.4-.67-2.22-1.6-2.31-2.94-.5-6.35-5.03-9.08-10.11-11.06-6.55-2.57-13.38-2.84-20.29-1.54-.35.07-.73.07-1.06.21-1.21.5-3.26 1.32-2.98 2.13.56 1.58 2.22.34 3.39.1 7.99-1.73 15.56-.82 22.6 3.48z"/><path class="fil24" d="M325.95 122.73c2.64 1.13 4.68.29 6.97-1.35 5.95-4.25 12.84-5.02 19.96-4.64 2.41.13 4.84.12 7.25.17-10.77-5.25-20.81-3.36-30.36 3.11-1.17.79-2.1 2.16-3.8 1.22 0 .5-.01 1-.01 1.5z"/><path class="fil25" d="M350.43 82.51c7.7 0 15.4.01 23.1.01-3.24-1.34-6.63-.6-9.93-.56-4.39.05-8.83-.8-13.17.55z"/><path class="fil26" d="M267.04 89.98c.12.21.24.41.37.62 3.48 6.6 9.06 7.48 16.16 7.66 20.43.54 40.85.22 61.27.38-1.77-1.22-3.77-.43-5.65-.67-.44-.06-.87-.18-1.29-.27.39-.21.77-.44 1.17-.61.58-.26 1.1-.6 1.07-1.29-.02-.89-.69-1.23-1.44-1.38-5.26-1.02-10.09-3.36-15.81-3.17-14.88.5-29.78.17-44.67.17h-3.55v-.77h17.18c-.13-1.43-1.19-1.69-2.31-1.73-7.19-.23-14.35.28-21.53.52-.41.02-.67.34-.96.52z"/><path class="fil27" d="M267.04 89.98c6.97.05 13.95.09 20.92.16 1.3.01 2.66-.26 3.86.55 14.17-.01 28.33-.01 42.48-.01 1.57 0 3.16.06 4.71-.02 1-.06 2.24.45 2.89-.85-.87-.4-1.69-.91-2.58-1.19-1.97-.6-4.03-1-6.09-.69-7.49 1.12-14.96-.4-22.44-.16-1.04-.91-2.22-1.39-3.63-1.41-3.87-.04-7.75-.07-11.62.02-1.27.02-2.39.37-3.24 1.36l-14.35.18c-3.56 1.36-7.26.27-10.87.69-.39.05-1.29-.51-1.12.54.07.32.71.56 1.08.84z"/><path class="fil28" d="M292.31 87.71c6.17.01 12.32.01 18.48.02-.55-3.76-2.8-6.18-6.38-6.93-4.36-.93-8.65-.57-12.14 2.74-1.44 1.35-1 2.79.04 4.17z"/><path class="fil29" d="M411.02 142.25c3.73.04 7.46.11 11.17.1.76 0 1.99.39 2.08-.77.11-1.32-1.23-1.45-2.1-1.32-7.54 1.17-14.58-2.49-22.02-2.17 3.02.91 6.02 1.88 9.05 2.73.84.26 1.62.41 1.8 1.43z"/><path class="fil13" d="M203.85 53.62c.06 3.91.13 7.83.19 11.75.02.22.01.45-.04.67-.33.57-12.21-1.61-21.31 10.46-12.47 14.21-3.48 22.38-5.81 21.76-2.92-1.01-5.85-.82-8.89-.57-7.42.61-14.88.51-22.31 1.34-3.07.34-6.69 0-8.11-3.91-.66-2.17.27-4.02 1.25-5.84 4.18-7.75 10.2-13.55 18.8-15.8 4.98-1.3 10.27-1.16 15.38-.02 4.4.98 4.33.91 6.27-2.96 4.12-8.21 10.38-14.16 19.31-16.94 1.69-.52 3.52-1.02 5.26.07z"/><path class="fil14" d="M144.37 48.48c1.06-.01 1.8-.62 2.45-1.35 8.33-9.49 24.67-6.88 30.76 2.77 1.39 2.21 3.3 4.12 4.52 6.49.78 1.51 1.89 2.47 3.7 2.35.26 1.34-.6 1.88-1.65 2.27-3.29.34-5.25-1.96-6.8-4.12-2.64-3.68-6.54-4.45-10.4-5.11-3.53-.6-6.04 2-7.79 4.48-2.35 3.35-5.12 4.85-9.13 4.7-4.22-.15-7.6 2.97-11.79 3.19-9.02.48-17.91 2.49-26.96 2.55-11.84.07-23.66 1.06-35.52.89-4.56-.06-9.09 1.25-13.67 1.56-2.41.16-3.81 1.18-3.73 3.81.02.96-.39 1.89-1.19 2.56-3.25-1.07-2.23-4-2.74-6.26.33-4.86 1.35-9.41 5.76-12.37 1.41.11 2.46-.43 3.46-1.51 12.1-13.23 27.34-18 44.85-16.48 11.85 1.01 22.58 5.24 32.52 11.64.4.27.8.55 1.24.76.85.41 1.9 1.39 2.63.74.86-.77-.62-1.6-.68-2.51-.05-.38-.05-.73.15-1.05z"/><path class="fil15" d="M64.28 52.88c1.71-1.47 3.42-2.95 5.13-4.42 8.44-7.03 18.35-10.97 29.07-12.1 15.47-1.63 30.09 1.69 43.39 10.06.9.57 1.67 1.35 2.51 2.05.35 1.01 1.32 1.35 2.07 1.94.85.67 1.82 1.41.87 2.68-.72.95-1.68 1.49-2.84.89-1.61-.83-3.2-1.71-4.71-2.68-11.96-7.76-25.09-11.98-39.33-11.38-13.96.57-26.34 5.41-35.94 16.09-.8.9-1.6 1.91-2.61 2.5-1.49.85-.99-.63-1.18-1.27-.5-.87-.37-1.43.72-1.55 1.51-.37 1.5-2.29 2.86-2.81z"/><path class="fil16" d="m184.36 60.18 1.45-1.45c4.73-2.89 9.27-6.13 14.92-7.03 1.6-.26 3.31-.76 3.12 1.9-2.31.6-4.76.9-6.93 1.84-8 3.41-13.96 9.03-17.03 17.28-1.12 3.01-2.68 3.24-5.47 2.51-16.42-4.34-27.38 1.24-35.09 15.67-.61 1.13-.84 2.23-.82 3.45-.76.9.08 1.86-.1 2.78-.23 1.23-.57 2.53-2.03 2.63-1.66.11-2.23-1.18-2.49-2.58-.17-.96 0-1.92.18-2.88 2.35-11.64 15.86-23.26 27.63-23.93 3.63-.21 7.26-.39 10.84.29 2.5.48 3.73-.44 4.73-2.66 1.51-3.29 3.24-6.54 7.08-7.82z"/><path class="fil17" d="M184.36 60.18c-2.78 3.33-5.68 6.55-6.81 10.95-.43 1.63-2.02 1.49-3.37 1.23-3.67-.68-7.4-.46-11.06-.73-11.27-.83-26.2 12.83-27.79 23.31-.12.83-.33 1.67-.32 2.5.01.73.29 1.51 1.19 1.54.83.02.76-.78.94-1.32.38-1.13.51-2.38 1.4-3.3 1.32 4.5 5.63 3.72 8.13 3.22 8.27-1.63 16.64-.29 24.88-1.69 2.36-.4 4.91-.26 6.38 2.31-3.28 6.46-6.54 12.9-9.82 19.36-2.97 6.43-8.22 11.11-12.71 16.36-1.69-2.88.87-4.34 2.06-6.27.33-.54 1.45-.8.85-1.63-.32-.44-1.16-.23-1.73-.11-5.43 1.21-10.78 2.72-16.28 3.67-9.58 1.67-19.23 2.4-28.89 2.53-10.88.16-21.77.32-32.68-.46-10.82-.78-21.49.97-31.69 4.96-.68.27-1.44.46-1.86 1.07-2.67 3.89-6.58 4.37-10.89 4.36-11.43-.04-22.86-.06-34.29-.25v-4.29c3.42-.55 6.83-1.13 10.31-.95 2.79.13 5.18-.49 7.12-2.78 1.78-2.11 4.42-2.36 7.03-2.28 8.93.26 17.57-1.57 26.18-3.57 2.98-.69 5.85-1.79 8.24-3.69 5.73-4.56 12.27-5.96 19.38-5.43.72.05 1.95.16 1.91-.44-.06-.95-1.12-.38-1.74-.28-2.63.39-5.29.54-7.9 1.19-1.64.41-3.4.49-5.03-.05-12.03-3.95-24.25-3.79-36.55-1.83-3.07.49-6.02-.35-9.04-.44-6.64-.19-13.28.11-19.92.39v-12.47c4.19-.23 5.49-1.66 6.98-6.14 2.06-6.21 6.63-10.06 12.67-11.86 7.55-2.24 15.31-3.03 23.19-1.69 3.02.85 4.86-.07 5.84-3.25.71-2.29 2.4-4.13 4.4-5.57 1.23-.73 2.72-.29 4-.85.07-7.72.12-7.25 8.07-8.13 16.85-1.85 33.76-1.41 50.64-2.21 3.78-.18 7.63-.79 11.43-1.58 4.01-.84 8.27-.26 12.45-1 2.18-.39 3.66-2.23 5.47-2.22 6.8.07 11.94-2.58 16.08-7.9 2.18-2.8 5.15-2.13 8.54-1.71 5.06.62 7.37 4.08 10.4 7.03 1.18 1.13 2.22 2.58 4.22 2.38z"/><path class="fil18" d="M0 140.91c11.73 0 23.45-.01 35.17.01 3.64.01 6.97-.3 8.65-4.36.83-2.01 3.2-1.35 4.84-1.96 11.16-4.15 22.61-4.79 34.49-4.12 11.78.67 23.65.54 35.5-.23 10.27-.66 20.41-1.74 30.44-3.96 2.94-.65 5.71-2.05 8.78-2.05 1.17 0 2.67.11 3.13 1.24.37.89-1.04 1.46-1.62 2.19-1.56 1.95-3.63 3.56-4.01 6.25-1.55 2.69-3.06 5.41-5.13 7.75-5.56 1.5-11.27 1.39-16.9 1.08-4.74-.26-9.41.3-14.1.33-36.69.16-73.41.93-110.06-.23-3.06-.1-6.13-.17-9.19-.24v-1.71z"/><path class="fil19" d="M0 141.62h24.19c30.14 0 60.3.01 90.44-.07 9.73-.02 19.46-.39 29.18-.55 2.16-.04 4.37-.4 6.42.67-.73 1.21-1.47 2.42-2.21 3.63-1.08 1.51-2.58 2.17-4.41 2-10.87-1.07-21.76-.23-32.64-.5-17.42-.43-34.81.68-52.22.91-14.01.18-28.03.45-42.03.99-5.57.21-11.15.37-16.72.55v-1.74c.72-.01 1.45-.02 2.18-.02 1.91 0 2.53-.9 2.5-2.68-.02-1.67-.71-2.47-2.39-2.41-.49.02-1.01-.13-1.45.01-.28.09-.56.17-.84.23v-1.01z"/><path class="fil1" d="M0 148.51c10.59-.4 21.19-.97 31.79-1.21 12.18-.29 24.38-.91 36.56-1.33 23.34-.79 46.7-.58 70.06-.74 3.22-.02 6.42 1.79 9.64.09-.71 1.74-.01 2.64-.72 4.38.15 0-6.27.02-8.71.02-41.28-.06-82.55-.34-123.81.15-4.93.06-9.87.11-14.81.16v-1.51z"/><path class="fil21" d="M0 115.87c4.51-.32 9.02-.62 13.52-.34 10.04.66 19.94-.96 29.94-.8 7.69.12 15.35-.06 22.75 3.19 3.7 1.62 7.74-1.16 11.71-1.33.96-.04 1.9-.39 2.86-.39 1.02 0 2.45-.48 2.86.87.45 1.43-.85 2.1-1.89 2.73-1.07.66-2.25.87-3.5.61-6.44-1.35-12.28.17-17.35 4.17-3.55 2.8-7.53 4.34-11.82 5.25-8.63 1.84-17.28 3.53-26.18 3.11-2.28-.11-4.15.38-5.32 2.85-1.07 2.27-3.59 2.35-5.74 2.18-4.02-.33-7.92.48-11.84 1.07v-23.17z"/><path class="fil13" d="M102.89 100.91c6.94-1.32 14.01-1.3 20.91-.51 6.01.69 11.82 3.01 17.75 4.53 3.62.93 7.27 1.72 10.93 2.53 1.33.3 2.53.82 3.47 1.83 2.06 2.23 1.73 3.73-1.17 4.73-8.48 2.9-17.28 4.11-26.15 5.23-12.61 1.6-25.21 2.31-37.88 2.02-.61-.01-1.21-.01-1.82 0-1.35.01-2.83.06-3.51-1.34-.69-1.44 1.21-1.9 1.46-3.03.18-3.42 3.29-4.19 5.47-5.4 1.95-1.08 3.05-2.13 3.75-4.29 1.04-3.17 2.7-6.17 6.77-6.3z"/><path class="fil22" d="M0 104.82c2.51.68 3.59-.57 3.77-2.76.23-2.68-2.04-1.88-3.39-1.88H0v-3.7h.15c2.25-.01 4-.78 5.26-2.58.99-1.4 2.21-2.55 3.46-3.61-1.73-1.54-3.79-.29-5.64-.67-1.09-.22-2.49.24-3.24-.68v-1.12c.1-.01.19-.02.29-.01 8.41.61 16.45-.91 24.59-3.03 6.02-1.56 12.48-1.5 18.4 1.52-6.88-1.33-13.72-.69-20.44.82-8.28 1.86-13.96 6.38-15.38 15.44-.48 3.06-4.11 3.17-6.38 3.25-.36.01-.71.03-1.07.05v-1.03z"/><path class="fil23" d="M102.89 100.91c-2.61 2.36-5.98 4.12-5.98 8.43 0 1.55-1.62 1.92-2.85 2.4-2.86 1.08-5.41 2.57-7.18 5.17-1.57-.34-1.28-1.13-.48-2.02 1.63-1.8 3.56-3.33 5.71-4.36 1.4-.67 2.22-1.6 2.31-2.94.5-6.35 5.03-9.08 10.11-11.06 6.55-2.57 13.38-2.84 20.29-1.54.35.07.73.07 1.06.21 1.21.5 3.27 1.32 2.98 2.13-.56 1.58-2.22.34-3.39.1-7.99-1.73-15.56-.82-22.6 3.48z"/><path class="fil26" d="M10.51 89.98c-.12.21-.24.41-.37.62C7.71 95.2 4.26 97.02 0 97.77v-6.34h2.88v-.77H0v-1.6c3.18.13 6.36.29 9.55.39.41.02.67.34.96.52z"/><path class="fil27" d="M10.51 89.98c-3.5.02-7.01.05-10.51.07v-2c3.44 1.14 7 .14 10.47.55.39.05 1.29-.51 1.12.54-.07.32-.71.56-1.08.84z"/><path class="fil13" d="M174.66 100.91c-6.94-1.32-14.01-1.3-20.91-.51-6.01.69-11.82 3.01-17.75 4.53-3.62.93-7.27 1.72-10.93 2.53-1.33.3-2.53.82-3.47 1.83-2.06 2.23-1.73 3.73 1.17 4.73 8.48 2.9 17.28 4.11 26.15 5.23 12.61 1.6 25.21 2.31 37.88 2.02.61-.01 1.21-.01 1.82 0 1.35.01 2.83.06 3.51-1.34.69-1.44-1.21-1.9-1.46-3.03-.18-3.42-3.29-4.19-5.47-5.4-1.95-1.08-3.05-2.13-3.75-4.29-1.04-3.17-2.7-6.17-6.77-6.3z"/></g><g><path d="M1132.1 75.01c-.36.98-1.05 1.59-2.19 1.44-.95-.12-1.7-.6-1.55-1.63.14-1.04 1.06-1.28 1.97-1.24.92.03 1.73.38 1.76 1.43z" style="fill:#e9efe0;fill-rule:nonzero"/><path style="fill:#b9ab7e" d="M1150.26 147.69h138.55v13.42h-138.55z"/><path class="fil13" d="m1167.95 47.96.18 14.81c.02.28.01.57-.03.84-2.02 5.98-6.03 9.7-9.03 14.57-4.48 7.25-8.77 14.6-12.3 22.77-.85 1.97-1.73 4.07-3.9 3.29-2.72-1.28-5.44-1.03-8.27-.72-6.9.77-13.84.65-20.75 1.69-2.86.43-6.22 0-7.55-4.93-.61-2.74.25-5.07 1.17-7.36 3.89-9.77 9.49-17.09 17.49-19.93 4.64-1.64 9.56-1.46 14.3-.03 4.09 1.23 4.02 1.15 5.84-3.73 3.83-10.36 9.66-17.86 17.97-21.36 1.58-.66 3.28-1.29 4.9.09z"/><path class="fil14" d="M1112.61 41.47c.99-.02 1.68-.78 2.28-1.71 7.75-11.97 22.95-8.68 28.62 3.49 1.29 2.78 3.07 5.19 4.21 8.19.73 1.91 1.76 3.12 3.45 2.97.24 1.69-.56 2.37-1.53 2.86-3.06.43-4.89-2.47-6.33-5.19-2.46-4.64-6.09-5.61-9.68-6.44-3.29-.75-5.62 2.52-7.24 5.66-2.19 4.23-4.76 6.12-8.49 5.93-3.92-.18-7.07 3.75-10.97 4.03-8.39.6-16.66 3.14-25.08 3.21-11.02.09-22.01 1.34-33.04 1.12-4.24-.08-8.46 1.58-12.72 1.97-2.24.2-3.55 1.49-3.47 4.81.02 1.21-.36 2.38-1.11 3.23-3.03-1.35-2.07-5.04-2.55-7.9.31-6.13 1.26-11.86 5.36-15.6 1.31.14 2.29-.54 3.22-1.91 11.26-16.69 25.44-22.7 41.72-20.79 11.03 1.28 21 6.61 30.25 14.68.37.34.75.69 1.16.95.79.52 1.77 1.75 2.45.94.8-.97-.58-2.01-.64-3.17-.04-.48-.04-.92.14-1.32z"/><path class="fil15" d="m1038.1 47.02 4.77-5.58c7.86-8.87 17.07-13.83 27.05-15.26 14.4-2.06 28 2.14 40.36 12.69.84.72 1.55 1.71 2.33 2.58.33 1.28 1.22 1.71 1.93 2.44.79.84 1.69 1.78.8 3.38-.67 1.2-1.56 1.87-2.64 1.12-1.5-1.04-2.98-2.15-4.39-3.38-11.13-9.79-23.34-15.11-36.59-14.35-12.99.72-24.51 6.82-33.44 20.3-.75 1.14-1.48 2.41-2.43 3.15-1.38 1.08-.92-.8-1.1-1.6-.46-1.09-.34-1.8.67-1.95 1.4-.46 1.39-2.89 2.66-3.55z"/><path class="fil16" d="M1149.81 56.22c.45-.61.9-1.21 1.35-1.83 4.4-3.64 8.63-7.73 13.89-8.87 1.48-.32 3.08-.95 2.9 2.4-2.15.75-4.43 1.14-6.45 2.32-7.45 4.3-12.99 11.39-15.85 21.79-1.04 3.8-2.49 4.09-5.09 3.17-15.28-5.47-25.47 1.57-32.65 19.76-.57 1.43-.78 2.81-.76 4.35-.7 1.14.08 2.35-.09 3.5-.22 1.55-.53 3.2-1.89 3.32-1.54.14-2.07-1.49-2.31-3.26-.16-1.21 0-2.43.17-3.63 2.19-14.68 14.76-29.34 25.71-30.18 3.38-.26 6.76-.49 10.09.37 2.32.6 3.47-.55 4.4-3.35 1.41-4.15 3.02-8.25 6.59-9.87z"/><path class="fil17" d="M1149.81 56.22c-2.58 4.2-5.28 8.27-6.34 13.82-.4 2.06-1.88 1.87-3.14 1.55-3.41-.86-6.88-.58-10.29-.92-10.48-1.04-24.37 16.18-25.86 29.4-.11 1.04-.31 2.11-.29 3.15.01.92.27 1.91 1.11 1.94.77.03.7-.98.87-1.66.35-1.43.48-3 1.3-4.16 1.22 5.67 5.24 4.69 7.56 4.06 7.7-2.06 15.48-.37 23.15-2.14 2.2-.51 4.57-.32 5.94 2.92-3.05 8.14-6.09 16.27-9.14 24.42-2.77 8.11-7.65 14.01-11.82 20.64-1.58-3.63.81-5.47 1.92-7.91.31-.68 1.35-1.01.79-2.06-.29-.55-1.08-.29-1.61-.14-5.06 1.52-10.03 3.43-15.14 4.63-8.91 2.11-17.89 3.03-26.88 3.2-10.12.2-20.26.4-30.4-.58-10.07-.98-20 1.23-29.48 6.25-.63.34-1.34.58-1.73 1.35-2.48 4.9-6.12 5.52-10.13 5.5-13.06-.06-26.12-.09-39.17-.52-.57-.01-1.12-.08-1.63-.46-.56-3.58 1.7-3.61 3.06-3.73 5.17-.46 10.21-2.57 15.44-2.21 2.6.17 4.82-.61 6.62-3.5 1.65-2.66 4.11-2.98 6.54-2.87 8.31.32 16.35-1.98 24.36-4.5 2.78-.88 5.44-2.26 7.66-4.66 5.33-5.75 11.41-7.51 18.03-6.85.67.06 1.81.2 1.78-.55-.06-1.2-1.04-.48-1.62-.35-2.45.49-4.92.68-7.35 1.51-1.53.52-3.16.61-4.68-.06-11.19-4.98-22.56-4.78-34.01-2.3-2.86.61-5.6-.45-8.41-.55-12.73-.49-25.44 1.61-38.18.88-1.92-.11-3.51.72-4.66 2.98-.93 1.83-2.32 2.87-3.89 3.44-1.34.49-2.43 1.48-3.47 2.72-3.62 4.32-6.34 4.55-10.33.88-1.11-1.01-2.49-1.51-3.32-3.09-.34-.68-.49-1.43-.5-2.24.71-5.36 3.68-7.15 7.13-8.05 2.57-.68 5.08.25 7.59.69.43-.17.99-.21 1.2-.74 2.38-5.67 5.92-8.77 10.7-9.87 1.83-.42 3.5-1.03 5.21.05 2.24 1.4 4.32 1.08 6.38-.69 1.95-1.66 4.14-2.12 6.45-2.14 4.82-.03 6.12-1.61 7.63-7.79 1.92-7.84 6.17-12.69 11.79-14.95 7.03-2.83 14.25-3.83 21.57-2.14 2.81 1.08 4.52-.09 5.43-4.1.66-2.89 2.23-5.21 4.09-7.02 1.14-.92 2.53-.37 3.72-1.08.07-9.74.11-9.14 7.5-10.25 15.68-2.34 31.41-1.78 47.11-2.78 3.51-.23 7.1-1 10.63-2 3.73-1.06 7.7-.32 11.58-1.26 2.03-.49 3.4-2.81 5.09-2.8 6.32.09 11.11-3.26 14.96-9.96 2.03-3.53 4.79-2.69 7.95-2.15 4.7.78 6.86 5.15 9.68 8.87 1.1 1.43 2.06 3.26 3.92 3z"/><path class="fil18" d="M969.13 158.05c13.97 0 27.93-.02 41.88.02 3.39.01 6.48-.38 8.05-5.5.77-2.54 2.98-1.71 4.5-2.47 10.38-5.24 21.04-6.04 32.09-5.19 10.96.84 22 .68 33.03-.29 9.56-.83 18.99-2.2 28.32-4.99 2.73-.81 5.32-2.58 8.17-2.58 1.09 0 2.48.14 2.91 1.57.34 1.12-.96 1.84-1.51 2.77-1.45 2.46-3.38 4.49-3.73 7.88-1.44 3.4-2.85 6.82-4.77 9.77-5.17 1.89-10.48 1.75-15.72 1.37-4.41-.32-8.75.38-13.11.41-34.13.2-68.29 1.17-102.39-.29-21.09-.91-42.17-.46-63.25-1-9.22-.23-18.44-.14-27.66-.08-1.11 0-2.26.31-3.33-.35.2-2.47 1.64-2.63 2.97-2.8 1.68-.23 3.38-.12 5.07-.12 21.05 0 42.11-.03 63.16.03 1.87-.03 3.91-.6 5.33 1.86z"/><path class="fil19" d="M892.68 158.91c36.05.02 72.09.05 108.13.05 28.04 0 56.1.02 84.14-.09 9.06-.03 18.1-.49 27.15-.69 2.01-.05 4.07-.51 5.97.85l-2.05 4.58c-1.01 1.91-2.4 2.74-4.1 2.52-10.11-1.35-20.24-.29-30.37-.63-16.21-.54-32.38.86-48.58 1.15-13.04.23-26.08.57-39.11 1.24-8.54.45-17.07.69-25.61 1.17-1.3.08-2.72.54-3.88-.88 5.27-1.41 10.6-1.81 15.95-1.83 1.78 0 2.36-1.14 2.32-3.38-.02-2.11-.66-3.12-2.22-3.04-.45.03-.94-.17-1.35.02-3.46 1.51-6.9.02-10.35 0-14.74-.05-29.46-.03-44.2-.02-11.31 0-22.63.03-33.95.05-1.45 2.18-3.41 1.81-5.27 1.84-2.1.03-4.19.06-6.29.06-6.44-1.23-12.92-.26-19.37-.6-1.42-.08-2.94.48-4.14-1.11-.27-2.77 1.39-2.27 2.45-2.47a42.56 42.56 0 0 1 13.41-.45c5.8.74 11.55-.18 17.33-.09 1.5 0 2.96-.04 3.98 1.75z"/><path class="fil1" d="M964.4 168.14c14.5-.26 28.97-1.58 43.48-2.04 11.33-.37 22.68-1.15 34.02-1.67 21.72-1 43.45-.74 65.18-.94 2.99-.03 5.97 2.26 8.97.11-.66 2.2-.74 3.39-1.4 5.59 0 0-5.11-.04-7.38-.04-38.4-.08-76.8-.43-115.19.18-11.46.18-22.93.29-34.4.66-2.85.09-5.66 1.68-8.65.51 5.06-2.49 10.37-.51 15.37-2.35z"/><path class="fil20" d="M939.67 68.94c-8.15-.66-16.3.14-24.47-.6-9.69-.86-19.44-.28-29.18-.32-.9 0-1.81.05-2.53-.92 14.41 0 28.83-.2 43.23.12 4.32.11 8.72.15 12.94 1.72z"/><path class="fil21" d="M884.46 148.89c1.53-3.72 4.07-5.18 6.99-5.39 1.78-.12 2.48-.89 2.75-3.41.65-5.89 3.39-9.77 7.25-12.32 8.97-3.13 17.71-3.06 25.78 3.93 1.9 1.66 3.76 3.09 6.03 3.4 1.49.45 2.92.52 4.18 2.3 2.41 3.43 5.28 1.71 8.24-.51 5.25-3.92 9.03-11.62 16.54-10.3 9.49 1.68 19.11-1.38 28.64-.55 9.34.83 18.56-1.21 27.85-1.01 7.15.15 14.28-.08 21.16 4.03 3.45 2.04 7.2-1.46 10.89-1.67.9-.05 1.77-.49 2.66-.49.95 0 2.28-.6 2.66 1.09.42 1.8-.79 2.64-1.76 3.44-1 .83-2.1 1.09-3.25.77-6-1.71-11.43.21-16.14 5.26-3.3 3.53-7 5.47-11 6.62-8.03 2.32-16.07 4.46-24.36 3.92-2.12-.14-3.87.48-4.95 3.6-1 2.86-3.34 2.97-5.34 2.75-5.8-.65-11.35 2.17-17.1 2.06-1.07-.02-2.22.55-3.08 1.66-24.08 0-48.14 0-72.22.03-1.42 0-2.95-.57-4.24.83-11.11.05-22.21.08-33.31.17-1.31.01-2.72-.49-3.92.74-.5.55-1.01.55-1.51 0-.46-2.01.53-2.49 1.62-3.15 2.72-1.63 5.52-2.92 8.44-3.61 2.91-.68 5.81-.51 8.66.54 3.41 1.24 6.93.61 10.37 1.14 1.26.18 2-.34 1.53-2.32-.25-1.14-.59-2.32-.09-3.52z"/><path class="fil22" d="M947.48 128.74c1.53-1.81 1.42-4.75 2.62-6.84 2.82-4.89 6.78-6.44 11.01-6.87 2.5-.26 4.85-.55 7.14-2.15 3.17-2.2 6.59-1.74 9.87-.41 2.46 1 3.51-.58 3.68-3.41.22-3.38-1.89-2.37-3.15-2.37-29.29-.02-58.58-.35-87.86.26-10.35.21-20.7.28-31.05.57-.9.03-1.8-.03-2.7-.15-.27-.05-.7-.4-.75-.69-.17-1 .52-.81.87-.83 2.14-.08 4.28-.06 6.42-.09 3.24-.06 6.53.46 9.48-2.23 1.03-.94 2.4-.66 3.63-.23 6.98 2.44 13.81 2.94 20.63-1.44 4.01-2.58 8.33-2.43 12.24 1.11 1.89 1.71 3.95 2.12 6.13 1.78 10.1-2.04 20.27-2.09 30.44-1.77 10.79.35 21.54-.85 32.3-.95 2.1-.02 3.72-.98 4.9-3.26.92-1.77 2.05-3.21 3.22-4.55-1.61-1.94-3.53-.37-5.25-.84-1.28-.35-3.03.68-3.41-2.2.23-.03.45-.11.67-.09 7.82.77 15.3-1.15 22.87-3.83 5.6-1.97 11.61-1.89 17.12 1.92-6.4-1.68-12.76-.88-19.02 1.03-7.71 2.35-12.99 8.05-14.3 19.47-.44 3.86-3.82 4-5.94 4.1-3.63.17-6.88 1.04-9.84 3.87-1.35 1.29-2.64.98-4.1.03-5.6-3.64-13.38.54-15.78 8.25-.36 1.23-.01 3.78-2.09 2.81z"/><path class="fil23" d="M1074.02 107.6c-2.43 2.98-5.57 5.19-5.57 10.63 0 1.95-1.51 2.43-2.65 3.03-2.66 1.37-5.03 3.24-6.68 6.52-1.46-.43-1.19-1.43-.44-2.55 1.52-2.27 3.31-4.2 5.32-5.5 1.3-.84 2.06-2.01 2.15-3.7.46-8.01 4.68-11.45 9.41-13.95 6.1-3.24 12.45-3.58 18.87-1.94.33.09.68.09.99.26 1.12.63 3.04 1.66 2.78 2.69-.52 2-2.06.43-3.15.12-7.44-2.18-14.47-1.03-21.03 4.39z"/><path class="fil24" d="M933.27 135.12c-2.46 1.43-4.35.37-6.48-1.71-5.53-5.36-11.95-6.33-18.57-5.86-2.24.17-4.5.15-6.74.21 10.02-6.62 19.36-4.24 28.25 3.92 1.09 1 1.95 2.72 3.54 1.54 0 .63.01 1.26.01 1.89z"/><path class="fil25" d="M910.49 84.4c-7.16 0-14.33.02-21.49.02 3.01-1.69 6.17-.75 9.24-.71 4.08.06 8.22-1.01 12.25.69z"/><path class="fil26" d="M988.07 93.81c-.11.26-.23.52-.34.78-3.24 8.33-8.43 9.44-15.03 9.67-19.01.68-38.01.28-57 .48 1.64-1.54 3.5-.54 5.26-.85.41-.08.8-.23 1.2-.34-.36-.26-.71-.55-1.09-.77-.54-.32-1.02-.75-1-1.63.02-1.12.65-1.55 1.34-1.74 4.9-1.29 9.39-4.24 14.71-3.99 13.84.63 27.7.21 41.55.21h3.3v-.97h-15.98c.12-1.8 1.11-2.14 2.15-2.18 6.69-.29 13.35.35 20.03.66.39.03.62.43.9.66z"/><path class="fil27" d="M988.07 93.81c-6.48.06-12.98.11-19.46.2-1.21.02-2.47-.32-3.59.69-13.18-.01-26.35-.01-39.53-.01-1.46 0-2.94.08-4.39-.03-.93-.08-2.09.57-2.69-1.08.8-.51 1.58-1.15 2.4-1.51 1.84-.75 3.75-1.26 5.67-.88 6.97 1.41 13.92-.51 20.88-.2.96-1.15 2.06-1.75 3.38-1.78 3.6-.05 7.21-.09 10.81.03 1.18.03 2.22.46 3.02 1.72 4.45.08 8.9.15 13.35.23 3.31 1.72 6.76.34 10.11.88.36.06 1.2-.65 1.04.68-.07.4-.66.71-1.01 1.06z"/><path class="fil28" d="M964.57 90.95c-5.74.02-11.46.02-17.2.03.51-4.75 2.61-7.79 5.94-8.74 4.06-1.17 8.05-.72 11.29 3.46 1.34 1.71.93 3.52-.03 5.26z"/><path class="fil29" d="M854.13 159.74c-3.47.05-6.94.14-10.39.12-.7 0-1.85.49-1.94-.97-.1-1.66 1.14-1.83 1.95-1.66 7.02 1.48 13.57-3.13 20.48-2.74-2.81 1.15-5.6 2.37-8.42 3.44-.78.32-1.51.52-1.68 1.8z"/><path class="fil13" d="m1046.86 47.96-.18 14.81c-.02.28-.01.57.03.84.31.72 11.36-2.03 19.83 13.19 11.6 17.92 3.24 28.23 5.4 27.44 2.72-1.28 5.44-1.03 8.27-.72 6.9.77 13.84.65 20.75 1.69 2.86.43 6.22 0 7.55-4.93.61-2.74-.25-5.07-1.17-7.36-3.89-9.77-9.49-17.09-17.49-19.93-4.64-1.64-9.56-1.46-14.3-.03-4.09 1.23-4.02 1.15-5.84-3.73-3.83-10.36-9.66-17.86-17.97-21.36-1.58-.66-3.28-1.29-4.9.09z"/><path class="fil14" d="M1102.2 41.47c-.99-.02-1.68-.78-2.28-1.71-7.75-11.97-22.95-8.68-28.62 3.49-1.29 2.78-3.07 5.19-4.21 8.19-.73 1.91-1.76 3.12-3.45 2.97-.24 1.69.56 2.37 1.53 2.86 3.06.43 4.89-2.47 6.33-5.19 2.46-4.64 6.09-5.61 9.68-6.44 3.29-.75 5.62 2.52 7.24 5.66 2.19 4.23 4.76 6.12 8.49 5.93 3.92-.18 7.07 3.75 10.97 4.03 8.39.6 16.66 3.14 25.08 3.21 11.02.09 22.01 1.34 33.04 1.12 4.24-.08 8.46 1.58 12.72 1.97 2.24.2 3.55 1.49 3.47 4.81-.02 1.21.36 2.38 1.11 3.23 3.03-1.35 2.07-5.04 2.55-7.9-.31-6.13-1.26-11.86-5.36-15.6-1.31.14-2.29-.54-3.22-1.91-11.26-16.69-25.44-22.7-41.72-20.79-11.03 1.28-21 6.61-30.25 14.68-.37.34-.75.69-1.16.95-.79.52-1.77 1.75-2.45.94-.8-.97.58-2.01.64-3.17.05-.48.05-.92-.14-1.32z"/><path class="fil15" d="M1176.72 47.02c-1.59-1.86-3.19-3.72-4.77-5.58-7.86-8.87-17.07-13.83-27.05-15.26-14.4-2.06-28 2.14-40.36 12.69-.84.72-1.55 1.71-2.33 2.58-.33 1.28-1.22 1.71-1.93 2.44-.79.84-1.69 1.78-.8 3.38.67 1.2 1.56 1.87 2.64 1.12 1.5-1.04 2.98-2.15 4.39-3.38 11.13-9.79 23.34-15.11 36.59-14.35 12.99.72 24.51 6.82 33.44 20.3.75 1.14 1.49 2.41 2.43 3.15 1.38 1.08.92-.8 1.1-1.6.46-1.09.34-1.8-.67-1.95-1.4-.46-1.39-2.89-2.66-3.55z"/><path class="fil16" d="M1065 56.22c-.45-.61-.9-1.21-1.35-1.83-4.4-3.64-8.63-7.73-13.89-8.87-1.48-.32-3.08-.95-2.9 2.4 2.15.75 4.43 1.14 6.45 2.32 7.45 4.3 12.99 11.39 15.85 21.79 1.04 3.8 2.49 4.09 5.09 3.17 15.28-5.47 25.47 1.57 32.65 19.76.57 1.43.78 2.81.76 4.35.7 1.14-.08 2.35.09 3.5.22 1.55.53 3.2 1.89 3.32 1.54.14 2.07-1.49 2.31-3.26.16-1.21 0-2.43-.17-3.63-2.19-14.68-14.76-29.34-25.71-30.18-3.38-.26-6.76-.49-10.09.37-2.32.6-3.47-.55-4.4-3.35-1.41-4.15-3.02-8.25-6.59-9.87z"/><path class="fil17" d="M1065 56.22c2.58 4.2 5.28 8.27 6.34 13.82.4 2.06 1.88 1.87 3.14 1.55 3.41-.86 6.88-.58 10.29-.92 10.48-1.04 24.37 16.18 25.85 29.4.11 1.04.31 2.11.29 3.15-.01.92-.27 1.91-1.11 1.94-.77.03-.7-.98-.87-1.66-.35-1.43-.48-3-1.3-4.16-1.22 5.67-5.24 4.69-7.56 4.06-7.7-2.06-15.48-.37-23.15-2.14-2.2-.51-4.57-.32-5.94 2.92 3.05 8.14 6.09 16.27 9.14 24.42 2.77 8.11 7.65 14.01 11.82 20.64 1.58-3.63-.8-5.47-1.92-7.91-.31-.68-1.35-1.01-.79-2.06.29-.55 1.08-.29 1.61-.14 5.06 1.52 10.03 3.43 15.14 4.63 8.91 2.11 17.89 3.03 26.88 3.2 10.12.2 20.26.4 30.4-.58 10.07-.98 20 1.23 29.48 6.25.63.34 1.34.58 1.73 1.35 2.48 4.9 6.12 5.52 10.13 5.5 13.06-.06 26.12-.09 39.17-.52.57-.01 1.12-.08 1.63-.46.56-3.58-1.7-3.61-3.06-3.73-5.17-.46-10.21-2.57-15.44-2.21-2.6.17-4.82-.61-6.62-3.5-1.65-2.66-4.11-2.98-6.54-2.87-8.31.32-16.35-1.98-24.36-4.5-2.78-.88-5.44-2.26-7.66-4.66-5.33-5.75-11.41-7.51-18.03-6.85-.67.06-1.81.2-1.78-.55.06-1.2 1.04-.48 1.62-.35 2.45.49 4.92.68 7.35 1.51 1.53.52 3.16.61 4.68-.06 11.19-4.98 22.56-4.78 34.01-2.3 2.86.61 5.6-.45 8.41-.55 12.73-.49 25.44 1.61 38.18.88 1.92-.11 3.51.72 4.66 2.98.93 1.83 2.32 2.87 3.89 3.44 1.34.49 2.43 1.48 3.47 2.72 3.62 4.32 6.34 4.55 10.33.88 1.11-1.01 2.49-1.51 3.32-3.09.34-.68.49-1.43.5-2.24-.71-5.36-3.68-7.15-7.13-8.05-2.57-.68-5.08.25-7.59.69-.43-.17-.99-.21-1.2-.74-2.38-5.67-5.92-8.77-10.7-9.87-1.83-.42-3.5-1.03-5.21.05-2.24 1.4-4.32 1.08-6.38-.69-1.95-1.66-4.14-2.12-6.45-2.14-4.82-.03-6.12-1.61-7.63-7.79-1.92-7.84-6.17-12.69-11.79-14.95-7.03-2.83-14.25-3.83-21.57-2.14-2.81 1.08-4.52-.09-5.43-4.1-.66-2.89-2.23-5.21-4.09-7.02-1.14-.92-2.53-.37-3.72-1.08-.07-9.74-.11-9.14-7.5-10.25-15.68-2.34-31.41-1.78-47.11-2.78-3.51-.23-7.1-1-10.63-2-3.73-1.06-7.7-.32-11.58-1.26-2.03-.49-3.4-2.81-5.09-2.8-6.32.09-11.11-3.26-14.96-9.96-2.03-3.53-4.79-2.69-7.95-2.15-4.7.78-6.86 5.15-9.68 8.87-1.1 1.43-2.06 3.26-3.92 3z"/><path class="fil18" d="M1245.68 158.05c-13.97 0-27.93-.02-41.88.02-3.39.01-6.48-.38-8.05-5.5-.77-2.54-2.98-1.71-4.5-2.47-10.38-5.24-21.04-6.04-32.09-5.19-10.96.84-22 .68-33.03-.29-9.56-.83-18.99-2.2-28.31-4.99-2.73-.81-5.32-2.58-8.17-2.58-1.09 0-2.48.14-2.91 1.57-.34 1.12.96 1.84 1.51 2.77 1.45 2.46 3.38 4.49 3.73 7.88 1.44 3.4 2.85 6.82 4.77 9.77 5.17 1.89 10.49 1.75 15.72 1.37 4.41-.32 8.75.38 13.11.41 34.13.2 68.29 1.17 102.39-.29 20.29-.87 40.57-.49 60.85-.94v-3.41c-12.6 0-25.2 0-37.8.04-1.87-.03-3.91-.6-5.33 1.86z"/><path class="fil19" d="M1288.81 158.92c-24.94.01-49.87.03-74.8.03-28.04 0-56.1.02-84.14-.09-9.06-.03-18.1-.49-27.15-.69-2.01-.05-4.07-.51-5.97.85l2.05 4.58c1.01 1.91 2.4 2.74 4.1 2.52 10.11-1.35 20.24-.29 30.37-.63 16.21-.54 32.38.86 48.58 1.15 13.04.23 26.08.57 39.11 1.24 8.54.45 17.07.69 25.61 1.17 1.3.08 2.72.54 3.88-.88-5.27-1.41-10.6-1.81-15.95-1.83-1.78 0-2.36-1.14-2.32-3.38.02-2.11.66-3.12 2.22-3.04.45.03.94-.17 1.35.02 3.46 1.51 6.9.02 10.35 0 14.24-.04 28.48-.03 42.72-.02v-.99z"/><path class="fil1" d="M1250.42 168.14c-14.5-.26-28.97-1.58-43.48-2.04-11.33-.37-22.68-1.15-34.02-1.67-21.72-1-43.45-.74-65.18-.94-2.99-.03-5.97 2.26-8.97.11.66 2.2.01 3.33.67 5.53-.14 0 5.84.02 8.1.02 38.4-.08 76.8-.43 115.19.18 11.46.18 22.93.29 34.4.66 2.85.09 5.66 1.68 8.65.51-5.06-2.49-10.37-.51-15.37-2.35z"/><path class="fil21" d="M1288.81 130.68c-.41.32-.83.66-1.24 1.01-1.9 1.66-3.76 3.09-6.03 3.4-1.48.45-2.92.52-4.18 2.3-2.41 3.43-5.28 1.71-8.24-.51-5.25-3.92-9.03-11.62-16.54-10.3-9.49 1.68-19.11-1.38-28.64-.55-9.34.83-18.56-1.21-27.85-1.01-7.15.15-14.28-.08-21.16 4.03-3.45 2.04-7.2-1.46-10.89-1.67-.9-.05-1.77-.49-2.66-.49-.95 0-2.28-.6-2.66 1.09-.42 1.8.79 2.64 1.76 3.44 1 .83 2.1 1.09 3.25.77 6-1.71 11.43.21 16.14 5.26 3.3 3.53 7.01 5.47 11 6.62 8.03 2.32 16.07 4.46 24.36 3.92 2.12-.14 3.87.48 4.95 3.6 1 2.86 3.34 2.97 5.34 2.75 5.8-.65 11.35 2.17 17.11 2.06 1.07-.02 2.22.55 3.08 1.66 14.38 0 28.75 0 43.12.01V130.7z"/><path class="fil13" d="M1140.79 107.6c-6.46-1.66-13.04-1.64-19.45-.65-5.59.88-11 3.8-16.52 5.72-3.37 1.17-6.77 2.17-10.17 3.2-1.24.38-2.36 1.03-3.23 2.31-1.92 2.81-1.61 4.7 1.09 5.96 7.89 3.66 16.07 5.18 24.33 6.59 11.73 2.01 23.45 2.92 35.24 2.55.57-.02 1.12-.02 1.69 0 1.26.01 2.63.08 3.26-1.69.65-1.81-1.12-2.4-1.36-3.83-.17-4.32-3.06-5.29-5.09-6.81-1.81-1.37-2.83-2.69-3.49-5.41-.96-4-2.52-7.78-6.3-7.95z"/><path class="fil22" d="M1267.33 128.74c-1.53-1.81-1.42-4.75-2.62-6.84-2.82-4.89-6.78-6.44-11.01-6.87-2.51-.26-4.85-.55-7.14-2.15-3.17-2.2-6.59-1.74-9.87-.41-2.46 1-3.51-.58-3.68-3.41-.22-3.38 1.89-2.37 3.15-2.37 17.55-.01 35.1-.13 52.65-.1v-3.31c-6.7-.58-13.41-.53-20.13-.31-10.79.35-21.54-.85-32.31-.95-2.1-.02-3.72-.98-4.9-3.26-.92-1.77-2.05-3.21-3.22-4.55 1.61-1.94 3.53-.37 5.25-.84 1.28-.35 3.03.68 3.41-2.2-.23-.03-.45-.11-.67-.09-7.82.77-15.3-1.15-22.87-3.83-5.6-1.97-11.61-1.89-17.12 1.92 6.4-1.68 12.76-.88 19.02 1.03 7.71 2.35 12.99 8.05 14.3 19.47.44 3.86 3.82 4 5.94 4.1 3.63.17 6.88 1.04 9.84 3.87 1.35 1.29 2.64.98 4.1.03 5.6-3.64 13.38.54 15.78 8.25.36 1.23.01 3.78 2.09 2.81z"/><path class="fil23" d="M1140.79 107.6c2.43 2.98 5.57 5.19 5.57 10.63 0 1.95 1.51 2.43 2.65 3.03 2.66 1.37 5.03 3.24 6.68 6.52 1.46-.43 1.19-1.43.44-2.55-1.52-2.27-3.31-4.2-5.32-5.5-1.3-.84-2.06-2.01-2.15-3.7-.46-8.01-4.68-11.45-9.41-13.95-6.1-3.24-12.45-3.58-18.87-1.94-.33.09-.68.09-.99.26-1.12.63-3.04 1.66-2.78 2.69.52 2 2.06.43 3.15.12 7.44-2.18 14.48-1.03 21.03 4.39z"/><path class="fil24" d="M1281.54 135.12c2.46 1.43 4.35.37 6.48-1.71.26-.25.52-.49.78-.72v-4.05c-1.25.9-2.49 1.92-3.72 3.05-1.09 1-1.95 2.72-3.54 1.54 0 .63-.01 1.26-.01 1.89z"/><path class="fil26" d="M1226.74 93.81c.11.26.23.52.34.78 3.24 8.33 8.43 9.44 15.03 9.67 15.57.55 31.14.39 46.7.42v-6.84c-3.25-1.26-6.49-2.58-10.12-2.42-13.84.63-27.7.21-41.55.21h-3.3v-.97h15.98c-.12-1.8-1.11-2.14-2.15-2.18-6.69-.29-13.35.35-20.03.66-.39.03-.62.43-.9.66z"/><path class="fil27" d="M1226.74 93.81c6.48.06 12.98.11 19.46.2 1.21.02 2.47-.32 3.59.69 13.01-.01 26.01-.01 39.02-.01v-3.57c-.16.02-.32.05-.49.08-6.97 1.41-13.92-.51-20.88-.2-.96-1.15-2.06-1.75-3.38-1.78-3.6-.05-7.21-.09-10.81.03-1.18.03-2.22.46-3.02 1.72-4.45.08-8.9.15-13.35.23-3.31 1.72-6.76.34-10.11.88-.36.06-1.2-.65-1.04.68.07.4.66.71 1.01 1.06z"/><path class="fil28" d="M1250.25 90.95c5.74.02 11.46.02 17.2.03-.51-4.75-2.61-7.79-5.94-8.74-4.06-1.17-8.05-.72-11.29 3.46-1.34 1.71-.93 3.52.03 5.26z"/><path class="fil13" d="M1074.02 107.6c6.46-1.66 13.04-1.64 19.45-.65 5.59.88 11 3.8 16.52 5.72 3.37 1.17 6.77 2.17 10.17 3.2 1.24.38 2.36 1.03 3.23 2.31 1.92 2.81 1.61 4.7-1.09 5.96-7.89 3.66-16.07 5.18-24.33 6.59-11.73 2.01-23.45 2.92-35.24 2.55-.57-.02-1.12-.02-1.69 0-1.26.01-2.63.08-3.26-1.69-.65-1.81 1.12-2.4 1.36-3.83.17-4.32 3.06-5.29 5.09-6.81 1.81-1.37 2.83-2.69 3.49-5.41.96-4 2.52-7.78 6.3-7.95z"/><g><path d="M1203.27 138.47c17.39-11.35 18.31-37.15 0-63.15-2.64-4.35-6.63-5.38-10.82-5.75-1.74-.15-3.62.27-4.49-2.16-.39-1.19-.75-2.4-1.81-3.02-1.16-.45-1.38-1.7-1.63-2.79-2.88-12.16-13.73-21.85-25.12-20.5-10.05.92-15.38 8.18-13.11 18.48.53 2.41-.28 4.28-1.18 6.29-1.13 2.53-1.67 5.1 1.09 6.87.32.21.71.28 1.07.37-.37.01-.76-.01-1.13.01-4.49.28-8.34 2.65-12.13 5.11-2.36 1.52-3.78 3.96-4.62 6.84-.94 3.23-2.06 6.38-3.08 9.57-.39 3.13-2.05 3.38-4.44 3.22-10.81-.73-18.59 5.96-20.82 17.63-.28 1.44-.76 3.04-.3 4.38 1.36 3.98-.66 5.63-3.22 7.15-3.18 1.89-6.41 3.67-9.43 5.87-1.52 1.12-3.08 2.19-3.49 4.47-.69 3.11.63 4.41 3.11 4.71 10.68 1.3 21.37.88 32.08.19 7.93-.51 15.85-.07 23.78-.1 14.06-.04 28.13-.01 42.17-1.06 4.59-.34 9.16-.89 13.77-.83 1.44.02 2.73-.54 3.76-1.79z" style="fill:#788f79;fill-rule:nonzero"/><path d="M1078.05 146.46c-.08.73-.06 1.51-.26 2.19-1.76 6.15-.55 8.37 5.13 8.46 10.83.18 21.64 1.53 32.49.94 8.25-.46 16.51-1.09 24.74-1.56 13.31-.76 26.64-1.65 39.98-1.12 7.8.31 15.43.75 23.12-.25 4.73-2.34 5.02-14.3 2.66-20.24-10.46-.06-23.53 4.83-33.97 5.2-16.06.58-32.16-.28-48.2.37-7.82.33-15.66-.49-23.44.7-4.61.7-9.1-1.04-13.72-.73-2.52.16-.68-2.37-.84-3.67-4.03.49-7.71 5.14-7.71 9.7z" style="fill:#82987f;fill-rule:nonzero"/><path d="M1203.27 72.65c-5.38-2.79-10.8-5.39-16.9-4.5.51 2.5 2.47 2.64 3.95 2.55 4.85-.28 8.89 2.15 12.94 4.62v-2.67z" style="fill:#a5a184;fill-rule:nonzero"/><path d="M1101.87 42.37c-1.38-1.36-3.22-1.19-4.74-1.3-7.06-.49-14.18-1.77-21.23-.37-7.77 1.53-12.19 7.72-12.55 16.79-1.84 3.1-4.84 4.93-6.55 8.18-.8 1.28-1.98 1.18-3.13 1.21-1.02.03-2.19-.34-3.04.13-4.76 2.74-8.58.21-12.73-2.24-3.77-2.22-8-2.97-12.11-.45-7.12 4.25-12.49 10.39-15.4 19.18-.26.78-.81.43-1.26.51-1.06.6-1.25 1.77-1.54 2.92-1.38 5.42-4.84 7.05-9.21 4.65-3.51-1.92-7.09-4.47-11.05-1.15-.21.3.13.97-.14 1-4.94.63-8.13 4.11-10.76 8.6-.77 1.31-1.4 2.79-2.69 3.61-2.47 2.06-5.02 3.96-6.86 6.88-1.38 2.19-2.73 2.43-4.62.27-2.84-3.28-6.32-5.35-10.53-5.23-3.92 1.61-8.21 1.91-11.8 4.74-3.13 2.47-4.84 5.82-6.29 9.9-.14 3.49-.14 6.46.28 9.87.22 1.77-.05 3.44-.5 5.13.24 2.58.12 5.28 1.79 7.39 1.33 1.03 2.9 1.06 4.38 1.42 2.03.51 3.28 1.58 3.69 4.28.61 3.93 2.77 4.99 5.46 2.5 2.84-2.64 5.33-3.73 8.43-.79.94.89 2.33.78 3.26-.06 2.77-2.47 7.05-2.86 8.04-7.82.1-.51.72-.79 1.15-1.13.79-.6 1.53-1.24 1.94-2.27.1-.43.24-.92.08-1.3-2.95-6.56.49-10.89 3.95-15.18 1.08-1.34 2.34-2.44 4.05-1.67 2.52 1.13 3.82-.36 4.84-2.73.4-.92.85-1.89 1.66-2.38 1.17-.7 2.53-.88 3.72-.42 1.52.6.68 2.28.73 3.49.05 1.18-.24 2.35-.14 3.55.4 2.37 1.83 3.49 3.71 4.02 5.98 1.68 11.14-2.15 16.69-3.37.9-.19 1.9-.82 2.08-1.79.98-5.17 5.1-8.43 6.04-13.62.42-2.37 1.57-4.35 3.09-6.04 1.54-1.71 3.04-2.73 5.46-1.77 2.95 1.16 4.89-1.5 4.01-5.04-.18-.72-.6-1.33-.8-2.01-1.17-4.17 1.33-7.69 4.94-6.59 4.93 1.51 9.29.83 13.38-2.86 1.04-.94 2.91-3.84 3.78.95.44 2.38 3.02 1.34 4.5-.01 1.45-1.33 1.97-3.43 2.82-5.24 1.75-3.74 4.34-5.63 8.11-5.39 4.72.3 6.7-1.83 7.05-7.36.14-2.19-.31-4.47.86-6.48 3.37-9.57 10.92-10.43 18.23-11.71 3.85-.67 7.52 1.3 11.34 1.16 2.21-.98 2.63-2.04.42-3.86-1.32-1.18-2.84-1.82-4.3-2.7z" style="fill:#bfa780;fill-rule:nonzero"/><path d="M1025.86 156.34c5.38-8.85 13.74-9.57 21.93-10.7 2.43-.34 4.62 2.7 7.22.89 3.11-.28 3.15-3.35 3.71-5.75.6-2.68.63-5.54 2.05-7.94 1.96-6.24 6.14-9.28 11.5-10.3 2.73-.52 4.85-1.64 6.07-4.63.93-2.27 2.53-3.76 4.53-4.52 3.13-1.19 4.3-3.84 4.65-7.35.57-5.81 2.46-10.85 6.54-14.53 6.64-5.99 13.6-4.66 20.55-.94 3.1 1.67 5.82 4.25 9.11 5.56 1.36.28 2.57-.04 3.56-1.21 1.44-1.64 1.76-3.93 2.44-5.96 3.05-9.06 9.46-14.35 17.95-14.54.39-.01.79.09 1.15-.01.99-.3 2.73.85 2.84-.92.08-1.37-1.6-1.53-2.77-1.7-4.26-.61-4.84-2-2.16-5.98 1.52-2.25 1.75-4.05.9-6.82-2.02-6.6.67-12.52 6.37-14.87 1.8-.75 3.68-1.19 5.52-1.77 1.39-1.04 4.32.49 4.26-1.15-.08-2.01-2.9-1.36-4.49-1.65-4.45-.86-8.8.01-13 1.92-6 2.37-10.49 6.39-11.49 14.2-.12.94-.36 1.77-1.24 1.97-4.3.91-7.4 4.26-10.83 6.96-1.35-.75-2.43-1.98-3.8-2.74-3.35-1.86-3.53-1.76-3.62 2.82.04 3.46-.79 6.74-1.78 9.94-1.61 5.23-4.64 7.02-9.39 6.71-8.58-.57-16.63 1.03-22.47 9.42-.81 1.16-1.85 2.25-2.12 3.67-.98 5.17-4 7.87-7.98 9.79-2.14 1.03-3.86 3.04-5.22 5.16-3.74 5.86-9.02 8.96-14.64 11.5-.95.43-1.96.8-2.26 2.15-.33.4.99.51.14 1.01-3.72 2.15-6.96 4.89-8.57 9.58-.12.89.26 1.73.27 2.61.08 5.17-1 6.53-5.58 6.35-2.95-.1-5.51.88-7.81 2.83-3.35 2.8-4.09 7.08-2.03 10.97z" style="fill:#bfa781;fill-rule:nonzero"/><path d="M1146.29 41.45c5.51-1.24 10.99-2.88 16.57-.37-.85 1.01-2.51-.07-3.36 1.25 12.55-.97 20.59 7.73 24.26 20.74.27.98.37 2.38.97 2.8 1.29.91.55-.85.91-1.27-.28-2.35-.55-4.72-.84-7.08-8.97-15.44-21.57-21.83-35.08-17.84-1.22.37-2.47.69-3.44 1.76z" style="fill:#aea687;fill-rule:nonzero"/><path d="M1116.43 64.71c-.54-3.11.22-3.86 2.68-2.13 1.13.79 2.11 2.12 3.63 2-5.65-3.64-9.54-8.81-12.22-15.78-1.36-3.53-4.85-5.9-8.65-6.42 1.44 1.15 2.91 2.25 4.3 3.46 1.22 1.06.57 1.61-.5 1.95-.19.6-.15 1.25.22 1.62 3.84 3.81 5.33 9.45 8.16 14.04.67.75 1.27 1.67 2.39 1.27z" style="fill:#ada285;fill-rule:nonzero"/><path d="M1127.27 94.92h-3.94c-2.38-.33-4.74-.33-7.13-.01-12.08 1.61-18.68 9.13-19.38 23.31-.24 5.08-1.93 7.67-5.82 9.46-3.54 1.62-6.77 4.07-9.66 7.02-2.7 3.86-6.11 6.99-8.54 11.15-.77 1.31-2.07 1.55-3.29 1.94-1.57.51-3.27.88-3.71 3.19.05 1.58-.27 3.5 1.43 4.11 1.83.66 3.63.61 5.38-.86 2.42-2.06 3.2-5.57 5.46-7.72 1.76-4.1 4.66-6.97 7.69-9.72 4.36-4.22 9.55-6.81 14.53-9.82 1.96-1.18 3.47-1.48 2.08-5.51-1.78-5.2.82-10.67 3.86-15.09 4.26-6.2 10.26-7.75 16.56-6.81 3.74.55 4.57-1.01 4.48-4.62z" style="fill:#b7a782;fill-rule:nonzero"/><path d="M1025.86 156.34c-1.31-7.66 3.81-13.55 11.09-11.86 3.71.86 5.94-2.06 5.74-6.57-.08-1.59-.48-3.17-.73-4.75-2.25-.8-2.59 1.98-3.95 2.83-4.45 2.46-8.98 4.69-13.15 7.78-.8.6-1.71.55-2.59.45-4.08-.46-7.13 1.53-9.47 5.24-1.3 3.19-3.01 6.15-3.96 9.55-.6 2.15-2.07 2.83-3.77 3.2-2.75 1.04-5.52 1.82-8.44 1.65-1.24-.07-2.55-.04-3.22 1.58.72 2.41 2.39.57 3.55 1.01.17.06.31-.1.33-.09.23-.42.31-.34.13.16-.03.09-.42-.07-.68-.01-2.86.64-6.36-.4-7.76 3.99.26 1.83 1.53 2.03 2.63 1.71 7.24-2.06 14.48.15 21.71.12 3.22-.01 5.2-1.31 6.86-4.41 1.8-3.35 3.02-7.18 5.61-9.95.04-.54.06-1.09.08-1.64z" style="fill:#c3ad83;fill-rule:nonzero"/><path d="M1065.79 150.95c6.07-.77 9.48-5.74 12.82-10.88.98-1.52 2.17-2.85 3.28-4.26-1.71-1.37-2.97.01-4.03 1.15-2.06 2.24-4.37 2.8-7.04 2.19-.5-.12.12-.15-.37-.04-5.22 1.1-9.1-.61-10.82-6.87-1.63 2.8-1.8 6.08-2.35 9.25-.33 1.91-1.07 3.62-2.25 5.05-.06 1.43-2.78 1.34-1.51 3.53 1.35 1.62 2.81.69 4.18.15 1.44-.55 2.82-1.13 4.26-.12 1.13 1.12 2.39 1.52 3.83.85z" style="fill:#81957c;fill-rule:nonzero"/><path d="M1061.94 150.1c.82-2.04-.59-1.64-1.48-1.83-2.55-.55-4.52 1.88-6.96 1.8-.42.54-.84 1.09-1.29 1.59-.62.69-1.67 1.31-.88 2.44.53.74 1.45.3 2.1-.18 2.63-1.95 5.74-2.37 8.51-3.83z" style="fill:#ada682;fill-rule:nonzero"/><path d="M988.99 170.53c2.92-2.35 6.25-3.38 9.7-4.52h-5.16c-1.12-1.71-2.75-1.24-4.23-1.27-10.18-.24-20.36.04-30.55-.22-4.5-.12-9.12.61-13.69.73-1.2.03-2.24.52-2.96 1.71-.04 1 .06 1.94.73 2.68 1.71 2.06 3.95 1.64 6.09 1.73 2.74.13 5.58-.66 8.11 1.28 5.01-2.35 10.47-.63 15.58-2.32.69-.24-.44 1.33.21 1.92 4.13-2.44 8.42-4.04 13.14-3.53 1.23.12 2.61-.18 3.04 1.8z" style="fill:#aba37c;fill-rule:nonzero"/><path d="M972.79 172.24c.49-.67.96-1.34 1.47-2 .3-.4.98-.64.58-1.31-.14-.24-.73-.25-1.08-.15-4.48 1.24-9.05.75-13.58.85-1.6.03-2.08 1.37-2.74 2.61-.45.57-.44 1.13 0 1.7.21.13.41.21.64.24 4.9-.66 9.81-1.3 14.71-1.94z" style="fill:#d0bb87;fill-rule:nonzero"/><path d="M1116.43 64.71c-.49-.63-.99-1.25-1.48-1.88-.1.09-.28.15-.3.25-.91 5.93-4.54 5.66-8.47 5.16-6.41-.82-12.13 3.02-18.34 3.81-2.26.28-4.56.61-6.81 1.16-2.89.72-4.03-.73-3.81-4.04.13-1.91.15-3.84-.06-5.75-.21-1.77-.41-3.58-2.23-4.22-1.21 1.85-.61 3.99-.68 6.02-.22 5.14-1.88 6.82-6.14 6.14-3.62-.58-7.27 2.18-9.41 6.82-.93 2-.95 4.77-3.28 5.68-.46.18-1.17.43-1.47.18-.94-.8.21-1.09.46-1.53.55-.94.85-1.95.24-2.88-.63-.95-1.6-.63-2.48-.37-1.78.49-3.47 1.39-4.72 2.83-3.29 3.8-7.1 3.68-11.03 2.16-2.57-1-4.83-1.31-6.28 1.83-1.24 2.67-2.92 5.51-.01 8.29 1.42 1.34.62 2.73-.14 3.87-.99 1.49-1.69.31-2.41-.57-1.36-1.64-2.9-1.1-4.16.03-1.51 1.34-3.65 2.8-4 4.59-1.15 6.01-5.83 9.85-6.69 15.88-.19 1.33-.71 3.34-1.75 3.08-5.01-1.24-8.53 5.78-13.77 3.1-.71-.37-1.9.52-2.87.83-1.3.13-2.2 1.46-3.51 1.55.84-1.62-.4-3.47.42-5.1 1.4-2.25.37-4.9.88-7.32.12-.57.04-1.09-.61-1.37-2.69-1.19-7.19.73-8.18 3.9-.8 2.56-1.47 3.96-3.77 1.67-.42-.42-1.49-.24-2.17.01-6.31 2.34-9.81 13.55-6.25 19.89 1.17 3.81 4.13 3.98 6.9 4.46 5.74.98 11.5.37 17.2-.18 5.24-.51 10.46-.37 15.69-.67 8.57-.49 16.97-2.21 25.31-4.5.91-.25 1.67-.67 2.3-1.43 3.23-4.77 6.67-9.31 11.04-12.77 4.39-.6 7.53-4.83 11.9-5.47 1.17-.18 1.35-1.64 1.98-2.53 3.62-5.22 7.42-10.22 13.18-12.35 1.63-.61 2.48-1.68 2.9-3.65 1.63-7.88 6-12.9 12.67-14.95 4.4-1.36 8.87-2.53 13.56-1.19 3.22.91 8.06-3.02 8.99-7.15.84-3.74 1.72-7.47 1.63-11.36z" style="fill:#748c78;fill-rule:nonzero"/><path d="M1005.77 163.46c2.32.13 3.67-.88 4.37-3.67.86-3.34 2.28-6.5 3.45-9.73-4.19-.72-8.36-.1-12.48.7-10.95 2.13-21.97.55-32.94 1.04-.75.03-1.66.04-2.05-.86-.49-1.15.26-1.98.89-2.7 2.2-2.5 3.1-5.36 1.96-8.85-.95.1-2.02.51-2.03 1.62-.03 3.13-1.65 3.83-3.76 5.33-3.17 2.27-5.19 3.5-8.35.13-2.01-2.13-3.96.27-5.58 1.97-1.11 1.16-2.08 3.04-3.84 2.16-1.78-.89-.68-2.76-.67-4.29.03-3.4-2.64-3.14-4.39-3.81-1.39-.54-3.95-.28-5.47-.37-7.89 7.71-11.23 21.04 6.34 22.2 3.6 1.56 7.37 1.01 11.01.73 10.85-.86 21.68-.06 32.53-.33 7.03-.18 14.04-.19 21-1.28z" style="fill:#829980;fill-rule:nonzero"/><path d="M1074.94 59.23c1.48 3.68 1.07 7.63.6 11.32-.5 3.95 1.08 5.08 3.73 4.68 5.65-.86 11.45-1.46 16.82-3.5 4.7-1.77 9.25-2.01 13.91-1.53 4.93.49 4.9.79 4.93-4.71 0-.88.01-1.77.01-2.65-2.69-5.35-4.22-11.65-9.29-15.05-9.06-3.11-17.76-2.35-25.9 3.44-2.53 1.8-4.4 4.37-4.81 8z" style="fill:#6f8777;fill-rule:nonzero"/><path d="M968.98 139.38c-.44 1.16-1.63 1.98-1.13 3.56.64 2-.35 2.79-1.7 3.76-1.62 1.15-3.09 3.34-2.64 5.35.45 2 2.77 1.53 4.39 1.55 8.65.01 17.33.63 25.92-.19 6.6-.63 13.42-.51 19.79-3.34 2.74-3.05 5.51-5.74 9.78-3.86 1.72.76 2.79-1.28 3.91-2.28 3.54-3.16 8.06-4.13 11.59-7.21.45-.58.48-1.18.01-1.77-4.32 3.53-9.56 1.98-14.3 3.37-7.57 2.21-15.35 2.15-23.14 2.06-4.83-.06-9.65.52-14.46.95-5.48.49-10.87.52-15.83-2.88-.75.3-1.47.63-2.2.94z" style="fill:#7c947d;fill-rule:nonzero"/><path d="M1025.76 65.4c-8.98 2.07-13.63 9.15-16.12 18.72.05.43-.03.98.18 1.3.84 1.27.94-.18 1.12-.55 1.27-2.53 2.43-5.16 3.72-7.67 2.65-5.23 7.04-8.3 11.11-11.79z" style="fill:#dfce9a;fill-rule:nonzero"/><path d="M933.47 117.98c.13.57.26 1.13.39 1.71 3.44-6.84 8.56-10.67 15.31-11.73.96-.15 1.87-.85 2.81-1.3-6.37-.7-11.84 1.56-16.43 6.69-1.13 1.25-1.94 2.74-2.07 4.62z" style="fill:#d9cd9e;fill-rule:nonzero"/><path d="M987.33 91.24c-6.68 1.37-11.5 5.14-12.87 13.38 1.07-.04 1.51-.97 1.92-1.91 2.38-5.47 6.11-9 11.26-10.52.13-.03.33-.06.35-.15.17-.66-.35-.61-.66-.8z" style="fill:#dcce9f;fill-rule:nonzero"/><path d="M991.28 121.64c-1.7 2.18-1.3 5.29-2.55 7.67-.26.49-.39 1.25.17 1.48.35.13 1-.16 1.31-.52 1.42-1.65 2.77-3.38 4.14-5.1-1.12-1.06-2.74-1.53-3.08-3.53z" style="fill:#ada07f;fill-rule:nonzero"/><path d="M1059.61 132.23c.08 7.78 1.62 9.31 8.27 8.27.62-.09 1.31-.19 1.88.01 3.95 1.52 7.23.64 9.81-3.32.54-.85 1.36-1.33 2.3-1.4 3.96-2.97 7.8-6.18 12.3-8.03 2.73-1.12 3.81-3.2 3.89-6.72.45-20.3 9.89-24.51 23.88-25.03.72-.03 2.02 1.15 1.38-1.1-6.13-4.89-12.2-9.55-20.25-9.06-7.66.46-15.18 7.45-16.51 16.17-.27 1.74-.71 3.5-.68 5.24.03 2.53-.95 3.78-2.97 4.34-3.1.83-5.3 2.98-6.27 6.5-.66 2.4-2.17 2.37-3.89 2.65-6.13 1.07-11.27 3.82-13.14 11.49z" style="fill:#778f79;fill-rule:nonzero"/><path d="M1038.89 134.93c0 .6-.01 1.18-.01 1.77 1.03-1.18 2.06-2.35 3.09-3.55 2.14-3.89 5.57-6.18 8.45-9.15.04-.04-.03-.34-.1-.39-.22-.13-.46-.19-.69-.3-5.43 1.59-8.04 6.65-10.73 11.61z" style="fill:#cfbd8c;fill-rule:nonzero"/><path d="M1005.77 163.46c-13.54-.07-27.07.22-40.6-.37-6.7-.3-13.36.61-20.05.18-1.33-.09-2.86-.58-3.89 1.06.28.86.57 1.74.85 2.61 17.14-.91 34.28-1.09 51.43-.95 3.94-1.79 8.43.03 12.25-2.52z" style="fill:#e9d597;fill-rule:nonzero"/><path d="M943.78 173.95c4.36-.94 8.71-1.39 13.05.18.22-.04.42-.12.62-.22v-1.7c-.64-2.38-2.01-2.89-4.1-2.7-3.49.31-7 .1-10.5.12.31 1.45.62 2.89.94 4.32z" style="fill:#e3c78a;fill-rule:nonzero"/></g></g></g></g></svg>