<svg xmlns="http://www.w3.org/2000/svg" xml:space="preserve" width="2001.131" height="1139.558" style="shape-rendering:geometricPrecision;text-rendering:geometricPrecision;image-rendering:optimizeQuality;fill-rule:evenodd;clip-rule:evenodd" viewBox="0 0 1288.81 733.92"><defs><style>.fil1{fill:#011121;fill-rule:nonzero}</style></defs><g id="Слой_x0020_1"><g id="_105553272842016"><path style="fill:none" d="M1288.81 733.92H0V0h1288.81z"/><path class="fil1" d="M1110.62 660.36c.51.74.68 1.69 1.58 2.2 10.95 6.21 13.93 15.09 21.86 22.29 1.29 1.18 2.9 2.79.68 4.04-2.03 1.13-4.02-.44-6.11-.67-2.67-.3-5.82-1.5-7.93-.33-2.73 1.53-.37 3.67 1.18 4.87 4.95 3.81 7.29 8.42 11.82 12.33.87.76 2.28 1.79.82 2.65-1.89 1.12-3.52.05-5.04-.62-2.67-1.17-4.98-3.91-8.95-1.59-3.26 1.89-.68 4.04 1.1 5.84 6.39 6.46 15.25 11.77 25.21 16.22 4.48 2 8.47 4.41 13.12 6.35h128.85v-65.67l-2.44-13.82c.72-.32 1.57-.36 2.44-.37V639.4c-1.75-2.45-3.81-4.85-3.54-7.55 1.18-11.46-5.01-22.62-3.43-34.09.42-3.11-.11-6.25-2.36-9.12-1.46-1.87-3.49-3.3-6.36-.56-1.52 4.7-3.01 9.42-4.84 14.09 3.09 6.77 2.34 13.45-1.04 20.12-1.04 2.04-1.55 4.32 1.18 6.03 3.09 1.92 2.05 3.85.96 5.87-4.5 7.23-4.56 15.3-12.02 21.99 5.26 2.56 5.01 5.16.56 8.04-1.52.97-1.97 2.76-.23 3.63 8.16 4.11 1.38 7.54-1.35 11.03-1.72 2.2-5.77 4.93-1.74 6.54 7.09 2.83.53 3.58-1.29 4.93-1.29.94-3.12.69-3.46-.69-.56-2.24-2.81-4.6-1.27-6.71 3.8-5.14.54-9.93-1.13-14.83-1.04-1.82-2.79-2.83-6.22-1.76-1.49.46-2.93 1.05-4.45.03-2.93-5.7-1.15-11.64-2.7-17.41-.48-1.74-1.29-3.44-2-5.13-1.41-3.42-3.35-3.65-9.03-1.36-.39.49-.65 1.04-.79 1.58-.62 5.08 1.24 10.24-1.24 15.27-2.76 2.79-5.52 5.6-5.68 8.97 2.9 3.39 3.83 6.67-.62 9.99-2.22 1.68-1.13 3.73-.82 5.67.11.62-.25 1.53-1.46 1.5-1.29-.03-1.29-.99-1.13-1.56 1.89-7.28-2.05-14.53-.51-21.81-2.25-3.9-2-7.94-2.03-11.97-.03-2.43.11-4.98-5.12-5.88-2.56.56-3.07 1.86-3.52 3.21.25 5.52 1.01 11.08-2.39 16.42-.96 1.5-.2 2.88.9 4.24.87 1.08 1.15 2.24.03 3.29-1.43 1.36-3.49 1.56-5.71.66-2.08-.85-2.56-1.61.34-2.37 2.84-.76 2.9-2.3 2.05-3.8-3.04-5.42-10.3-9.25-15.42-13.89-.31-.3-.59-.56-.84-.77.98-.33-.59.21.45.43.42.08.56.54.87.8 1.41 1.2 2.64 2.53 4.7 3.42 4.92 2.15 8.44 1.33 10.72-2.47-.79-1.82-3.15-3.01-5.21-4.34-3.91-2.53-7.29-5.06-2.76-8.56 1.07-.84.9-2.09-.11-2.78-7.48-5.16-4.08-12.28-9.57-17.78-2.11-3.47-2.9-7-1.13-10.57 1.77-3.57-1.18-6.74-2.08-10.08-1.01-3.72-1.86-7.43-2.76-11.14-.48-1.92-1.27-4.37-5.26-4.39-3.71-.02-4 2.43-4.5 4.14-2.39 8.22-1.35 16.6-3.12 24.87-.42 1.92.2 3.96-1.41 5.77-3.07 3.4-5.71 6.79-.68 10.39.31.21-.56.87-1.01 1.27-3.18 3.11-8.58 6.15-.45 9.48 1.74.71.68 1.78.08 2.66-1.04 1.64-3.04 3.12-2.7 5.03 6.89 2.7.87 4.49-1.49 6.36-1.41 1.1-3.07 2.96-5.63 2.42-2.5-.51-.34-2.32-.65-3.55-.37-1.45-.28-2.93-.23-4.41-1.04-2.7-.76-5.47-1.6-8.19-.48-1.48-1.38-2.98-4.08-3.39-3.66-.56-4.5 1.32-5.71 2.73-.45.76-.45 1.56-.48 2.37-.08 2.12-.37 4.67-3.12 5.79-3.71 1.51-4.9-1.71-7.63-2.47-1.72-.48-3.21-1.33-5.26-.56-.23 2.61 2.5 4.47 4.64 6.53 1.41 1.33 3.26 2.94 1.04 4.41-2.17 1.45-4.47-.08-6.73-.44-1.83-.3-3.71-.48-5.57-.72-1.38 1.36 0 2.48 1.29 3.44 1.89 1.56.11 2.03-1.38 2.67zm178.19 3.73c-.79.98-1.21 2.12 0 3.08v-3.08z"/><path class="fil1" d="M1177.15 733.92c-.08-28.37-.04-56.74-.04-85.11-4.4-2.7-7.65.37-11.08 1.72-6.01 2.35-9.83 2.17-14.62-1.23-4.09-2.89-3.75-5.32 1.34-6.6 5.92-1.48 11.9-3.19 18.29-1.11 2.81.91 4.52-.97 6.08-2.64v-92.19c-2.14-.69-3.52.46-4.47 1.66-5.43 6.91-12.24 13.1-14.98 21.44-1.25 3.82-.86 6.66 2.84 9.09.27.37.59.72.88 1.08 1.32 1.75.39 3.16-1.05 4.39-2.13 1.78-4.06 3.76-6.63 5.14-1.66.9-2.91 2.16-4.17 3.43-1.7 1.71-.68 4-1.88 5.82-2.25-1.95-4.79-1.45-7.4-.66-1.89.57-3.24-.09-3.63-1.66-.88-3.61-3.02-6.96-2.81-10.84.23-3.84-.77-7.75-.71-11.51.16-8.67-.14-17.53 3.86-25.85 2-4.18 1.84-8.46 1.02-12.77-1.66-8.83-3.56-17.63-5.18-26.46-1.2-6.52-1.7-13-1.7-19.58-.02-13.25-2.81-26.37-3.04-39.63-.04-1.77-1.18-3.37-3.45-3.4-2.45-.03-3.09 1.83-3.27 3.48-1.43 12.98-5.93 25.43-10.01 37.9-3 9.21-8.53 17.62-14.34 25.8-2.09 2.95-4.11 5.92-5.9 9.01-4.13 7.12-8.88 13.93-14.91 20.08-2.14 2.19-3.95 4.6-5.33 7.21-1.2 2.29-1.79 4.75.8 6.6 2.54 1.8 5.38.76 7.26-.78 6.85-5.61 15.64-8.74 23.35-13.22 1.05-.61 2.2-2.23 3.41-1.29.93.73-.43 2.19-1.04 3.22-1.41 2.41-3.29 4.6-4.7 7.02-2.45 4.15-1.95 5.71 2.77 7.99 1.45.69 2.7 1.26 2.99 2.83 1.38 7.51 3.16 15.02-1.59 22.22-4.67 11.28-14.41 18.55-26.78 23.66-4.15 1.71-8.42 3.19-12.42 5.13-12.35 5.94-26.67 4.36-36.41-4.23-5.38-4.75-10.37-9.82-15.19-14.98-1.18-1.27-2.82-2.79-2.04-4.39 1-2.02 3.43-.79 5.22-.73 2.47.09 4.77-.12 5.9-2.19 1.22-2.22-.18-4.03-1.81-5.7-.93-.94-2.25-1.42-3.56-1.92-2.52-.96-2.23-1.78-.09-3.03 4.77-2.74 4.68-4.51-.29-6.99-4.58-2.28-9.56-3.96-14.09-6.34-2.27-1.18-4.58-2.31-6.06-4.27-2.09-3.27-1.75-7.12-3.65-10.47-.82-1.47.39-2.28 2.23-1.48 2.38 1.03 4.79.45 7.2.37 1.93-.42 3.74-.36 5.7.22 4.24 1.27 4.52.73 4.68-3.09.29-6.43-1.47-12.01-7.45-16.37-1.05-.76-1.68-1.9-2.36-2.95-.64-.99-.64-1.3 1-1.68 5.11-1.18 5.81-2.73 3-6.61-2.93-4.08-6.01-8.07-8.8-12.2-4.45-6.6-6.58-13.75-7.67-21.19-.12-.87-.5-1.39 1.02-1.95 6.69-2.43 8.12-6.33 4.34-11.6-1.2-1.68-2.56-3.21-2.36-5.29-.18-3.21-1.64-6.04-3.41-8.82-.21-.35-2.5-2.22.73-1.44 2.27.54 4.29.67 5.56-1.24 1.29-1.96.36-3.88-1.11-5.4-4.59-4.71-7.33-10.11-9.29-15.88-1.18-3.46-.98-7.09-2.09-10.54-.45-1.42-.7-3.19-2.86-3.37-2.25-.18-2.7 1.59-3.34 2.95-.39.82-.71 1.69-.86 2.58-1.81 10.48-7.4 19.45-15.57 27.38-1.39 1.35-2.57 2.86-3.07 4.63-.32 1.15-.68 2.41.63 3.31 1.25.85 2.65.51 4 .03.93-.33 1.88-1.56 2.56-1.09.64.43-.41 1.57-.64 2.41-.2.72-.43 1.44-.39 2.2-.04 2.49.59 4.68 3.7 5.74 2.39.1 2.31.96 1.43 2.56-1.97 3.58-6.44 5.56-8.2 9.24-1.48 2.95-1.5 5.5 2.56 7.06 3 1.15 1.77 2.95.63 4.44-5.79 7.65-11.08 15.59-19.02 21.93-.39.32-.79.62-1.11.96-1.64 1.66-4.72 3.27-3.15 5.61 1.88 2.77 5.18 1.09 7.56.15 4.45-1.78 7.53.43 10.67 2.19 1.88 1.05.11 5.74-2.72 7.75-1.09.78-2.45 1.17-3.74 1.68-1.3.51-3.15 1.15-3.18 2.19-.2 5.49-6.04 10.2-3.06 16.07-1.48 4.35-5.63 7.05-9.01 10.23-2 1.9-5.43 3.4-3.5 6.61 1.2 1.98 6.4 1.99 10.26.26 1.86-.84 3.58-1.89 5.17-3.07 2.88-2.47 6.35-4.3 9.76-6.16.71-.39 1.75-1.05 2.39-.51 1.05.87-.18 1.62-.84 2.17-6.45 5.32-12.21 11.23-19.25 16.07-1.63 3.01 1.13 3.21 3.38 3.51 2.99.4 5.92-.64 9.19-.36-6.95 1.06-4.88 6.81-7.63 10.09-.97 1.15 1.57 2.34 3.38 2.68 3.02.58 5.97-.19 9.13-.21-9.63 3.61-18.05 8.77-26.28 14.15-7.76 4.18-15.36 8.56-23.36 12.41-1.07.52-2.22.96-3.24 1.56-1.88 1.09-4.51 2.08-3.72 4.38.95 2.77 3.95 1.89 6.35 1.62 1.79-.21 3.52-.29 5.26.24 3.24.96 6.69.84 9.24-.78 6.2-3.94 11.83-1.84 17.61.43 5.88 2.32 6.92 2.02 10.14-2.79.89-1.32 1.45-2.71 1.81-4.17-2.25 10.86-2.2 11.03-6.58 14.93-4.51 4-8.88 8.14-14.39 11.28-2.93 1.68-6.06 3.16-8.29 5.56-1.13 1.23-1.93 2.62-1 4.14.97 1.57 2.84 1.62 4.67 1.5 8.03-.54 15.89-1.6 22.9-5.26 1.97-1.02 3.36-1.42 5.2.7 2.91 3.34 4.97-.23 7.33-1.38.07 2.82-.89 5.4-1.43 8.04-.77 3.67-3.27 6.13-7.19 7.81-15.98 6.87-33 10.93-50.64 13.34-2.29.31-4.61.48-6.61 1.56-1.41.76-2.4 1.78-2.22 3.31.16 1.38 1.36 2.01 2.73 2.47 7.63 2.56 15.28 4.93 23.63 2.22 1-.33 2.31-.71 2.95.16 2.54 3.36 6.44 2.5 10.1 2.55 2.13.03 4.77-.17 5.85 1.5 1.32 2.04-1.04 3.58-2.41 5.04-2.41 2.55-5.27 4.78-6.85 7.92-1.29 2.58-4.51 1.8-7.03 2.19-2.5.18-5-.33-7.49-.07-5.7 1.6-11.6.78-17.43.97-1.95.06-3.91-.13-5.83.21-1.47.26-2.66.94-2.88 2.29-.2 1.21.77 2.13 1.93 2.41 5.97 1.39 9.51 5.44 13.78 8.7.93.72 2 1.53 3.2 1.48 5.4-.24 7.45 4.17 11.58 5.71 2 .73.39 2.08-.29 2.97-.46.59-.93 1.17-1.41 1.74h258.43zM45.85 185.21c0 187.64 1.44 361.08 1.45 548.71h126.19c-.03-.05-.06-.1-.09-.16-.95-1.73-3.92-2.08-5.86-3.2-.22-.13-.43-.28-.67-.41.36.16.63.42 1 .59 2.49 1.17 5.01 2.3 7.66 3.18h10.98c1.2-2.12-1.37-3.69-2.9-5.26-.35-.36-.78-.66-1.29-.87 4.2 2.13 8.86 3.17 13.59 4.01 1.98.34 3.97.2 5.53-.95 1.74-1.27 3.56-1.45 5.31-.36 5.18 3.2 10.26 1.5 15.39-.01.84-2.37-1.25-3.02-3.18-3.62-2.61-.8-5.35-1.18-8.01-1.82-2.02-.49-3.73-1.09-2.9-3.33.15-.42.22.08.04-.33-1.23-2.77-1.72-5.24 3-5.85.42-4.28 4.85-3.22 7.76-4.43 2.42-1.01 4.96-2.33 7.12-3.9-1.4-4.05 2.34-5.68 5.24-7.6 1.49-.99 3.39-1.59 3.35-3.55-.32-1.19-.95-2.21.14-3.56 1.49-1.87.08-3.01-2.23-3.4-1.65-.27-3.29.02-4.9.33-5.79 1.08-11.64 1.77-17.52 2.48-2.83.66-5.65 1.23-8.58.25-1.33-.45-2.58-.48-1.29-2.29 2-2.8.55-4.58-3.32-4.05-3.5.47-6.73.81-10.09-.66-1.92-.83-4.15-.02-6.01.82-5.25 2.36-10.62 2.33-16.17.83-4.78-1.29-9.49-2.73-14.04-4.51-1.28-.49-2.61-1.02-3.19-2.14-.73-1.38-2-3.27-.88-4.24 1.3-1.13 2.82.74 4.2 1.34 1.23.54 2.27 1.35 3.52 1.88 1.81.78 3.71.86 4.82-.69 1.51-2.13 2.9-1.49 4.65-.34 4.02 2.64 8.45 4.62 13.65 4.8 2.34.07 5.24-.02 4.01-3.21-.52-1.33.41-.68.83-.53 4.82 1.67 9.12-1.02 13.76-1.18 2.93-.09 3.31-1.93 1.57-4.43-.34-.47-1.25-.9-.85-1.42.38-.52 1.29-.13 1.93-.02 2.33.36 4.41-.28 6.49-.96 1.32-.43 2.7-.92 2.68-2.35-.03-1.45-1.44-1.89-2.79-2.25-4.65-1.22-9.26-2.67-14.03-3.48-12.02-2.07-21.8-7.43-30.88-13.95-2.27-1.63-4.6-3.06-7.82-2.79-.83.07-1.81.03-2.2-.72-1.4-2.7-4.36-4.56-5.45-7.51 3.73 2.76 7.9 4.95 12.08 7.15 6.35 3.36 12.89 4.71 20.09 1.89 2.61-1.02 3.17-2.06 1.49-3.98-.84-.95-1.99-1.63-3.14-2.29-1.71-.96-2.89-2.12-2.8-4.01.06-1.08-.53-2-1.5-2.79-9.51-7.84-16.94-16.95-22.84-26.94 1.46 2.14 3.15 4.17 6.52 3.75 3.52-.45 3.67-3.13 4.36-5.36.59-.94 1.63-1.12 2.77-1.3 2.05-.32 3.74-1.16 3.84-3.14.11-2-1.15-3.4-3.4-3.91-7.1-1.6-12.26-5.78-17.85-9.38-3.36-2.16-3.33-2.36-.2-4.97 1.74-1.45 1.92-2.88 1.05-4.74-1.81-3.93 1.82-8.02 6.89-7.9 2.91.07 5.77.79 8.73.56 2.41-.19 4.96-.45 5.89-2.63 1.01-2.39-.84-4.2-2.94-5.31-3.88-2.06-7.65-4.2-11.2-6.65-4.54-3.14-8.7-6.55-12.04-10.62-.69-.85-1.84-1.93-1.05-2.81.83-.93 1.91.35 2.9.56 1.12.25 2.21.46 3.1-.35.88-.81.63-1.79.15-2.63-1.61-2.84-3.11-5.74-5.24-8.36-.45-.55-1.02-1.27-.5-1.94.43-.58 1.26-.21 1.92-.16 4.41.31 5.93-1.12 3.83-4.36-3.43-5.28-5.13-11.42-10.66-15.7-.52-.4-.77-.96-1.11-1.48-.84-1.06-2-1.89-2.79-2.97-.32-.45-1.12-1.05-.62-1.41.38-.28 1.05.52 1.61.8.35.18.7.35 1.08.49 2.27.23 4.67 2.59 6.77.27 1.89-2.09-.32-3.85-1.54-5.62a5.39 5.39 0 0 1-.92-2.28c-.57-2.28-2.75-3.73-4.13-5.59-.73-.98-2.9-2.03-.53-3.43 2.06-1.22 1.86-2.94 1.44-4.69-1.68-4.28-5.76-7.36-8.17-11.28-.63-1.02-1.43-1.99-2.14-2.97-.49-.88-2.31-1.9.8-2.07 2.41-.13 3.46 1.2 4.92 2.21.34.22.71.39 1.12.51 2.54.76 4.5.62 4.78-2.15-.14-1.14-.81-2.06-1.64-2.93-2.7-3.27-3.77-7.28-6.66-10.47-2.23-2.97-3.71-6.26-5.72-9.34.97 1.54 1.96 3.06 4.29 3.4 1.78-.07 2.7-.93 3.1-2.29.27-2.35-1.39-4.15-2.24-5.72 1.05 1.67 2.49 3.66 4.2 5.51.9.98 1.84 2.6 3.5 1.85 1.86-.83.88-2.49.29-3.77-1.15-2.5-2.48-4.94-4.08-7.27-3.66-5.35-7.03-10.82-8.46-16.77a37.95 37.95 0 0 0 4.67 6.79c.98 1.13 2.2 2.46 4.09 1.63 1.7-.73 1.14-2.26.74-3.47-.87-2.72-2.44-5.21-3.74-7.78-.17-.32-.56-.76-.36-.95.49-.49.91.11 1.32.27.74.31 1.46.69 2.27.88.97.22 1.95.34 2.72-.36.87-.8.7-1.73.21-2.62-.6-1.08-1.56-1.97-2.7-2.62-9.85-5.61-11.46-13.79-10.19-22.87.6-4.03-.92-7.92-.94-11.92.2-4.02-.84-7.94-1.3-11.92-.35-.76-.7-1.63-1.98-1.33-1.34.33-1.86 1.3-2.16 2.35-.74 2.61.14 5.32-.69 7.93-1 3.93-.1 7.93-.62 11.87-.57 3.82-.85 7.66-1.56 11.47-.94 5.07-3.5 9.32-8.37 12.52-.55.36-1.11.72-1.6 1.13-1.28 1.09-2.8 2.22-1.53 3.91 1.32 1.75 3.28 1.43 5.2.74.9-.32 1.71-.74 2.49-1.22-.04.72-.6 1.27-.97 1.87-.63 1.05-1.46 1.68-2.98.95-1.7-.81-3.49-1.5-4.76-2.79-3.56-3.6-7.86-6.61-11.31-10.3-2.26-2.42-5.11-3.63-8.77-1.93-.43.2-1 .62-1.46.19-.2-.19.32-.59.48-.89 1.84-3.76.18-7.73-4.09-9.8-.84-.41-1.79-.65-2.68-.99-1.12-.43-1.33-1.12-.7-1.99.57-.79 1.36-.69 2.14-.26 2.21 1.21 4.4 2.47 6.35 3.98 1.33 1.03 2.66 2.07 4.27 2.8 1.64.75 3.49 1.42 4.99.06 1.58-1.45.36-2.84-.8-4.04-1.6-1.63-3.45-3.07-5.52-4.25-1.05-.6-2.06-1.2-2.58-2.22-1.02-1.3-2.33-2.36-3.87-3.22-3.73-2.13-6.28-5.25-9.33-7.94-.97-.85-1.63-2.08-1.05-3.24 1.85-3.76 18.93-.1 16.87-3.42-.6-.98-2.3-2.66-.53-3.25 1.93-.66 2.44 1.43 2.96 2.71.8 2 1.44 4.05 3.05 5.72 1.58 1.63 3.63 2.87 6.17 1.79 2.35-1 1.75-2.95 1.3-4.69-.32-1.26-.92-2.44-1.32-3.69-.2-.65-.71-1.47.17-1.9.76-.38 1.6.09 2.3.51 1.26.73 2.27 1.76 3.64 2.34 2.13.9 4.29 1.53 5.27-1.22-.14-2.22-2.21-3.4-3.8-4.82-1.51-1.36-2.84-2.86-4.29-4.27-.81-.8-1.43-1.72-2.13-2.59.8.68 1.41 1.53 2.34 2.1 2.54 1.56 4.04 1.03 5.27-1.85-1.85-4.51-6.43-7.24-9.86-10.73-7.34-5.77-10.83-13.12-12.34-21.27-1.05-9.48-3.64-18.78-4.69-26.43 2.54 5.14 6.38 11.55 14.25 15.56 1.43.73 2.69 1.65 4.06 2.43 1.41.8 2.97 1.59 4.54.42 1.41-1.05.73-2.35.11-3.54-.34-.64-.9-1.18-1.2-1.83-3.19-4.37-4.5-9.34-6.32-14.15-8.63-13.42-21.62-30.18-22.14-45.98 1.44 2.62 2.87 4.83 4.65 6.84 1.51 1.72 3.25 3.71 6.11 2.33 2.55-1.23 1.77-3.4.84-5.32-1.84-2.21-2.73-4.72-3.64-7.83 2.61 1.82 5.03 2.94 6.91 4.68 1.84 1.23 3.78 1.67 5.59.12 1.35-1.14 2.73-.81 4.25-.53 1.26.23 2.58.29 3.43-.7.92-1.08.53-2.23-.13-3.31-.9-1.49-2.27-2.66-3.8-3.68-2.94-1.97-5.42-4.38-8.3-6.39-9.02-6.35-23.32-19.36-25.31-28.58-.86-3.99-3.62-13.39-3.9-15.57-.95-3.01 2.25-20.7 2.2-21.31-6.65-8.43-9.09 3.8-9.14 4.09-.75 3.94-1.68 7.81-2.87 11.74zm222.22 548.71c-.47-.08-.96-.12-1.44-.16-2.12-.14-4.21-.04-6.29.16h7.73zm-35.04 0-.05-.05c-1.56-.73-3.24-.7-4.85-.31-.51.13-1.02.25-1.53.36h6.42zm-27.68 0c-1.4-1.19-3.34-1.29-5.39-.93-1.32.23-2.61.55-3.86.93h9.25z"/><path class="fil1" d="M50.39 191.68c0 187.57-3.15 354.67-3.07 542.24H0V399.97c1.16-.09 2.41.14 3.78.78.43.2 1 .62 1.46.19.2-.19-.32-.59-.48-.89-1.84-3.76-.18-7.73 4.09-9.8.84-.41 1.79-.65 2.68-.99 1.12-.43 1.33-1.12.7-1.99-.57-.79-1.36-.69-2.14-.26-2.21 1.21-4.4 2.47-6.35 3.98-1.18.92-2.36 1.84-3.74 2.54v-7.51c.26-.16.53-.32.8-.48 1.05-.6 2.06-1.2 2.58-2.22 1.02-1.3 2.33-2.36 3.87-3.22 3.73-2.13 6.28-5.25 9.33-7.94.97-.85 1.63-2.08 1.05-3.24-1.85-3.76-.46-7.05 1.6-10.37.6-.98 2.3-2.66.53-3.25-1.93-.66-2.44 1.43-2.96 2.71-.8 2-1.44 4.05-3.06 5.72-1.58 1.63-3.63 2.87-6.16 1.79-1.59-.67-5.4-1.89-7.58-3.15v-6.24c.07-.26.1-.52 0-.74V338.7c2.3-1.13 4.48-2.24 5.79-3.57 7.34-5.77 2.3-6.76 3.82-14.92 1.05-9.48 3.64-18.78 4.69-26.43-2.54 5.14-6.38 11.55-14.25 15.56l-.05.02v-18.42c8.87-13.11 24.03-29.04 24.52-44.17-1.44 2.62-2.87 4.83-4.65 6.84-1.51 1.72-3.25 3.71-6.11 2.33-2.55-1.23-1.77-3.4-.84-5.32 1.84-2.21 2.73-4.72 3.64-7.83-2.61 1.82-5.03 2.94-6.91 4.68-1.84 1.23-3.78 1.67-5.59.12-1.29-1.09-2.62-.83-4.07-.56v-7.45c.1-.07.21-.14.31-.21 2.94-1.97 5.42-4.38 8.29-6.39 9.02-6.35 24.46-17.26 26.45-26.49.62-2.86 1.33-5.74.6-8.67 1.37-6.61-.5 4.78.48-1.84-1.48-7.67 12.96-29.02 17.77-29.77 2.23-.35 3.11 1.13 3.83 2.55.64 1.28-1.08 4-.8 5.37-2.81 5.47-4.48 13.88-6.54 17.56zM144.01 609.22v95.12c1.44 1.35 3.54 1.28 5.55 1.29 8.37.06 16.74-.01 25.11.04 5.21.03 6.01.52 6.36 4.19.29 3.09.5 6.19.7 9.29.05.57.47 1.01.87 1.49 1.52 1.83 3.26 3.37 6.65 2.62 3.36-.74 3.75-2.73 3.69-4.85-.1-3.67.41-7.32 1.39-10.9 1.13-4.1 3.57-5.41 8.81-3.88 4.76 1.39 9.13.81 13.68.08 1.01-.16 2.11-.39 2.99-.15 6.74 1.87 12.03-.91 17.64-2.74 2.19-.72 4.01-.62 4.27 1.56.24 1.46.22 2.94.11 4.4-.18 2.53-1.13 3.26-4.64 3.35-4.82.13-9.64.02-14.46.06-2.19.02-4.31.25-6.29.89-1.07.35-1.99.98-1.63 1.92.31.8 1.4 1.08 2.46 1.02 5.78-.31 10.74 1.42 16 2.86 8.14 2.23 16.68 3.63 25.59 2.02 8.03-1.46 16.17-2.37 24.47-1.25.5.06 1.03.09 1.52.02 12.62-1.87 25.24-.75 37.83.13 1.12.08 2.29.09 3.41-.08 1.35-.21 2.93-.31 3.27-1.53.39-1.39-1.02-1.92-2.51-2.34-7.24-1.85-14.82-2.21-22.37-2.52-4.62-.19-5.06-.3-5.05-2.66.03-4.54.56-5.11 5.11-5.2 3.43-.06 6.85.06 10.27-.08 3.95-.18 4.8-.89 4.66-3.76-.08-1.43-.19-2.97 2.47-3.12 2.89-.16 3.58 1.32 3.64 3.05.05 1.65-.06 3.3.05 4.94.18 2.53-.28 4.63-4.71 4.8-1.06.05-1.96.57-2.03 1.41-.05.79.65 1.4 1.64 1.7 1.52.47 3.03.91 4.76.62 1.9-.31 3.78-.17 5.63.26 4.83.29 9.59-.27 14.37-.64 1.97-.16 4.01-.5 5.17-1.91-.55-1.94-2.8-1.53-4.56-1.62-5.68-.29-5.96-.48-6.04-4.51-.06-3.37.36-6.76-.68-10.1-.1-.35.66-.24.15-.19-.09.01-.03.09.01.27.42 1.92 2.42 2.14 4.54 2.19 5.69.13 11.39.01 17.08.07 1.96.03 4.46-.37 5.24 1.42.84 1.91 1.13 4.01-.94 5.71-.94.77-2.12 1.38-1.45 2.56.71 1.27 2.19 1.71 3.95 1.74 5.3.09 10.6.32 15.89.01 1.43-.08 3.04-.23 3.22-1.46.15-1.15-1.22-1.63-2.6-2.04-3.13-.94-3.96-2.57-3.2-5.63.55-2.23 2.8-2.3 5.16-2.31 3.92-.01 7.85 0 11.77 0 2.97 0 4.47.99 4.43 3.17-.03 1.82.18 3.66-.28 5.48-.32 1.27.28 2.14 2.05 2.53 4.94 1.5 7.9 1.2 11.18-1.17-.53-2.23-1.17-4.44-.93-6.73.27-2.63 1.43-3.5 5.02-3.1 5.03.54 10.08.39 15.11.29 4.47-.08 5.21-.89 4.24-4.11-1.63-4.86-4.85-9.31-6.99-14.04-1.52-3.36-3.34-6.65-5.12-10.3 1.86 1.1 2.51 2.59 4.34 3.23.71.14 1.43.33 2.17.07 1.99-1.29 1.02-2.67.14-3.98-3.07-4.61-6.36-9.16-9.75-14.22 3.17 2.02 5.49 4 8.17 5.7 1.38.88 3.03 1.74 4.66.57 1.39-1 .51-2.19-.48-3.23-2.67-2.79-5.94-5.23-8.73-7.94-.95-.92-1.83-1.79-.78-2.96 1.01-1.25.17-2.23-.82-3.25-2.74-2.84-5.92-5.46-8.62-8.68 1.63 1.17 3.24 1.92 4.82 2.67 1.22.57 2.75.81 3.8-.14.94-.85.18-1.73-.65-2.48-3.15-2.85-6.24-5.72-8.83-8.83.42.17-.13-.06.29.13 1.77.82 3.87 1.69 5.36.14 1.4-1.45-.66-2.46-2-3.4-.27-.19-.6-.33-.9-.51-2.36-2.63-6.08-4.67-5.3-8.52.34-1.72-1.58-3.57-1.69-5.5-.55-1.04-.65-2.13-.7-3.22-.06-1.31-.68-2.33-2.84-2.36-.5.07-1.21.2-1.26.5-.6 3.51-3.87 6.53-3.52 10.2 1.97 2.55.11 4.84-1.63 6.73-2.34 2.55-3.95 5.19-4.85 8.12.33 1.32.83 2.65-.51 3.86-2.18 2.28-2.13 2.5 1.4 4.07-3.49-.17-3.49-2.48-5.08-3.67-1.76-1.31-3.02-2.95-4.84-3.93 1.21.97 3.02 1.77 4.51 2.83.98.7 2.06 1.06 3.41.52 1.26-1.21.34-2.22-.54-3.24-2.92-3.44-6.64-6.4-10.5-9.29.48.36.94.75 1.49 1.06 1.13.64 2.45 1.23 3.77.5 1.67-.94.08-1.78-.54-2.59-1.64-2.16-3.61-4.16-6.19-5.81.96.44 1.91.56 2.85-.04.22-.23.33-.49.38-.76-.1-1.1-1.3-1.68-2.22-2.4-3.44-2.67-5.43-5.75-5.16-9.48-.32-1.17-.64-2.32.15-3.46.62-.9.25-1.77-.28-2.6-.45-.69-1.03-1.32-2.22-1.21-1.11.1-1.75.69-1.96 1.45-.2.71-.29 1.44-.71 2.11-.15 2.81-1.36 5.52-1.4 8.35-.01.85-.6 1.55-1.45 2.13-2.01 2.33-4 4.67-6.29 6.86-1.33 1.27-2.13 2.71-1.57 4.37.74 1.12.2 2.09-.61 3.07-.98 1.16-2.04 2.29-2.7 3.6-.51 1.01-.88 2.02.39 2.76 1.35.79 2.6.15 3.75-.46.51-.28.96-.6 1.13-.79-2.06 1.55-3.78 3.51-4.97 5.73-.23.21-.43.45-.71.62-1.21.7-1.77 2.86-3.08 2.23-1.78-.85-3.57-2.44-2.93-4.47 1.78-1.66 1.27-3.16-.37-4.73-2.03-1.95-4.17-3.86-5.75-6.01 1.73.87 3.12 3.1 5.58 1.73 2.13-1.19.24-2.92-.76-4.2-2.17-2.77-4.06-5.67-6.76-8.21-.84-.79-1.78-1.63-.61-2.69.94-.7 1.54-1.52 1.57-2.51-.25-1.83-2.39-2.71-3.86-3.93-1.78-1.47-3.2-2.9-.85-4.77.69-.55.96-1.43.46-2.08-2.75-3.63-2.89-7.73-4.14-11.62-.37-1.17-.59-2.5-2.74-2.56-2-.05-2.66 1.11-3.31 2.25-1.26 2.21-1.64 4.6-2.9 6.79-1.41 1.65-2.85 3.26-1.08 5.3.89 1.03-.31 1.93-.97 2.76-2.01 2.52-4.19 4.98-6.32 7.44-1.21.81-2.14 1.77-2.92 2.81-.68.92-1.22 1.91-.04 2.75 1.29.9 2.76.59 4.15-.01.64-.28 1.13-.72 2.22-.98-1.57 2.14-2.75 4.21-4.36 6.12-1.83 3.02-5.58 5.42-5.62 9.03.05.27.19.51.41.73 1.52.75 2.88.34 4.13-.37 1.18-.67 2.29-1.41 4.01-2.01-1.71 3.75-3.13 7.36-6.09 10.54-1.1 1.29-1.48 2.84-2.89 4.01-.88.78-1.81 1.55-2.13 2.57-.38 1.2.2 2.25 1.55 2.87 1.41.64 2.66.05 3.66-.76.67-.54 1.21-1.17 1.39-1.35-3.03 1.66-2.68 5.48-6.34 7.43.94-.84 2.56-1.25 2.82-2.6.27-1.44-1.64-2.02-2.09-3.06-1.01-2.38-3.45-4.19-4.96-6.63 1.92.01 3.83.74 5.01-.68.79-1.36-.08-2.46-1.06-3.56-2.19-2.45-4.24-4.94-6.2-7.45 2.92-.08 5.71 3.61 8.68.06-.54-2.46-3.29-3.86-5.33-5.51-5.08-4.1-9.04-8.57-10.66-14.01-.34-1.16-.96-2.28-1.62-3.37-.59-.98-1.53-1.75-3.12-1.7-1.75.06-2.23 1.14-2.59 2.09-.84 2.3-.57 4.71-1.2 7.04-.19 2.46-.93 4.82-2.24 7.09-.45.76-.92 1.58-.5 2.36 1.73 3.21-.99 5.48-3.03 7.91-.61 1.06-1.5 2.02-2.13 3.07-2.29 1.85-3.83 4.07-5.71 6.13-1.13 1.26-1.59 2.68.33 3.66 1.99 1.02 3.52.12 4.78-1.09 1.07-1.02 2.23-1.99 3.38-2.95-2.8 2.31-5.08 4.91-7.8 7.28-.87.76-1.85 1.61-2.97.43-3.91-4.14-8.08-8.19-10.17-13.07-.08-.18.03-.36.36-.62 1.75.32 3.16 1.28 4.84 1.85 1.59.53 3.17.98 4.52-.1 1.39-1.1.6-2.19-.51-3.19-.39-.36-.6-.8-.87-1.21-1.26-2.57-3.63-4.74-5.01-7.27-1.66-1.21-2.19-2.77-3.15-4.72 2.83 1.35 5.2 2.38 7.68 3.23 1.02.34 2.19.73 3.15-.08.88-.75.39-1.55-.08-2.32-.25-.42-.64-.79-1.1-1.11-4.93-3.44-8.9-7.49-13.61-11.06-.55-.48-1.62-.93-1.11-1.59 1.95-2.54-.01-4.62-1.49-6.66-.89-1.23-.99-2.38-.7-3.66-.43-1.38-1.49-2.7-.8-4.2-.43-1.67-.1-3.61-2.94-4.44-3.89.3-2.96 2.69-3.64 4.37-1.3 2.23-1.94 4.58-2.55 6.94-.51.65-.85 1.41-.57 2.1 1.17 2.83-.97 4.9-2.92 7.02-2.71 2.96-6.19 5.49-8.99 8.41-1.39.87-2.62 1.82-3.57 2.96-1.68 1.35-3.96 2.6-1.36 4.62 3.91.53 6.05-2.09 10.22-3.1-2.59 3.92-4.92 7.26-7.21 10.6-2 2.02-3.41 4.27-5.12 6.41-.73.9-1.04 2.03.25 2.77 1.35.77 2.66.12 3.72-.59 1.55-1.05 3.35-1.85 5.45-3.17-1.77 4.92-5.89 8.24-9.39 11.79-2.57 2.61-5.25 5.17-7.61 7.89-1.07 1.24-2.25 2.61 0 3.88 1.97 1.11 4.57.86 6.47-.59.25-.2.48-.42.73-.64.89-.77 1.91-1.47 2.46-2.09-2.08 1.74-4.05 3.89-6.4 5.84-1.61 1.33-2.55 1.11-3.64-.31-4-5.2-7.75-10.49-11.64-16.47 2.94 1.21 5.1 2.26 7.49 2.95 1.47.41 3.02.75 4.24-.21 1.29-1.01.46-2.12-.36-3.04-2.85-3.24-6.45-6.14-8.52-9.77 1.64.69 3.29 1.36 4.9 2.05 1.53.65 3.34 1.43 4.83.19 1.43-1.19.24-2.38-.71-3.5-1.35-1.59-3.29-2.78-5.08-4.07-3.87-2.78-7.71-5.56-9.89-9.39.98.3 1.45.85 2.1 1.24 1.22.75 2.53 1.39 4.1.66 1.59-.75 1.29-1.96.78-2.99-2.87-5.7-6.61-11.09-10.76-16.69.15.37.27.49.47.65 1.27 1.04 2.73 2.41 4.73 1.37 2.09-1.09.57-2.52-.5-3.61-3.9-3.98-7.02-8.25-9.49-12.79-1.73-1.82-1.62-3.99-2.28-6.02-.34-1.08-.73-2.25-2.7-2.26-1.73-.01-2.19 1.07-2.7 2.01-.6 1.11-.79 2.3-.97 3.48-1.97 4.03-3.07 8.28-5.55 12.19-.32.51-.51 1.11-.22 1.6 1.75 2.93-.65 5.13-2.53 7.32-2.41 2.79-4.55 5.69-6.94 8.47-.97 1.13-1.81 2.33-.59 3.55 1.41 1.42 3.16.48 5.17-.02-.41 1.57-.74 2.94-1.92 4.13-1.83 1.69-3.38 3.53-5.08 5.29-1.22 1.28-2.42 2.56-3.68 3.82-1.48 1.47-2.76 1.38-4.17.04-4.57-4.37-9.5-8.54-13.5-13.22-1.03-1.18-1.3-3.29-4.42-3.1z"/><path class="fil1" d="M418.75 636.97v68.37c1.07.97 2.63.92 4.13.93 6.23.04 12.45-.01 18.68.03 3.88.02 4.47.37 4.73 3.01.22 2.22.37 4.45.52 6.68.04.41.35.73.64 1.07 1.13 1.32 2.43 2.42 4.95 1.89 2.5-.53 2.79-1.96 2.75-3.49-.08-2.64.3-5.26 1.03-7.84.84-2.95 2.65-3.89 6.56-2.79 3.54 1 6.79.58 10.18.06.75-.11 1.57-.28 2.23-.11 5.01 1.34 8.95-.65 13.13-1.97 1.63-.52 2.99-.44 3.17 1.12.18 1.05.16 2.11.09 3.16-.13 1.82-.84 2.34-3.45 2.41-3.58.09-7.17.01-10.76.04-1.63.01-3.2.18-4.68.64-.8.25-1.48.7-1.21 1.38.23.58 1.04.77 1.83.73 4.3-.23 7.99 1.02 11.9 2.06 6.06 1.6 12.4 2.61 19.04 1.45 5.97-1.05 12.03-1.71 18.2-.9.37.05.77.07 1.13.01 9.39-1.34 18.77-.54 28.15.09.83.06 1.71.07 2.54-.06 1-.15 2.18-.22 2.44-1.1.29-1-.76-1.38-1.87-1.68-5.38-1.33-11.02-1.59-16.64-1.81-3.44-.14-3.76-.22-3.75-1.91.02-3.26.42-3.67 3.8-3.74 2.55-.05 5.1.05 7.64-.06 2.94-.13 3.57-.64 3.47-2.71-.06-1.03-.14-2.14 1.84-2.24 2.15-.11 2.66.95 2.71 2.2.04 1.18-.05 2.37.04 3.55.13 1.82-.21 3.33-3.51 3.45-.79.03-1.46.41-1.51 1.01-.04.57.48 1.01 1.22 1.22 1.13.34 2.26.65 3.54.44 1.41-.22 2.81-.12 4.19.19 3.59.21 7.14-.19 10.69-.46 1.47-.11 2.99-.36 3.85-1.38-.41-1.4-2.08-1.1-3.39-1.16-4.23-.21-4.44-.34-4.49-3.24-.05-2.42.27-4.86-.5-7.26-.08-.25.49-.17.11-.14-.07.01-.02.07.01.19.31 1.38 1.8 1.54 3.37 1.57 4.24.09 8.47.01 12.71.05 1.46.02 3.32-.26 3.89 1.02.63 1.38.84 2.88-.7 4.11-.7.56-1.57.99-1.08 1.84.53.91 1.63 1.23 2.94 1.25 3.94.07 7.88.23 11.82.01 1.06-.06 2.27-.17 2.4-1.05.11-.83-.91-1.17-1.93-1.47-2.33-.67-2.95-1.85-2.38-4.05.41-1.6 2.09-1.65 3.84-1.66 2.92-.01 5.84 0 8.76 0 2.21 0 3.33.71 3.3 2.28-.02 1.31.13 2.63-.21 3.94-.24.91.21 1.54 1.53 1.82 3.68 1.08 5.88.86 8.32-.84-.4-1.6-.87-3.19-.69-4.83.2-1.89 1.06-2.51 3.73-2.23 3.74.39 7.5.28 11.24.21 3.33-.06 3.88-.64 3.16-2.96-1.21-3.49-3.61-6.69-5.2-10.09-1.13-2.41-2.48-4.78-3.81-7.4 1.38.79 1.87 1.87 3.23 2.32.53.1 1.06.24 1.61.05 1.48-.93.76-1.92.1-2.86-2.28-3.31-4.73-6.58-7.25-10.22 2.36 1.46 4.08 2.88 6.07 4.1 1.02.63 2.26 1.25 3.47.41 1.03-.72.38-1.57-.36-2.32-1.99-2-4.42-3.76-6.49-5.71-.71-.66-1.36-1.29-.58-2.13.75-.9.12-1.6-.61-2.33-2.04-2.04-4.41-3.92-6.42-6.24 1.21.84 2.41 1.38 3.58 1.92.91.41 2.05.58 2.82-.1.7-.61.13-1.24-.48-1.78-2.34-2.05-4.64-4.11-6.57-6.35.31.13-.09-.05.22.09 1.32.59 2.88 1.22 3.99.1 1.04-1.04-.49-1.77-1.49-2.45-.2-.14-.45-.24-.67-.36-1.75-1.89-4.52-3.35-3.94-6.12.26-1.24-1.17-2.57-1.26-3.96-.41-.75-.48-1.53-.52-2.32-.05-.94-.5-1.67-2.11-1.69-.37.05-.9.15-.94.36-.45 2.52-2.88 4.7-2.62 7.34 1.47 1.83.09 3.48-1.21 4.83-1.74 1.83-2.94 3.73-3.61 5.83.25.95.62 1.9-.38 2.77-1.62 1.64-1.58 1.8 1.04 2.92-2.6-.12-2.6-1.79-3.78-2.64-1.31-.94-2.25-2.12-3.6-2.82.9.69 2.25 1.27 3.35 2.04.73.5 1.53.76 2.54.38.94-.87.26-1.59-.4-2.33-2.17-2.47-4.94-4.6-7.81-6.68.36.26.7.54 1.11.76.84.46 1.82.89 2.8.36 1.24-.67.06-1.28-.4-1.86-1.22-1.55-2.68-2.99-4.61-4.17.71.32 1.42.4 2.12-.03.16-.17.25-.35.28-.55-.08-.79-.97-1.21-1.65-1.73-2.56-1.92-4.04-4.13-3.84-6.81-.24-.84-.47-1.67.11-2.49.46-.65.19-1.27-.21-1.87-.33-.5-.77-.95-1.65-.87-.82.07-1.3.5-1.46 1.04-.15.51-.22 1.03-.53 1.51-.11 2.02-1.01 3.97-1.04 6-.01.61-.45 1.12-1.08 1.53-1.5 1.67-2.98 3.35-4.68 4.93-.99.91-1.58 1.95-1.16 3.14.55.81.15 1.5-.46 2.21-.73.83-1.52 1.65-2.01 2.59-.38.73-.65 1.45.29 1.98 1 .57 1.93.11 2.79-.33.38-.2.71-.43.84-.57a12.858 12.858 0 0 0-3.7 4.12c-.17.15-.32.32-.53.44-.9.5-1.32 2.06-2.29 1.6-1.33-.61-2.65-1.75-2.18-3.21 1.33-1.19.95-2.27-.27-3.4-1.51-1.4-3.1-2.77-4.27-4.32 1.29.63 2.32 2.23 4.15 1.24 1.58-.85.18-2.1-.57-3.02-1.61-1.99-3.02-4.07-5.03-5.9-.63-.57-1.33-1.17-.45-1.93.7-.5 1.15-1.09 1.17-1.81-.19-1.32-1.78-1.95-2.87-2.82-1.33-1.06-2.38-2.08-.64-3.43.51-.4.71-1.03.34-1.49-2.05-2.61-2.15-5.56-3.08-8.35-.27-.84-.44-1.8-2.04-1.84-1.49-.03-1.98.8-2.46 1.62-.94 1.59-1.22 3.31-2.16 4.88-1.05 1.18-2.12 2.34-.81 3.81.66.74-.23 1.39-.72 1.98-1.5 1.81-3.12 3.58-4.7 5.35-.9.58-1.59 1.27-2.17 2.02-.5.66-.91 1.38-.03 1.98.96.65 2.06.42 3.09-.01.47-.2.84-.52 1.65-.71-1.17 1.54-2.05 3.02-3.24 4.4-1.36 2.17-4.15 3.9-4.18 6.49.04.19.14.36.3.52 1.13.54 2.14.24 3.07-.26.88-.48 1.71-1.01 2.98-1.44-1.27 2.7-2.33 5.29-4.53 7.57-.81.93-1.1 2.04-2.15 2.88-.65.56-1.35 1.12-1.58 1.85-.28.86.15 1.62 1.16 2.06 1.05.46 1.98.03 2.72-.55.5-.39.9-.84 1.03-.97-2.26 1.19-1.99 3.94-4.72 5.34.7-.6 1.9-.9 2.09-1.87.2-1.04-1.22-1.45-1.55-2.2-.75-1.71-2.57-3.01-3.69-4.76 1.43.01 2.85.53 3.72-.49.59-.98-.06-1.77-.79-2.56a98.566 98.566 0 0 1-4.61-5.36c2.17-.06 4.25 2.59 6.45.04-.4-1.77-2.44-2.78-3.96-3.96-3.78-2.95-6.73-6.16-7.93-10.07-.26-.83-.71-1.64-1.2-2.42-.44-.7-1.14-1.26-2.32-1.22-1.3.04-1.66.82-1.92 1.5-.63 1.65-.43 3.39-.89 5.06-.14 1.77-.69 3.47-1.67 5.1-.33.55-.68 1.14-.37 1.7 1.29 2.31-.74 3.94-2.26 5.69-.45.76-1.12 1.45-1.58 2.21-1.71 1.33-2.85 2.92-4.25 4.4-.84.91-1.18 1.92.25 2.63 1.48.73 2.62.09 3.55-.78.8-.73 1.66-1.43 2.51-2.12-2.08 1.66-3.78 3.53-5.8 5.23-.64.55-1.37 1.16-2.21.31-2.91-2.98-6.01-5.89-7.56-9.39-.06-.13.02-.26.27-.44 1.3.23 2.35.92 3.6 1.33 1.18.38 2.36.7 3.36-.07 1.03-.79.45-1.57-.38-2.3-.29-.26-.45-.58-.64-.87-.94-1.85-2.7-3.41-3.72-5.23-1.23-.87-1.63-1.99-2.34-3.39 2.1.97 3.87 1.71 5.71 2.32.76.24 1.63.52 2.34-.06.65-.54.29-1.12-.06-1.67-.19-.3-.47-.57-.81-.8-3.67-2.47-6.62-5.38-10.12-7.95-.41-.34-1.2-.67-.82-1.14 1.45-1.83-.01-3.32-1.11-4.79-.66-.89-.74-1.71-.52-2.63-.32-.99-1.11-1.94-.6-3.02-.32-1.2-.08-2.59-2.19-3.19-2.89.22-2.2 1.93-2.71 3.14-.97 1.6-1.44 3.29-1.9 4.99-.38.47-.63 1.01-.43 1.51.87 2.03-.72 3.53-2.17 5.05-2.02 2.13-4.61 3.95-6.69 6.05-1.03.62-1.95 1.31-2.65 2.13-1.25.97-2.95 1.87-1.01 3.32 2.91.38 4.5-1.5 7.6-2.23-1.92 2.82-3.66 5.22-5.36 7.62-1.49 1.45-2.54 3.07-3.81 4.61-.54.65-.78 1.46.19 1.99 1 .56 1.98.09 2.77-.42 1.16-.75 2.49-1.33 4.06-2.28-1.32 3.54-4.38 5.92-6.98 8.47-1.91 1.88-3.9 3.72-5.66 5.67-.8.89-1.68 1.88 0 2.79 1.47.8 3.4.62 4.81-.42.19-.15.36-.3.54-.46.66-.56 1.42-1.06 1.83-1.5-1.54 1.25-3.01 2.8-4.76 4.2-1.19.96-1.9.8-2.71-.23-2.98-3.74-5.76-7.54-8.66-11.84 2.19.87 3.79 1.63 5.57 2.12 1.09.3 2.25.54 3.16-.15.96-.73.34-1.52-.27-2.18-2.12-2.33-4.8-4.41-6.34-7.02 1.22.5 2.44.98 3.65 1.48 1.14.47 2.48 1.03 3.59.14 1.06-.85.18-1.71-.53-2.51-1-1.14-2.44-2-3.78-2.92-2.88-2-5.73-3.99-7.35-6.75.73.22 1.08.61 1.56.89.91.54 1.89 1 3.05.48 1.18-.54.96-1.41.58-2.15-2.13-4.09-4.92-7.97-8.01-12 .11.26.2.35.35.47.95.75 2.03 1.73 3.52.99 1.55-.78.43-1.81-.37-2.59-2.9-2.86-5.22-5.93-7.06-9.19-1.29-1.31-1.2-2.87-1.7-4.33-.26-.77-.54-1.62-2.01-1.63-1.29-.01-1.63.77-2.01 1.44-.45.8-.59 1.65-.72 2.5-1.47 2.9-2.28 5.95-4.13 8.76-.24.36-.38.8-.16 1.15 1.3 2.1-.48 3.68-1.89 5.26-1.79 2-3.38 4.09-5.16 6.09-.72.81-1.35 1.67-.44 2.55 1.05 1.02 2.35.34 3.85-.01-.3 1.13-.55 2.11-1.43 2.97-1.36 1.22-2.51 2.54-3.78 3.8-.91.92-1.8 1.84-2.74 2.75-1.1 1.06-2.06.99-3.1.03-3.4-3.14-7.07-6.14-10.05-9.5-.77-.85-.97-2.36-3.29-2.23z"/><path class="fil1" d="M799.73 606.38v89.15c-.88 1.27-2.15 1.2-3.38 1.21-5.09.05-10.18-.01-15.27.03-3.17.03-3.66.48-3.87 3.92-.18 2.9-.3 5.8-.43 8.71-.03.53-.29.95-.53 1.4-.92 1.72-1.98 3.16-4.04 2.46-2.05-.69-2.28-2.56-2.25-4.55.06-3.44-.25-6.86-.84-10.22-.69-3.85-2.17-5.07-5.36-3.64-2.9 1.3-5.56.76-8.32.08-.61-.15-1.29-.36-1.82-.14-4.1 1.75-7.31-.85-10.73-2.57-1.33-.67-2.44-.58-2.6 1.47-.15 1.37-.13 2.75-.07 4.12.11 2.37.69 3.05 2.82 3.14 2.93.12 5.87.02 8.79.05 1.33.02 2.62.23 3.83.84.65.33 1.21.91.99 1.8-.19.75-.85 1.01-1.5.96-3.52-.29-6.53 1.33-9.73 2.68-4.95 2.09-10.14 3.41-15.57 1.89-4.88-1.37-9.83-2.23-14.88-1.17-.3.06-.63.09-.92.02-7.68-1.75-15.35-.71-23.01.12-.68.08-1.39.09-2.08-.08-.82-.2-1.78-.29-1.99-1.43-.24-1.3.62-1.8 1.53-2.19 4.4-1.73 9.01-2.07 13.61-2.36 2.81-.18 3.08-.28 3.07-2.49-.02-4.25-.34-4.79-3.11-4.87-2.08-.06-4.17.06-6.24-.08-2.4-.16-2.92-.84-2.84-3.53.05-1.34.12-2.79-1.5-2.92-1.76-.15-2.18 1.23-2.22 2.86-.03 1.54.04 3.1-.03 4.63-.11 2.37.17 4.34 2.87 4.5.64.04 1.19.53 1.23 1.32.03.74-.4 1.31-1 1.6-.92.44-1.84.85-2.9.58-1.15-.29-2.3-.16-3.42.24-2.94.28-5.83-.25-8.74-.6-1.2-.15-2.44-.47-3.15-1.79.33-1.82 1.7-1.43 2.77-1.52 3.46-.28 3.63-.45 3.67-4.23.04-3.16-.22-6.34.41-9.47.06-.33-.4-.22-.09-.18.05.01.02.09-.01.25-.26 1.8-1.47 2.01-2.76 2.05-3.46.12-6.93.01-10.39.07-1.19.03-2.71-.34-3.18 1.33-.51 1.79-.69 3.76.57 5.36.57.72 1.29 1.29.88 2.4-.43 1.19-1.33 1.6-2.4 1.63-3.22.09-6.45.3-9.66.01-.87-.08-1.85-.22-1.96-1.37-.09-1.08.74-1.53 1.58-1.91 1.91-.88 2.41-2.41 1.94-5.28-.33-2.09-1.7-2.16-3.14-2.16-2.39-.01-4.77 0-7.16 0-1.81 0-2.72.93-2.7 2.97.02 1.71-.11 3.43.17 5.13.19 1.19-.17 2.01-1.25 2.37-3.01 1.41-4.8 1.12-6.8-1.1.33-2.09.71-4.16.57-6.3-.16-2.47-.87-3.28-3.05-2.91-3.06.51-6.13.36-9.19.28-2.72-.08-3.17-.84-2.58-3.86.99-4.55 2.95-8.73 4.25-13.16.92-3.15 2.03-6.24 3.11-9.65-1.13 1.04-1.53 2.43-2.64 3.03-.43.13-.87.31-1.32.07-1.21-1.21-.62-2.5-.08-3.73 1.87-4.32 3.87-8.58 5.93-13.32-1.93 1.9-3.34 3.75-4.97 5.35-.84.83-1.84 1.63-2.84.53-.84-.94-.31-2.05.29-3.03 1.63-2.61 3.61-4.9 5.31-7.44.58-.86 1.12-1.68.47-2.78-.61-1.17-.1-2.09.5-3.04 1.67-2.66 3.6-5.11 5.25-8.13-.99 1.1-1.97 1.8-2.93 2.5-.74.53-1.67.76-2.31-.13-.57-.79-.11-1.62.39-2.32 1.91-2.67 3.8-5.36 5.37-8.28-.26.16.08-.06-.18.12-1.08.77-2.36 1.59-3.26.13-.85-1.36.4-2.3 1.22-3.19.16-.18.36-.31.55-.47 1.43-2.47 3.7-4.37 3.22-7.99-.21-1.61.96-3.35 1.03-5.16.33-.97.39-1.99.43-3.02.04-1.22.41-2.18 1.73-2.21.3.07.74.19.77.47.36 3.29 2.36 6.12 2.14 9.56-1.2 2.39-.07 4.54.99 6.3 1.43 2.39 2.4 4.86 2.95 7.61-.2 1.23-.5 2.48.31 3.61 1.32 2.14 1.29 2.35-.85 3.81 2.12-.16 2.12-2.33 3.09-3.44 1.07-1.22 1.84-2.77 2.94-3.68-.74.91-1.84 1.66-2.74 2.66-.6.66-1.26.99-2.08.49-.77-1.13-.21-2.08.33-3.04 1.77-3.23 4.04-6 6.38-8.71-.29.34-.57.7-.91.99-.69.6-1.49 1.16-2.29.47-1.02-.88-.05-1.67.33-2.42 1-2.03 2.19-3.9 3.77-5.44-.58.41-1.16.53-1.74-.03-.13-.22-.2-.46-.23-.72.06-1.04.79-1.58 1.35-2.25 2.09-2.5 3.3-5.39 3.14-8.88.19-1.1.39-2.17-.09-3.24-.38-.85-.15-1.66.17-2.44.27-.65.63-1.23 1.35-1.13.67.09 1.06.65 1.19 1.36.12.66.18 1.35.43 1.97.09 2.63.83 5.17.85 7.82.01.79.36 1.46.88 2 1.22 2.18 2.43 4.37 3.83 6.43.81 1.19 1.29 2.54.95 4.1-.45 1.05-.12 1.96.37 2.88.6 1.09 1.24 2.15 1.64 3.37.31.95.53 1.89-.24 2.59-.82.74-1.58.14-2.28-.43-.31-.26-.58-.56-.69-.74 1.26 1.45 2.3 3.29 3.02 5.37.14.2.26.42.43.58.74.66 1.08 2.68 1.88 2.09 1.08-.79 2.17-2.29 1.78-4.19-1.08-1.55-.77-2.96.22-4.43 1.23-1.83 2.53-3.61 3.49-5.63-1.05.82-1.9 2.91-3.39 1.62-1.29-1.11-.15-2.73.46-3.93 1.32-2.6 2.47-5.31 4.11-7.69.51-.74 1.08-1.53.37-2.52-.57-.66-.94-1.42-.95-2.35.15-1.72 1.46-2.54 2.35-3.68 1.08-1.38 1.94-2.72.52-4.47-.42-.52-.58-1.34-.28-1.95 1.67-3.4 1.76-7.24 2.52-10.89.22-1.1.36-2.35 1.67-2.4 1.22-.04 1.62 1.04 2.01 2.11.77 2.07 1 4.31 1.77 6.36.86 1.54 1.74 3.05.66 4.97-.54.97.19 1.81.59 2.59 1.22 2.36 2.55 4.67 3.84 6.98.74.76 1.3 1.66 1.77 2.63.41.86.74 1.79.02 2.58-.78.85-1.68.55-2.53-.01-.39-.26-.69-.67-1.35-.92.95 2.01 1.67 3.94 2.65 5.74 1.12 2.83 3.39 5.08 3.42 8.46-.03.25-.12.47-.25.68-.92.71-1.75.32-2.51-.34-.72-.63-1.4-1.32-2.44-1.88 1.04 3.52 1.91 6.9 3.7 9.88.67 1.21.9 2.67 1.76 3.76.53.73 1.1 1.46 1.29 2.41.23 1.12-.12 2.11-.95 2.69-.86.6-1.62.04-2.22-.72-.41-.51-.74-1.1-.84-1.27 1.84 1.55 1.63 5.13 3.86 6.96-.57-.79-1.56-1.17-1.71-2.44-.16-1.35 1-1.89 1.27-2.86.61-2.23 2.1-3.92 3.01-6.21-1.17.01-2.33.69-3.05-.64-.48-1.28.05-2.3.64-3.34 1.33-2.29 2.58-4.63 3.77-6.99-1.77-.08-3.47 3.38-5.28.05.33-2.3 2-3.62 3.24-5.17 3.09-3.85 5.5-8.03 6.49-13.14.21-1.09.58-2.14.98-3.16.36-.91.93-1.64 1.9-1.6 1.06.05 1.36 1.07 1.57 1.96.51 2.16.35 4.42.73 6.6.12 2.3.57 4.52 1.36 6.65.27.72.56 1.48.3 2.22-1.05 3.01.6 5.14 1.84 7.42.37.99.91 1.89 1.29 2.88 1.4 1.73 2.33 3.81 3.47 5.74.69 1.18.97 2.51-.2 3.43-1.21.96-2.14.11-2.91-1.02-.65-.96-1.36-1.86-2.05-2.77 1.7 2.16 3.09 4.61 4.74 6.82.53.72 1.12 1.51 1.81.41 2.38-3.88 4.91-7.68 6.18-12.25.05-.17-.02-.34-.22-.58-1.06.3-1.92 1.2-2.94 1.73-.97.5-1.93.91-2.75-.09-.84-1.04-.36-2.05.31-2.99.24-.34.36-.75.53-1.14.77-2.41 2.21-4.44 3.04-6.81 1.01-1.13 1.33-2.6 1.91-4.42-1.72 1.27-3.16 2.23-4.67 3.03-.62.32-1.33.68-1.91-.08-.53-.7-.24-1.46.05-2.17.15-.4.39-.74.67-1.04 3-3.23 5.42-7.02 8.27-10.37.33-.45.98-.87.67-1.49-1.19-2.38.01-4.33.91-6.24.54-1.16.6-2.23.43-3.43.26-1.29.91-2.53.49-3.93.26-1.57.06-3.38 1.79-4.17 2.36.28 1.8 2.52 2.22 4.1.79 2.09 1.18 4.29 1.55 6.5.31.61.52 1.32.35 1.97-.71 2.65.59 4.6 1.77 6.58 1.65 2.78 3.77 5.15 5.47 7.88.84.81 1.6 1.71 2.17 2.78 1.02 1.27 2.41 2.44.83 4.33-2.38.5-3.68-1.96-6.21-2.91 1.57 3.67 2.99 6.8 4.39 9.94 1.22 1.89 2.08 4 3.11 6.01.44.84.64 1.91-.15 2.6-.82.72-1.62.11-2.26-.55-.95-.98-2.04-1.73-3.32-2.98 1.08 4.61 3.58 7.72 5.71 11.05 1.57 2.45 3.19 4.85 4.63 7.39.65 1.16 1.37 2.45 0 3.64-1.2 1.04-2.78.8-3.94-.55-.16-.19-.29-.4-.44-.6-.54-.72-1.16-1.38-1.5-1.96 1.26 1.63 2.46 3.65 3.89 5.48.98 1.25 1.55 1.04 2.22-.29 2.43-4.87 4.71-9.83 7.08-15.44-1.79 1.13-3.1 2.12-4.56 2.77-.89.39-1.84.7-2.58-.2-.78-.95-.28-1.98.22-2.85 1.74-3.04 3.92-5.75 5.18-9.16-1 .65-2 1.28-2.98 1.92-.93.61-2.03 1.34-2.94.18-.87-1.11-.15-2.23.43-3.28.82-1.49 2-2.6 3.09-3.81 2.36-2.6 4.69-5.21 6.01-8.81-.6.28-.88.79-1.28 1.16-.74.7-1.54 1.3-2.5.62-.97-.7-.78-1.84-.47-2.8 1.74-5.34 4.02-10.39 6.55-15.64-.09.35-.16.46-.29.61-.78.97-1.66 2.26-2.87 1.29-1.27-1.02-.35-2.36.3-3.38 2.37-3.73 4.27-7.74 5.77-11.99 1.05-1.71.98-3.74 1.39-5.64.21-1.01.44-2.11 1.64-2.12 1.05-.01 1.33 1 1.64 1.88.36 1.04.48 2.16.59 3.26 1.2 3.78 1.87 7.76 3.38 11.43.19.47.31 1.04.13 1.5-1.06 2.74.39 4.8 1.54 6.87 1.46 2.61 2.77 5.33 4.22 7.94.59 1.06 1.1 2.18.36 3.33-.86 1.33-1.92.45-3.15-.02.25 1.47.45 2.75 1.17 3.87 1.12 1.59 2.05 3.31 3.09 4.96.74 1.2 1.47 2.4 2.24 3.58.9 1.38 1.68 1.29 2.53.03 2.78-4.1 5.78-8 8.21-12.39.63-1.11.79-3.08 2.69-2.91z"/><path class="fil1" d="M964.69 606.38v89.15c-.88 1.27-2.15 1.2-3.38 1.21-5.09.05-10.18-.01-15.27.03-3.17.03-3.66.48-3.87 3.92-.18 2.9-.3 5.8-.43 8.71-.03.53-.29.95-.53 1.4-.92 1.72-1.98 3.16-4.04 2.46-2.05-.69-2.28-2.56-2.25-4.55.06-3.44-.25-6.86-.84-10.22-.69-3.85-2.17-5.07-5.36-3.64-2.9 1.3-5.56.76-8.32.08-.61-.15-1.29-.36-1.82-.14-4.1 1.75-7.31-.85-10.73-2.57-1.33-.67-2.44-.58-2.6 1.47-.15 1.37-.13 2.75-.07 4.12.11 2.37.69 3.05 2.82 3.14 2.93.12 5.87.02 8.79.05 1.33.02 2.62.23 3.83.84.65.33 1.21.91.99 1.8-.19.75-.85 1.01-1.5.96-3.52-.29-6.53 1.33-9.73 2.68-4.95 2.09-10.14 3.41-15.57 1.89-4.88-1.37-9.83-2.23-14.88-1.17-.3.06-.63.09-.92.02-7.68-1.75-15.35-.71-23.01.12-.68.08-1.39.09-2.08-.08-.82-.2-1.78-.29-1.99-1.43-.24-1.3.62-1.8 1.53-2.19 4.4-1.73 9.01-2.07 13.61-2.36 2.81-.18 3.08-.28 3.07-2.49-.02-4.25-.34-4.79-3.11-4.87-2.08-.06-4.17.06-6.24-.08-2.4-.16-2.92-.84-2.84-3.53.05-1.34.12-2.79-1.5-2.92-1.76-.15-2.18 1.23-2.22 2.86-.03 1.54.04 3.1-.03 4.63-.11 2.37.17 4.34 2.87 4.5.64.04 1.19.53 1.23 1.32.03.74-.4 1.31-1 1.6-.92.44-1.84.85-2.9.58-1.15-.29-2.3-.16-3.42.24-2.94.28-5.83-.25-8.74-.6-1.2-.15-2.44-.47-3.15-1.79.33-1.82 1.7-1.43 2.77-1.52 3.46-.28 3.63-.45 3.67-4.23.04-3.16-.22-6.34.41-9.47.06-.33-.4-.22-.09-.18.05.01.02.09-.01.25-.26 1.8-1.47 2.01-2.76 2.05-3.46.12-6.93.01-10.39.07-1.19.03-2.71-.34-3.18 1.33-.51 1.79-.69 3.76.57 5.36.57.72 1.29 1.29.88 2.4-.43 1.19-1.33 1.6-2.4 1.63-3.22.09-6.45.3-9.66.01-.87-.08-1.85-.22-1.96-1.37-.09-1.08.74-1.53 1.58-1.91 1.91-.88 2.41-2.41 1.94-5.28-.33-2.09-1.7-2.16-3.14-2.16-2.39-.01-4.77 0-7.16 0-1.81 0-2.72.93-2.7 2.97.02 1.71-.11 3.43.17 5.13.19 1.19-.17 2.01-1.25 2.37-3.01 1.41-4.8 1.12-6.8-1.1.32-2.09.71-4.16.57-6.3-.16-2.47-.87-3.28-3.05-2.91-3.06.51-6.13.36-9.19.28-2.72-.08-3.17-.84-2.58-3.86.99-4.55 2.95-8.73 4.25-13.16.92-3.15 2.03-6.24 3.11-9.65-1.13 1.04-1.53 2.43-2.64 3.03-.43.13-.87.31-1.32.07-1.21-1.21-.62-2.5-.09-3.73 1.87-4.32 3.87-8.58 5.93-13.32-1.93 1.9-3.34 3.75-4.97 5.35-.84.83-1.84 1.63-2.84.53-.84-.94-.31-2.05.29-3.03 1.63-2.61 3.61-4.9 5.31-7.44.58-.86 1.12-1.68.47-2.78-.61-1.17-.1-2.09.5-3.04 1.67-2.66 3.6-5.11 5.25-8.13-.99 1.1-1.97 1.8-2.93 2.5-.74.53-1.67.76-2.31-.13-.57-.79-.11-1.62.39-2.32 1.91-2.67 3.8-5.36 5.37-8.28-.26.16.08-.06-.18.12-1.08.77-2.36 1.59-3.26.13-.85-1.36.4-2.3 1.22-3.19.16-.18.36-.31.55-.47 1.43-2.47 3.7-4.37 3.22-7.99-.21-1.61.96-3.35 1.03-5.16.33-.97.4-1.99.43-3.02.04-1.22.41-2.18 1.73-2.21.3.07.74.19.77.47.36 3.29 2.36 6.12 2.14 9.56-1.2 2.39-.07 4.54.99 6.3 1.43 2.39 2.4 4.86 2.95 7.61-.2 1.23-.5 2.48.31 3.61 1.32 2.14 1.29 2.35-.85 3.81 2.12-.16 2.12-2.33 3.09-3.44 1.07-1.22 1.84-2.77 2.94-3.68-.74.91-1.84 1.66-2.74 2.66-.6.66-1.26.99-2.08.49-.77-1.13-.21-2.08.33-3.04 1.77-3.23 4.04-6 6.38-8.71-.29.34-.57.7-.91.99-.69.6-1.49 1.16-2.29.47-1.02-.88-.05-1.67.33-2.42 1-2.03 2.19-3.9 3.77-5.44-.58.41-1.16.53-1.74-.03-.13-.22-.2-.46-.23-.72.06-1.04.79-1.58 1.35-2.25 2.09-2.5 3.3-5.39 3.14-8.88.19-1.1.39-2.17-.09-3.24-.38-.85-.15-1.66.17-2.44.27-.65.63-1.23 1.35-1.13.67.09 1.06.65 1.19 1.36.12.66.18 1.35.43 1.97.09 2.63.83 5.17.85 7.82.01.79.36 1.46.88 2 1.22 2.18 2.43 4.37 3.83 6.43.81 1.19 1.29 2.54.95 4.1-.45 1.05-.12 1.96.37 2.88.6 1.09 1.24 2.15 1.64 3.37.31.95.53 1.89-.24 2.59-.82.74-1.58.14-2.28-.43-.31-.26-.58-.56-.69-.74 1.25 1.45 2.3 3.29 3.02 5.37.14.2.26.42.43.58.74.66 1.08 2.68 1.87 2.09 1.08-.79 2.17-2.29 1.78-4.19-1.08-1.55-.77-2.96.22-4.43 1.23-1.83 2.53-3.61 3.49-5.63-1.05.82-1.9 2.91-3.39 1.62-1.29-1.11-.15-2.73.46-3.93 1.32-2.6 2.47-5.31 4.11-7.69.51-.74 1.08-1.53.37-2.52-.57-.66-.94-1.42-.95-2.35.15-1.72 1.46-2.54 2.35-3.68 1.08-1.38 1.94-2.72.52-4.47-.42-.52-.58-1.34-.28-1.95 1.67-3.4 1.76-7.24 2.52-10.89.22-1.1.36-2.35 1.67-2.4 1.22-.04 1.62 1.04 2.01 2.11.77 2.07 1 4.31 1.77 6.36.86 1.54 1.74 3.05.66 4.97-.54.97.19 1.81.59 2.59 1.22 2.36 2.55 4.67 3.84 6.98.74.76 1.3 1.66 1.77 2.63.41.86.74 1.79.02 2.58-.78.85-1.68.55-2.53-.01-.39-.26-.69-.67-1.35-.92.95 2.01 1.67 3.94 2.65 5.74 1.12 2.83 3.39 5.08 3.42 8.46-.03.25-.12.47-.25.68-.92.71-1.75.32-2.51-.34-.72-.63-1.39-1.32-2.44-1.88 1.04 3.52 1.91 6.9 3.7 9.88.67 1.21.9 2.67 1.76 3.76.53.73 1.1 1.46 1.29 2.41.23 1.12-.12 2.11-.95 2.69-.86.6-1.62.04-2.22-.72-.41-.51-.74-1.1-.84-1.27 1.84 1.55 1.63 5.13 3.86 6.96-.57-.79-1.56-1.17-1.71-2.44-.16-1.35 1-1.89 1.27-2.86.61-2.23 2.1-3.92 3.01-6.21-1.17.01-2.33.69-3.05-.64-.48-1.28.05-2.3.64-3.34 1.33-2.29 2.58-4.63 3.77-6.99-1.77-.08-3.47 3.38-5.28.05.33-2.3 2-3.62 3.24-5.17 3.09-3.85 5.5-8.03 6.49-13.14.21-1.09.58-2.14.98-3.16.36-.91.93-1.64 1.9-1.6 1.06.05 1.36 1.07 1.57 1.96.51 2.16.35 4.42.73 6.6.12 2.3.57 4.52 1.36 6.65.27.72.56 1.48.3 2.22-1.05 3.01.6 5.14 1.84 7.42.37.99.91 1.89 1.29 2.88 1.39 1.73 2.33 3.81 3.47 5.74.69 1.18.97 2.51-.2 3.43-1.21.96-2.14.11-2.91-1.02-.65-.96-1.36-1.86-2.05-2.77 1.7 2.16 3.09 4.61 4.74 6.82.53.72 1.12 1.51 1.81.41 2.38-3.88 4.91-7.68 6.18-12.25.05-.17-.02-.34-.22-.58-1.06.3-1.92 1.2-2.94 1.73-.97.5-1.93.91-2.75-.09-.84-1.04-.36-2.05.31-2.99.24-.34.36-.75.53-1.14.77-2.41 2.21-4.44 3.04-6.81 1.01-1.13 1.33-2.6 1.91-4.42-1.72 1.27-3.16 2.23-4.67 3.03-.62.32-1.33.68-1.91-.08-.53-.7-.24-1.46.05-2.17.15-.4.39-.74.67-1.04 3-3.23 5.42-7.02 8.27-10.37.33-.45.98-.87.67-1.49-1.19-2.38.01-4.33.91-6.24.54-1.16.6-2.23.43-3.43.26-1.29.91-2.53.49-3.93.26-1.57.06-3.38 1.79-4.17 2.36.28 1.8 2.52 2.22 4.1.79 2.09 1.18 4.29 1.55 6.5.31.61.52 1.32.35 1.97-.71 2.65.59 4.6 1.77 6.58 1.65 2.78 3.77 5.15 5.47 7.88.84.81 1.6 1.71 2.17 2.78 1.02 1.27 2.41 2.44.83 4.33-2.38.5-3.68-1.96-6.21-2.91 1.57 3.67 2.99 6.8 4.39 9.94 1.22 1.89 2.08 4 3.11 6.01.44.84.64 1.91-.15 2.6-.82.72-1.62.11-2.26-.55-.95-.98-2.04-1.73-3.32-2.98 1.08 4.61 3.58 7.72 5.71 11.05 1.57 2.45 3.19 4.85 4.63 7.39.65 1.16 1.37 2.45 0 3.64-1.2 1.04-2.78.8-3.94-.55-.15-.19-.29-.4-.44-.6-.54-.72-1.16-1.38-1.5-1.96 1.26 1.63 2.46 3.65 3.89 5.48.98 1.25 1.55 1.04 2.22-.29 2.43-4.87 4.71-9.83 7.08-15.44-1.79 1.13-3.1 2.12-4.56 2.77-.89.39-1.84.7-2.58-.2-.78-.95-.28-1.98.22-2.85 1.74-3.04 3.92-5.75 5.18-9.16-1 .65-2 1.28-2.98 1.92-.93.61-2.03 1.34-2.94.18-.87-1.11-.15-2.23.43-3.28.82-1.49 2-2.6 3.09-3.81 2.36-2.6 4.69-5.21 6.01-8.81-.6.28-.88.79-1.28 1.16-.74.7-1.54 1.3-2.5.62-.97-.7-.78-1.84-.47-2.8 1.74-5.34 4.02-10.39 6.55-15.64-.09.35-.16.46-.29.61-.77.97-1.66 2.26-2.87 1.29-1.27-1.02-.35-2.36.3-3.38 2.37-3.73 4.27-7.74 5.77-11.99 1.05-1.71.98-3.74 1.39-5.64.21-1.01.44-2.11 1.64-2.12 1.05-.01 1.33 1 1.64 1.88.36 1.04.48 2.16.59 3.26 1.2 3.78 1.87 7.76 3.38 11.43.19.47.31 1.04.13 1.5-1.06 2.74.39 4.8 1.54 6.87 1.46 2.61 2.77 5.33 4.22 7.94.59 1.06 1.1 2.18.36 3.33-.86 1.33-1.92.45-3.15-.02.25 1.47.45 2.75 1.17 3.87 1.12 1.59 2.05 3.31 3.09 4.96.74 1.2 1.47 2.4 2.24 3.58.9 1.38 1.68 1.29 2.53.03 2.78-4.1 5.78-8 8.21-12.39.63-1.11.79-3.08 2.69-2.91z"/><path style="fill:#011121" d="M0 687.2h1288.81v46.72H0z"/></g></g></svg>